<svg width="218" height="48" viewBox="0 0 218 48" fill="none" xmlns="http://www.w3.org/2000/svg">
<path d="M0 24C0 10.7452 10.7452 0 24 0C37.2548 0 48 10.7452 48 24C48 37.2548 37.2548 48 24 48C10.7452 48 0 37.2548 0 24Z" fill="#0A7CFF"/>
<path d="M0 24C0 10.7452 10.7452 0 24 0C37.2548 0 48 10.7452 48 24C48 37.2548 37.2548 48 24 48C10.7452 48 0 37.2548 0 24Z" fill="url(#paint0_radial_34_32036)"/>
<path d="M21.75 21.9783C21.75 21.3659 22.2537 20.8696 22.875 20.8696H25.125C25.7463 20.8696 26.25 21.3659 26.25 21.9783V36.3913C26.25 37.0036 25.7463 37.5 25.125 37.5H22.875C22.2537 37.5 21.75 37.0036 21.75 36.3913V21.9783Z" fill="url(#paint1_linear_34_32036)"/>
<path d="M21.75 13.1087C21.75 12.4964 22.2537 12 22.875 12H25.125C25.7463 12 26.25 12.4964 26.25 13.1087V15.3261C26.25 15.9384 25.7463 16.4348 25.125 16.4348H22.875C22.2537 16.4348 21.75 15.9384 21.75 15.3261V13.1087Z" fill="url(#paint2_linear_34_32036)"/>
<path d="M26.25 17.5435C26.25 16.9312 26.7537 16.4348 27.375 16.4348H36.375C36.9963 16.4348 37.5 16.9312 37.5 17.5435V19.7609C37.5 20.3732 36.9963 20.8696 36.375 20.8696H27.375C26.7537 20.8696 26.25 20.3732 26.25 19.7609V17.5435Z" fill="url(#paint3_linear_34_32036)"/>
<path d="M10.5 17.5435C10.5 16.9312 11.0037 16.4348 11.625 16.4348H20.625C21.2463 16.4348 21.75 16.9312 21.75 17.5435V19.7609C21.75 20.3732 21.2463 20.8696 20.625 20.8696H11.625C11.0037 20.8696 10.5 20.3732 10.5 19.7609V17.5435Z" fill="url(#paint4_linear_34_32036)"/>
<path d="M61.321 16.5156V13.6818H78.2067V16.5156H71.3991V35.5H68.1179V16.5156H61.321ZM79.3831 35.5V19.1364H82.462V21.7358H82.6324C82.9307 20.8551 83.4563 20.1626 84.2091 19.6584C84.9691 19.147 85.8284 18.8913 86.7873 18.8913C86.9861 18.8913 87.2205 18.8984 87.4904 18.9126C87.7674 18.9268 87.984 18.9446 88.1402 18.9659V22.0128C88.0124 21.9773 87.7851 21.9382 87.4584 21.8956C87.1317 21.8459 86.805 21.821 86.4783 21.821C85.7255 21.821 85.0543 21.9808 84.4648 22.3004C83.8824 22.6129 83.4208 23.0497 83.0799 23.6108C82.739 24.1648 82.5685 24.7969 82.5685 25.5071V35.5H79.3831ZM94.9124 35.8622C93.8755 35.8622 92.938 35.6705 92.0999 35.2869C91.2618 34.8963 90.5978 34.3317 90.1077 33.593C89.6248 32.8544 89.3833 31.9489 89.3833 30.8764C89.3833 29.9531 89.5608 29.1932 89.9159 28.5966C90.2711 28 90.7505 27.5277 91.3542 27.1797C91.9578 26.8317 92.6326 26.5689 93.3783 26.3913C94.124 26.2138 94.884 26.0788 95.6581 25.9865C96.6382 25.8729 97.4337 25.7805 98.0445 25.7095C98.6553 25.6314 99.0992 25.5071 99.3762 25.3366C99.6532 25.1662 99.7917 24.8892 99.7917 24.5057V24.4311C99.7917 23.5007 99.5289 22.7798 99.0033 22.2685C98.4848 21.7571 97.7107 21.5014 96.6809 21.5014C95.6084 21.5014 94.7632 21.7393 94.1453 22.2152C93.5346 22.6839 93.112 23.206 92.8776 23.7812L89.884 23.0994C90.2391 22.1051 90.7576 21.3026 91.4394 20.6918C92.1283 20.0739 92.9202 19.6264 93.8151 19.3494C94.71 19.0653 95.651 18.9233 96.6382 18.9233C97.2917 18.9233 97.9841 19.0014 98.7157 19.1577C99.4543 19.3068 100.143 19.5838 100.782 19.9886C101.429 20.3935 101.958 20.9723 102.37 21.7251C102.782 22.4709 102.988 23.4403 102.988 24.6335V35.5H99.8769V33.2628H99.749C99.5431 33.6747 99.2341 34.0795 98.8222 34.4773C98.4103 34.875 97.8811 35.2053 97.2348 35.468C96.5885 35.7308 95.8144 35.8622 94.9124 35.8622ZM95.6049 33.3054C96.4855 33.3054 97.2384 33.1314 97.8634 32.7834C98.4955 32.4354 98.9749 31.9808 99.3016 31.4197C99.6354 30.8516 99.8023 30.2443 99.8023 29.598V27.4886C99.6887 27.6023 99.4685 27.7088 99.1418 27.8082C98.8222 27.9006 98.4564 27.9822 98.0445 28.0533C97.6326 28.1172 97.2313 28.1776 96.8407 28.2344C96.45 28.2841 96.1233 28.3267 95.8605 28.3622C95.2426 28.4403 94.678 28.5717 94.1667 28.7564C93.6624 28.9411 93.2576 29.2074 92.9522 29.5554C92.6539 29.8963 92.5047 30.3509 92.5047 30.919C92.5047 31.7074 92.7959 32.304 93.3783 32.7088C93.9607 33.1065 94.7029 33.3054 95.6049 33.3054ZM112.756 35.8196C111.435 35.8196 110.256 35.4822 109.219 34.8075C108.189 34.1257 107.38 33.1562 106.79 31.8991C106.208 30.6349 105.917 29.1186 105.917 27.3501C105.917 25.5817 106.211 24.0689 106.801 22.8118C107.397 21.5547 108.214 20.5923 109.251 19.9247C110.288 19.2571 111.463 18.9233 112.777 18.9233C113.793 18.9233 114.61 19.0938 115.228 19.4347C115.853 19.7685 116.336 20.1591 116.677 20.6065C117.025 21.054 117.294 21.4482 117.486 21.7891H117.678V13.6818H120.863V35.5H117.753V32.9538H117.486C117.294 33.3018 117.017 33.6996 116.655 34.147C116.3 34.5945 115.81 34.9851 115.185 35.3189C114.56 35.6527 113.75 35.8196 112.756 35.8196ZM113.459 33.103C114.375 33.103 115.15 32.8615 115.782 32.3786C116.421 31.8885 116.904 31.2102 117.231 30.3438C117.564 29.4773 117.731 28.4687 117.731 27.3182C117.731 26.1818 117.568 25.1875 117.241 24.3352C116.914 23.483 116.435 22.8189 115.803 22.343C115.171 21.8672 114.39 21.6293 113.459 21.6293C112.5 21.6293 111.701 21.8778 111.062 22.375C110.423 22.8722 109.94 23.5504 109.613 24.4098C109.294 25.2692 109.134 26.2386 109.134 27.3182C109.134 28.4119 109.297 29.3956 109.624 30.2692C109.951 31.1428 110.434 31.8352 111.073 32.3466C111.719 32.8509 112.515 33.103 113.459 33.103ZM124.81 35.5V19.1364H127.995V35.5H124.81ZM126.418 16.6115C125.864 16.6115 125.389 16.4268 124.991 16.0575C124.6 15.6811 124.405 15.2337 124.405 14.7152C124.405 14.1896 124.6 13.7422 124.991 13.3729C125.389 12.9964 125.864 12.8082 126.418 12.8082C126.972 12.8082 127.445 12.9964 127.835 13.3729C128.233 13.7422 128.432 14.1896 128.432 14.7152C128.432 15.2337 128.233 15.6811 127.835 16.0575C127.445 16.4268 126.972 16.6115 126.418 16.6115ZM138.733 35.8303C137.121 35.8303 135.732 35.4858 134.567 34.7969C133.41 34.1009 132.515 33.1243 131.883 31.8672C131.258 30.603 130.945 29.1222 130.945 27.4247C130.945 25.7486 131.258 24.2713 131.883 22.9929C132.515 21.7145 133.396 20.7166 134.525 19.9993C135.661 19.282 136.989 18.9233 138.509 18.9233C139.433 18.9233 140.327 19.076 141.194 19.3814C142.06 19.6868 142.838 20.1662 143.527 20.8196C144.216 21.473 144.759 22.3217 145.157 23.3658C145.555 24.4027 145.754 25.6634 145.754 27.1477V28.277H132.746V25.8906H142.632C142.632 25.0526 142.462 24.3104 142.121 23.6641C141.78 23.0107 141.3 22.4957 140.683 22.1193C140.072 21.7429 139.354 21.5547 138.531 21.5547C137.636 21.5547 136.854 21.7749 136.187 22.2152C135.526 22.6484 135.015 23.2166 134.653 23.9197C134.298 24.6158 134.12 25.3722 134.12 26.1889V28.0533C134.12 29.147 134.312 30.0774 134.695 30.8445C135.086 31.6115 135.629 32.1974 136.325 32.6023C137.021 33 137.835 33.1989 138.765 33.1989C139.369 33.1989 139.919 33.1136 140.416 32.9432C140.913 32.7656 141.343 32.5028 141.705 32.1548C142.067 31.8068 142.344 31.3771 142.536 30.8658L145.551 31.4091C145.31 32.2969 144.876 33.0746 144.251 33.7422C143.634 34.4027 142.856 34.9176 141.918 35.2869C140.988 35.6491 139.926 35.8303 138.733 35.8303ZM151.873 25.7841V35.5H148.688V19.1364H151.745V21.7997H151.948C152.324 20.9332 152.914 20.2372 153.716 19.7116C154.526 19.1861 155.545 18.9233 156.774 18.9233C157.889 18.9233 158.865 19.1577 159.703 19.6264C160.542 20.0881 161.191 20.777 161.653 21.6932C162.115 22.6094 162.345 23.7422 162.345 25.0916V35.5H159.16V25.4751C159.16 24.2891 158.851 23.3622 158.233 22.6946C157.615 22.0199 156.767 21.6825 155.687 21.6825C154.948 21.6825 154.292 21.8423 153.716 22.1619C153.148 22.4815 152.697 22.9503 152.363 23.5682C152.037 24.179 151.873 24.9176 151.873 25.7841ZM173.656 19.1364V21.6932H164.718V19.1364H173.656ZM167.115 15.2159H170.3V30.6953C170.3 31.3132 170.393 31.7784 170.577 32.0909C170.762 32.3963 171 32.6058 171.291 32.7195C171.589 32.826 171.912 32.8793 172.26 32.8793C172.516 32.8793 172.74 32.8615 172.932 32.826C173.123 32.7905 173.272 32.7621 173.379 32.7408L173.954 35.3722C173.77 35.4432 173.507 35.5142 173.166 35.5852C172.825 35.6634 172.399 35.706 171.888 35.7131C171.049 35.7273 170.268 35.5781 169.544 35.2656C168.819 34.9531 168.233 34.4702 167.786 33.8168C167.339 33.1634 167.115 32.343 167.115 31.3558V15.2159Z" fill="white"/>
<defs>
<radialGradient id="paint0_radial_34_32036" cx="0" cy="0" r="1" gradientUnits="userSpaceOnUse" gradientTransform="translate(24 24) rotate(45) scale(33.9411)">
<stop stop-color="white" stop-opacity="0.12"/>
<stop offset="1" stop-opacity="0"/>
</radialGradient>
<linearGradient id="paint1_linear_34_32036" x1="26.6518" y1="6.08029" x2="26.6518" y2="53.7236" gradientUnits="userSpaceOnUse">
<stop offset="0.313079" stop-color="white"/>
<stop offset="1" stop-color="white" stop-opacity="0"/>
</linearGradient>
<linearGradient id="paint2_linear_34_32036" x1="26.6518" y1="6.08029" x2="26.6518" y2="53.7236" gradientUnits="userSpaceOnUse">
<stop offset="0.313079" stop-color="white"/>
<stop offset="1" stop-color="white" stop-opacity="0"/>
</linearGradient>
<linearGradient id="paint3_linear_34_32036" x1="26.6518" y1="6.08029" x2="26.6518" y2="53.7236" gradientUnits="userSpaceOnUse">
<stop offset="0.313079" stop-color="white"/>
<stop offset="1" stop-color="white" stop-opacity="0"/>
</linearGradient>
<linearGradient id="paint4_linear_34_32036" x1="26.6518" y1="6.08029" x2="26.6518" y2="53.7236" gradientUnits="userSpaceOnUse">
<stop offset="0.313079" stop-color="white"/>
<stop offset="1" stop-color="white" stop-opacity="0"/>
</linearGradient>
</defs>
</svg>
