<svg width="159" height="46" viewBox="0 0 159 46" fill="none" xmlns="http://www.w3.org/2000/svg">
<path fill-rule="evenodd" clip-rule="evenodd" d="M12.2999 31.7835C5.30071 30.4873 0 24.3508 0 16.9763C0 8.65913 6.74238 1.91675 15.0595 1.91675C22.4341 1.91675 28.5706 7.21746 29.8668 14.2167C28.9721 14.051 28.0498 13.9644 27.1071 13.9644C18.79 13.9644 12.0476 20.7067 12.0476 29.0239C12.0476 29.9665 12.1342 30.8889 12.2999 31.7835Z" fill="white"/>
<path fill-rule="evenodd" clip-rule="evenodd" d="M15.0599 32.0355C23.3771 32.0355 30.1194 25.2931 30.1194 16.9759C30.1194 16.0333 30.0328 15.1109 29.8672 14.2163C36.8664 15.5125 42.1671 21.649 42.1671 29.0235C42.1671 37.3407 35.4247 44.0831 27.1075 44.0831C19.733 44.0831 13.5965 38.7824 12.3003 31.7832C13.1949 31.9489 14.1173 32.0355 15.0599 32.0355Z" fill="white"/>
<path d="M64.7353 32.8134C69.8815 32.8134 73.5903 29.9096 73.964 25.5971H69.6515C69.3065 27.6671 67.3228 29.0759 64.7353 29.0759C61.4865 29.0759 58.9853 26.8334 58.9853 22.5209C58.9853 18.2084 61.4865 15.9371 64.7353 15.9371C67.2653 15.9371 69.249 17.3459 69.5365 19.4446H74.0503C73.504 15.1034 69.7953 12.2284 64.7353 12.2284C59.359 12.2284 54.644 15.7359 54.644 22.5209C54.644 29.3059 59.2728 32.8134 64.7353 32.8134Z" fill="white"/>
<path d="M81.9673 17.8634C77.9998 17.8634 75.6423 20.1921 75.4698 23.0959H79.0348C79.0923 21.8884 79.9836 20.7959 81.7373 20.7959C83.3761 20.7959 84.3248 21.6296 84.3248 22.8371C84.3248 23.4409 83.9511 23.9009 83.2323 23.9009H80.7886C77.6261 23.9009 75.4986 25.6259 75.4986 28.4721C75.4986 30.9446 77.4248 32.8134 80.2423 32.8134C82.2261 32.8134 83.8361 31.9221 84.3248 30.5709V32.5834H88.2923V23.2684C88.2923 19.9909 85.6186 17.8634 81.9673 17.8634ZM81.2486 29.9096C80.1273 29.9096 79.3223 29.2484 79.3223 28.2996C79.3223 27.1784 80.1848 26.4309 81.3923 26.4309H84.3248V26.6321C84.3248 28.4721 83.2036 29.9096 81.2486 29.9096Z" fill="white"/>
<path d="M90.978 38.4484H94.9742V31.2896C95.7505 32.2671 97.1592 32.8134 98.798 32.8134C102.967 32.8134 105.784 29.8521 105.784 25.3384C105.784 20.8246 103.197 17.8634 99.143 17.8634C97.2742 17.8634 95.8367 18.5534 94.9742 19.6746V18.0934H90.978V38.4484ZM98.3092 29.3634C96.153 29.3634 94.7442 27.7534 94.7442 25.3384C94.7442 22.8946 96.153 21.2846 98.3092 21.2846C100.408 21.2846 101.845 22.8946 101.845 25.3384C101.845 27.7534 100.408 29.3634 98.3092 29.3634Z" fill="white"/>
<path d="M112.821 32.8134C116.213 32.8134 118.456 31.0021 118.456 28.2421C118.456 21.6871 110.521 25.0509 110.521 22.0896C110.521 21.1696 111.297 20.6809 112.418 20.6809C113.511 20.6809 114.632 21.3421 114.805 22.5784H118.283C118.14 19.7321 115.782 17.8634 112.303 17.8634C109.342 17.8634 107.128 19.6746 107.128 22.2334C107.128 28.3284 114.92 25.4246 114.92 28.3859C114.92 29.1909 114.057 29.7946 112.821 29.7946C111.326 29.7946 110.32 28.9896 110.176 27.6959H106.726C106.87 30.8296 109.285 32.8134 112.821 32.8134Z" fill="white"/>
<path d="M134.24 18.0934H130.215V26.0284C130.215 27.8684 128.979 29.2484 127.225 29.2484C125.586 29.2484 124.436 27.9834 124.436 26.2296V18.0934H120.44V27.1209C120.44 30.4271 122.567 32.8134 125.816 32.8134C127.8 32.8134 129.41 31.9509 130.215 30.5709V32.5834H134.24V18.0934Z" fill="white"/>
<path d="M137.115 32.5834H141.111V11.7971H137.115V32.5834Z" fill="white"/>
<path d="M153.67 27.6671C153.354 28.9034 152.29 29.5359 150.68 29.5359C148.668 29.5359 147.374 28.2709 147.087 26.2296H157.494C157.523 25.9134 157.552 25.4821 157.552 24.9359C157.552 21.6296 155.51 17.8634 150.393 17.8634C145.477 17.8634 143.234 21.6296 143.234 25.3096C143.234 28.9609 145.764 32.8134 150.68 32.8134C154.245 32.8134 157.005 30.8009 157.58 27.6671H153.67ZM150.393 20.7959C152.319 20.7959 153.44 22.0896 153.555 23.6996H147.144C147.489 21.6871 148.582 20.7959 150.393 20.7959Z" fill="white"/>
</svg>
