<svg width="168" height="46" viewBox="0 0 168 46" fill="none" xmlns="http://www.w3.org/2000/svg">
<path d="M14.2042 18.6394C19.7251 15.999 24.0458 11.5183 26.5262 5.91738C24.9259 4.23711 22.8456 3.03692 20.6052 2.31681L19.405 1.91675C19.325 2.07677 19.245 2.31682 19.245 2.47685C17.3247 7.91771 13.4041 12.3184 8.12327 14.7988C4.44269 16.5591 1.72226 19.7596 0.442055 23.6002L0.0419922 24.8004C0.202017 24.8804 0.442059 24.9604 0.602084 24.9604C2.12232 25.5205 3.64256 26.2406 5.08279 27.1207C7.08311 23.5202 10.2836 20.4797 14.2042 18.6394Z" fill="white"/>
<path d="M37.408 18.9595C34.4475 23.4402 30.3669 27.0408 25.3261 29.4411C21.2455 31.3614 18.125 34.962 16.6847 39.2827L16.2847 40.6429C17.8049 42.0031 19.6452 43.0433 21.6455 43.6834L22.8457 44.0835C22.9257 43.9234 23.0057 43.6834 23.0057 43.5234C24.926 38.0825 28.8467 33.6818 34.1275 31.2014C37.8081 29.4411 40.6085 26.2406 41.8087 22.4L42.2088 21.1998C40.5285 20.7198 38.9282 19.9196 37.408 18.9595Z" fill="white"/>
<path d="M13.0842 36.4819C15.0845 31.6811 18.7651 27.7605 23.4859 25.5201C27.8065 23.4398 31.4071 20.2393 33.8875 16.3187C32.0472 14.5584 30.527 12.5581 29.4068 10.1577C26.4463 15.5986 21.8056 19.9993 16.1247 22.7197C12.8442 24.2399 10.2038 26.8804 8.60352 30.0809C10.3638 31.7611 11.804 33.8415 12.9242 36.1618C12.9242 36.1618 13.0042 36.3219 13.0842 36.4819Z" fill="white"/>
<path d="M51.7441 32.5834H65.2279V28.8459H56.0854V12.4584H51.7441V32.5834Z" fill="white"/>
<path d="M79.3152 18.0934H75.2902V26.0284C75.2902 27.8684 74.0539 29.2484 72.3002 29.2484C70.6614 29.2484 69.5114 27.9834 69.5114 26.2296V18.0934H65.5152V27.1209C65.5152 30.4271 67.6427 32.8134 70.8914 32.8134C72.8752 32.8134 74.4852 31.9509 75.2902 30.5709V32.5834H79.3152V18.0934Z" fill="white"/>
<path d="M80.8104 32.5834H84.8354V24.3609C84.8354 22.4921 85.8991 21.2559 87.5666 21.2559C89.1191 21.2559 90.0966 22.4921 90.0966 24.3609V32.5834H94.1216V24.3609C94.1216 22.4921 95.1854 21.2559 96.8529 21.2559C98.4054 21.2559 99.4116 22.4921 99.4116 24.3609V32.5834H103.408V23.0959C103.408 20.1921 101.367 17.8634 98.2041 17.8634C95.8754 17.8634 94.0641 19.0996 93.3741 20.5084C92.6841 18.7834 91.2179 17.8634 88.9466 17.8634C86.9916 17.8634 85.6116 18.8121 84.8354 20.1346V18.0934H80.8104V32.5834Z" fill="white"/>
<path d="M104.779 11.7971V16.0234H109.034V11.7971H104.779ZM104.894 32.5834H108.919V18.0934H104.894V32.5834Z" fill="white"/>
<path d="M110.42 32.5834H114.445V24.6484C114.445 22.7796 115.681 21.4284 117.435 21.4284C119.102 21.4284 120.223 22.6934 120.223 24.4471V32.5834H124.248V23.5559C124.248 20.2209 122.121 17.8634 118.843 17.8634C116.86 17.8634 115.25 18.6971 114.445 20.1059V18.0934H110.42V32.5834Z" fill="white"/>
<path d="M132.644 32.8134C137.1 32.8134 140.291 29.6509 140.291 25.3384C140.291 21.0259 137.1 17.8634 132.644 17.8634C128.187 17.8634 124.996 21.0259 124.996 25.3384C124.996 29.6509 128.187 32.8134 132.644 32.8134ZM132.644 29.3634C130.487 29.3634 129.021 27.7246 129.021 25.3384C129.021 22.9234 130.487 21.2846 132.644 21.2846C134.8 21.2846 136.266 22.9234 136.266 25.3384C136.266 27.7246 134.8 29.3634 132.644 29.3634Z" fill="white"/>
<path d="M154.868 18.0934H150.843V26.0284C150.843 27.8684 149.607 29.2484 147.853 29.2484C146.214 29.2484 145.064 27.9834 145.064 26.2296V18.0934H141.068V27.1209C141.068 30.4271 143.196 32.8134 146.444 32.8134C148.428 32.8134 150.038 31.9509 150.843 30.5709V32.5834H154.868V18.0934Z" fill="white"/>
<path d="M161.653 32.8134C165.046 32.8134 167.288 31.0021 167.288 28.2421C167.288 21.6871 159.353 25.0509 159.353 22.0896C159.353 21.1696 160.13 20.6809 161.251 20.6809C162.343 20.6809 163.465 21.3421 163.637 22.5784H167.116C166.972 19.7321 164.615 17.8634 161.136 17.8634C158.175 17.8634 155.961 19.6746 155.961 22.2334C155.961 28.3284 163.752 25.4246 163.752 28.3859C163.752 29.1909 162.89 29.7946 161.653 29.7946C160.158 29.7946 159.152 28.9896 159.008 27.6959H155.558C155.702 30.8296 158.117 32.8134 161.653 32.8134Z" fill="white"/>
</svg>
