<svg width="161" height="46" viewBox="0 0 161 46" fill="none" xmlns="http://www.w3.org/2000/svg">
<path fill-rule="evenodd" clip-rule="evenodd" d="M18.9419 3.30439C18.4579 3.20485 17.9587 3.20485 17.4747 3.30439C16.9153 3.41946 16.4152 3.69954 16.0177 3.92221L15.9093 3.98275L2.43563 11.4681C2.39838 11.4888 2.36 11.51 2.32067 11.5316C1.89983 11.7634 1.37069 12.0549 0.964341 12.4958C0.613021 12.877 0.347152 13.3289 0.184513 13.8211C-0.00360319 14.3905 -0.00140228 14.9946 0.000348026 15.475C0.000511644 15.5199 0.000671237 15.5638 0.000671237 15.6064V30.3857C0.000671237 30.4283 0.000511644 30.4722 0.000348026 30.5171C-0.00140228 30.9975 -0.00360319 31.6016 0.184513 32.171C0.347154 32.6632 0.613024 33.1151 0.964341 33.4963C1.37069 33.9372 1.89984 34.2287 2.32067 34.4605C2.36 34.4821 2.39839 34.5033 2.43563 34.524L15.9093 42.0093L16.0177 42.0699C16.4152 42.2926 16.9153 42.5726 17.4747 42.6877C17.9587 42.7872 18.4579 42.7872 18.9419 42.6877C19.5014 42.5726 20.0015 42.2926 20.399 42.0699L20.5074 42.0093L33.981 34.524C33.9975 34.5148 34.0142 34.5056 34.0311 34.4963C34.0524 34.4845 34.074 34.4726 34.096 34.4605C34.5168 34.2287 35.046 33.9372 35.4523 33.4963C35.8036 33.1151 36.0695 32.6632 36.2322 32.171C36.4203 31.6016 36.4181 30.9975 36.4163 30.517C36.4162 30.4722 36.416 30.4283 36.416 30.3857V15.6064C36.416 15.5638 36.4162 15.5199 36.4163 15.475C36.4181 14.9946 36.4203 14.3905 36.2322 13.8211C36.0695 13.3289 35.8036 12.877 35.4523 12.4958C35.046 12.0549 34.5168 11.7634 34.096 11.5316L34.0945 11.5308C34.0557 11.5094 34.0178 11.4885 33.981 11.4681L20.5074 3.98274L20.399 3.92221C20.0014 3.69954 19.5014 3.41946 18.9419 3.30439ZM17.6778 7.16602C17.9537 7.01273 18.0946 6.93527 18.1996 6.8846L18.2083 6.88043L18.217 6.88459C18.3221 6.93527 18.463 7.01273 18.7389 7.16602L30.846 13.8922L18.2083 20.9131L5.57064 13.8922L17.6778 7.16602ZM3.6422 16.9866L16.3875 24.0673L16.3876 38.1093L4.20412 31.3407C3.91288 31.1789 3.76419 31.0954 3.65987 31.029L3.65106 31.0233L3.6504 31.0129C3.64296 30.8894 3.6422 30.7189 3.6422 30.3857V16.9866Z" fill="white"/>
<path d="M52.9871 29.0809H58.7831V32.4964H48.5625V14.3321H52.9871V29.0809Z" fill="white"/>
<path d="M62.8601 16.5574C62.0838 16.5574 61.4456 16.3331 60.9453 15.8846C60.4623 15.4189 60.2208 14.8496 60.2208 14.1769C60.2208 13.4869 60.4623 12.9176 60.9453 12.4691C61.4456 12.0034 62.0838 11.7705 62.8601 11.7705C63.6191 11.7705 64.2401 12.0034 64.7231 12.4691C65.2233 12.9176 65.4734 13.4869 65.4734 14.1769C65.4734 14.8496 65.2233 15.4189 64.7231 15.8846C64.2401 16.3331 63.6191 16.5574 62.8601 16.5574ZM65.0594 18.0581V32.4964H60.6348V18.0581H65.0594Z" fill="white"/>
<path d="M73.4927 17.8511C74.5104 17.8511 75.3988 18.0581 76.1578 18.4721C76.934 18.8861 77.5292 19.4295 77.9432 20.1023V18.0581H82.3678V32.4705C82.3678 33.7988 82.1004 34.9976 81.5657 36.0671C81.0482 37.1539 80.246 38.0164 79.1593 38.6546C78.0898 39.2929 76.7529 39.612 75.1487 39.612C73.0097 39.612 71.276 39.1031 69.9478 38.0854C68.6195 37.0849 67.8605 35.7221 67.6708 33.9971H72.0437C72.1817 34.5491 72.5094 34.9804 73.0269 35.2909C73.5444 35.6186 74.1827 35.7825 74.9417 35.7825C75.8559 35.7825 76.5804 35.5151 77.1152 34.9804C77.6672 34.4629 77.9432 33.6263 77.9432 32.4705V30.4264C77.5119 31.0991 76.9168 31.6511 76.1578 32.0824C75.3988 32.4964 74.5104 32.7034 73.4927 32.7034C72.3024 32.7034 71.2243 32.4015 70.2583 31.7978C69.2923 31.1768 68.5247 30.3056 67.9554 29.1844C67.4034 28.0459 67.1274 26.7349 67.1274 25.2514C67.1274 23.7679 67.4034 22.4655 67.9554 21.3443C68.5247 20.223 69.2923 19.3605 70.2583 18.7568C71.2243 18.153 72.3024 17.8511 73.4927 17.8511ZM77.9432 25.2773C77.9432 24.1733 77.6327 23.3021 77.0117 22.6639C76.4079 22.0256 75.6662 21.7065 74.7864 21.7065C73.9067 21.7065 73.1563 22.0256 72.5353 22.6639C71.9315 23.2849 71.6297 24.1474 71.6297 25.2514C71.6297 26.3554 71.9315 27.2351 72.5353 27.8906C73.1563 28.5289 73.9067 28.848 74.7864 28.848C75.6662 28.848 76.4079 28.5289 77.0117 27.8906C77.6327 27.2524 77.9432 26.3813 77.9432 25.2773Z" fill="white"/>
<path d="M94.1852 17.9029C95.8412 17.9029 97.1694 18.4549 98.1699 19.5589C99.1704 20.6456 99.6707 22.1464 99.6707 24.0611V32.4964H95.2719V24.6563C95.2719 23.6903 95.0218 22.9399 94.5215 22.4051C94.0213 21.8704 93.3486 21.603 92.5033 21.603C91.6581 21.603 90.9853 21.8704 90.4851 22.4051C89.9848 22.9399 89.7347 23.6903 89.7347 24.6563V32.4964H85.3101V13.3489H89.7347V19.9988C90.1832 19.3605 90.7956 18.8516 91.5718 18.4721C92.3481 18.0926 93.2192 17.9029 94.1852 17.9029Z" fill="white"/>
<path d="M110.534 28.7445V32.4964H108.283C106.678 32.4964 105.428 32.1083 104.531 31.332C103.634 30.5385 103.185 29.2534 103.185 27.4766V21.7324H101.426V18.0581H103.185V14.5391H107.61V18.0581H110.508V21.7324H107.61V27.5284C107.61 27.9596 107.713 28.2701 107.92 28.4599C108.127 28.6496 108.472 28.7445 108.955 28.7445H110.534Z" fill="white"/>
<path d="M117.164 20.1023C117.578 19.4295 118.173 18.8861 118.95 18.4721C119.726 18.0581 120.614 17.8511 121.615 17.8511C122.805 17.8511 123.883 18.153 124.849 18.7568C125.815 19.3605 126.574 20.223 127.126 21.3443C127.695 22.4655 127.98 23.7679 127.98 25.2514C127.98 26.7349 127.695 28.0459 127.126 29.1844C126.574 30.3056 125.815 31.1768 124.849 31.7978C123.883 32.4015 122.805 32.7034 121.615 32.7034C120.597 32.7034 119.709 32.505 118.95 32.1083C118.191 31.6943 117.595 31.1509 117.164 30.4781V32.4964H112.74V13.3489H117.164V20.1023ZM123.478 25.2514C123.478 24.1474 123.167 23.2849 122.546 22.6639C121.942 22.0256 121.192 21.7065 120.295 21.7065C119.415 21.7065 118.665 22.0256 118.044 22.6639C117.44 23.3021 117.138 24.1733 117.138 25.2773C117.138 26.3813 117.44 27.2524 118.044 27.8906C118.665 28.5289 119.415 28.848 120.295 28.848C121.175 28.848 121.925 28.5289 122.546 27.8906C123.167 27.2351 123.478 26.3554 123.478 25.2514Z" fill="white"/>
<path d="M136.615 32.7034C135.2 32.7034 133.924 32.4015 132.785 31.7978C131.664 31.194 130.776 30.3315 130.12 29.2103C129.482 28.089 129.163 26.778 129.163 25.2773C129.163 23.7938 129.49 22.4914 130.146 21.3701C130.801 20.2316 131.698 19.3605 132.837 18.7568C133.975 18.153 135.252 17.8511 136.666 17.8511C138.081 17.8511 139.357 18.153 140.496 18.7568C141.634 19.3605 142.531 20.2316 143.187 21.3701C143.842 22.4914 144.17 23.7938 144.17 25.2773C144.17 26.7608 143.834 28.0718 143.161 29.2103C142.506 30.3315 141.6 31.194 140.444 31.7978C139.306 32.4015 138.029 32.7034 136.615 32.7034ZM136.615 28.8739C137.46 28.8739 138.176 28.5634 138.762 27.9424C139.366 27.3214 139.668 26.433 139.668 25.2773C139.668 24.1215 139.375 23.2331 138.788 22.6121C138.219 21.9911 137.512 21.6806 136.666 21.6806C135.804 21.6806 135.088 21.9911 134.519 22.6121C133.95 23.2159 133.665 24.1043 133.665 25.2773C133.665 26.433 133.941 27.3214 134.493 27.9424C135.062 28.5634 135.769 28.8739 136.615 28.8739Z" fill="white"/>
<path d="M154.798 32.4964L152.029 28.4858L149.7 32.4964H144.913L149.674 25.122L144.784 18.0581H149.752L152.521 22.0429L154.849 18.0581H159.636L154.798 25.329L159.766 32.4964H154.798Z" fill="white"/>
</svg>
