<svg width="176" height="46" viewBox="0 0 176 46" fill="none" xmlns="http://www.w3.org/2000/svg">
<g clip-path="url(#clip0_0_10481)">
<path d="M27.078 3.95006L23.0331 2.86621L19.6244 15.5878L16.5469 4.10266L12.5019 5.18651L15.8269 17.5953L7.54514 9.31358L4.58402 12.2747L13.6681 21.3588L2.35533 18.3276L1.27148 22.3725L13.6321 25.6845C13.4906 25.0741 13.4157 24.4381 13.4157 23.7847C13.4157 19.1591 17.1655 15.4093 21.791 15.4093C26.4166 15.4093 30.1664 19.1591 30.1664 23.7847C30.1664 24.4339 30.0924 25.066 29.9527 25.6728L41.1862 28.6828L42.2699 24.6379L29.8602 21.3127L41.1737 18.2812L40.0898 14.2363L27.6806 17.5613L35.9623 9.27957L33.0012 6.31846L24.0431 15.2765L27.078 3.95006Z" fill="white"/>
<path d="M29.9408 25.7199C29.594 27.1861 28.8619 28.5032 27.8573 29.5585L35.9954 37.6968L38.9566 34.7356L29.9408 25.7199Z" fill="white"/>
<path d="M27.7751 29.6436C26.7584 30.682 25.4735 31.457 24.0327 31.8563L26.994 42.9081L31.0389 41.8242L27.7751 29.6436Z" fill="white"/>
<path d="M23.8816 31.8967C23.2131 32.0686 22.5124 32.1599 21.7903 32.1599C21.0167 32.1599 20.2676 32.055 19.5564 31.8587L16.5924 42.9206L20.6373 44.0043L23.8816 31.8967Z" fill="white"/>
<path d="M19.4134 31.8179C17.9945 31.3987 16.7325 30.6139 15.7366 29.5725L7.57837 37.7307L10.5395 40.6918L19.4134 31.8179Z" fill="white"/>
<path d="M15.6693 29.5004C14.6905 28.4524 13.9774 27.1528 13.638 25.7093L2.36786 28.7291L3.4517 32.774L15.6693 29.5004Z" fill="white"/>
</g>
<path d="M66.6101 12.3713V26.9476L57.2663 12.3713H53.5288V32.4963H57.2663V18.0351L66.6101 32.4963H70.3476V12.3713H66.6101Z" fill="white"/>
<path d="M72.0317 16.1376H75.8842V12.3713H72.0317V16.1376ZM72.0892 32.4963V18.1213H75.8267V32.4963H72.0892Z" fill="white"/>
<path d="M91.9076 25.3088C91.9076 20.3351 88.3713 17.9776 84.6338 17.9488C80.8676 17.9201 77.3888 20.3351 77.3888 25.3088C77.3888 30.2826 80.8676 32.6976 84.6338 32.6688C88.0551 32.6401 90.4126 31.0588 91.5051 28.4426L88.6013 27.2351C87.7101 29.0176 86.3013 29.6501 84.6338 29.6788C83.1963 29.7076 81.5576 29.0176 81.2126 26.4588H91.8213C91.8788 26.0851 91.9076 25.7113 91.9076 25.3088ZM84.6338 20.9101C86.0713 20.9388 87.5376 21.7151 87.9976 23.7851H81.2701C81.7588 21.6863 83.2251 20.8813 84.6338 20.9101Z" fill="white"/>
<path d="M100.545 20.7951V17.9488H98.1877V14.0963L94.4502 15.2463V17.9488H92.0927V20.7951H94.4502V28.2413C94.4502 31.0588 94.6802 32.4963 99.0502 32.4963H100.056V29.2188H99.0502C98.3602 29.2188 98.1877 29.1038 98.1877 28.2413V20.7951H100.545Z" fill="white"/>
<path d="M106.099 29.3626L114.034 21.2551V18.1213H102.131V21.2551H109.836L101.901 29.3626V32.4963H114.12V29.3626H106.099Z" fill="white"/>
<path d="M115.46 28.4426L119.226 27.8676C119.485 29.3051 121.181 29.8513 122.216 29.8513C123.28 29.8513 125.12 29.6213 125.12 27.8963C125.12 24.5326 115.891 28.7301 115.891 22.2901C115.891 18.1501 120.693 17.9201 122.216 17.9201C123.654 17.9201 127.823 18.1501 128.685 21.4851L125.12 22.2326C124.804 20.7088 123.194 20.4213 122.331 20.4213C121.469 20.4213 119.629 20.6226 119.629 22.2901C119.629 25.6251 128.858 21.3701 128.858 27.8963C128.858 32.2951 123.798 32.6688 122.216 32.6688C120.779 32.6688 116.208 32.2951 115.46 28.4426Z" fill="white"/>
<path d="M133.713 25.3088C133.713 28.8163 135.582 29.8801 137.537 29.8513C139.291 29.8226 140.498 29.1038 141.217 27.0913L144.293 28.5863C143.172 31.5188 140.441 32.6401 137.537 32.6688C133.771 32.6976 129.976 30.2826 129.976 25.3088C129.976 20.3351 133.771 17.9201 137.537 17.9488C140.441 17.9776 143.172 19.0988 144.293 22.0313L141.217 23.5263C140.498 21.5138 139.291 20.7951 137.537 20.7663C135.582 20.7376 133.713 21.8013 133.713 25.3088Z" fill="white"/>
<path d="M154.327 17.8913C152.4 17.8913 150.647 18.8976 149.525 21.0538V12.3713H145.788V32.4963H149.525V27.4076C149.525 20.8238 152.257 20.2776 153.263 20.2776C154.873 20.2776 155.103 21.9451 155.103 24.3888V32.4963H158.84V24.3888C158.84 21.3413 158.352 17.8913 154.327 17.8913Z" fill="white"/>
<path d="M174.62 25.3088C174.62 20.3351 171.084 17.9776 167.346 17.9488C163.58 17.9201 160.101 20.3351 160.101 25.3088C160.101 30.2826 163.58 32.6976 167.346 32.6688C170.767 32.6401 173.125 31.0588 174.217 28.4426L171.314 27.2351C170.422 29.0176 169.014 29.6501 167.346 29.6788C165.909 29.7076 164.27 29.0176 163.925 26.4588H174.534C174.591 26.0851 174.62 25.7113 174.62 25.3088ZM167.346 20.9101C168.784 20.9388 170.25 21.7151 170.71 23.7851H163.982C164.471 21.6863 165.937 20.8813 167.346 20.9101Z" fill="white"/>
<defs>
<clipPath id="clip0_0_10481">
<rect width="42.1667" height="42.1667" fill="white" transform="translate(0.944824 1.91675)"/>
</clipPath>
</defs>
</svg>
