<svg width="350" height="300" viewBox="0 0 350 300" fill="none" xmlns="http://www.w3.org/2000/svg">
<g clip-path="url(#clip0_34_17791)">
<rect y="0.437744" width="350" height="202.125" rx="20" fill="url(#paint0_linear_34_17791)"/>
<path d="M214.375 172.796C217.875 166.234 220.5 155.296 224.438 167.984C228.375 180.671 231 177.609 234.062 167.984C237.125 158.359 241.938 136.921 244.562 129.046C247.188 121.171 253.312 118.984 261.188 134.296C269.062 149.609 271.241 150.354 274.746 142.982C278.25 135.609 280.875 130.667 287 142.982C293.125 155.297 293.87 161.664 301.373 153.23C308.875 144.797 308 147.422 312.375 149.609C316.75 151.797 321.879 151.108 324.564 143.796C327.25 136.484 332.435 137.164 340.124 137.48C346.275 137.733 349.271 137.586 350 137.48" stroke="url(#paint1_linear_34_17791)" stroke-width="1.75"/>
<path d="M224.373 168.681C220.46 156.066 217.852 166.941 214.375 173.467V200.89H313.916C349.125 200.89 348.843 197.063 349.562 170.625C350.138 149.476 349.125 140.174 349.125 138.35C348.401 138.455 345.424 138.602 339.312 138.35C331.673 138.036 326.522 137.36 323.853 144.63C321.185 151.901 316.09 152.586 311.743 150.41C307.396 148.235 308.265 145.625 300.811 154.011C293.357 162.397 292.617 156.066 286.531 143.82C280.446 131.575 277.838 136.49 274.356 143.82C270.874 151.151 268.71 150.41 260.885 135.184C253.061 119.958 246.976 122.134 244.368 129.964C241.76 137.795 236.978 159.111 233.935 168.681C230.893 178.252 228.285 181.297 224.373 168.681Z" fill="url(#paint2_linear_34_17791)"/>
<rect x="21.875" y="24.7876" width="49.8886" height="47.5501" rx="17.9287" fill="#9FC9F9"/>
<path d="M54.6144 52.85L48.8619 47.1326C48.0842 46.3596 47.6953 45.9731 47.213 45.9732C46.7307 45.9732 46.3419 46.3598 45.5644 47.1329L45.3778 47.3185C44.5996 48.0923 44.2105 48.4792 43.7279 48.479C43.2453 48.4788 42.8564 48.0916 42.0788 47.3173L39.0242 44.2754M54.6144 52.85V48.527M54.6144 52.85H50.263" stroke="#323B47" stroke-width="1.16927" stroke-linecap="round" stroke-linejoin="round"/>
<rect x="228.812" y="24.5002" width="101.5" height="48.125" rx="17.9375" fill="#232A31"/>
<rect x="228.812" y="24.5002" width="101.5" height="48.125" rx="17.9375" stroke="#494F55" stroke-width="0.875"/>
<path d="M262.345 46.3127H260.804C260.713 45.8694 260.553 45.48 260.325 45.1444C260.102 44.8088 259.828 44.5271 259.505 44.2992C259.186 44.0672 258.832 43.8932 258.442 43.7772C258.053 43.6612 257.647 43.6032 257.224 43.6032C256.454 43.6032 255.756 43.7979 255.13 44.1874C254.509 44.5768 254.014 45.1506 253.645 45.9088C253.28 46.667 253.098 47.5971 253.098 48.6991C253.098 49.8011 253.28 50.7312 253.645 51.4894C254.014 52.2476 254.509 52.8214 255.13 53.2108C255.756 53.6003 256.454 53.795 257.224 53.795C257.647 53.795 258.053 53.737 258.442 53.621C258.832 53.505 259.186 53.333 259.505 53.1052C259.828 52.8732 260.102 52.5894 260.325 52.2538C260.553 51.9141 260.713 51.5246 260.804 51.0855H262.345C262.229 51.7359 262.018 52.318 261.711 52.8317C261.405 53.3455 261.024 53.7826 260.568 54.143C260.112 54.4993 259.6 54.7707 259.033 54.9571C258.469 55.1435 257.867 55.2367 257.224 55.2367C256.139 55.2367 255.174 54.9716 254.328 54.4413C253.483 53.911 252.818 53.157 252.334 52.1792C251.849 51.2015 251.607 50.0414 251.607 48.6991C251.607 47.3568 251.849 46.1967 252.334 45.219C252.818 44.2412 253.483 43.4872 254.328 42.9569C255.174 42.4266 256.139 42.1615 257.224 42.1615C257.867 42.1615 258.469 42.2547 259.033 42.4411C259.6 42.6276 260.112 42.901 260.568 43.2614C261.024 43.6177 261.405 44.0527 261.711 44.5665C262.018 45.0761 262.229 45.6582 262.345 46.3127ZM266.103 49.3206V55.0627H264.637V42.3355H266.103V47.0088H266.228C266.451 46.5158 266.787 46.1242 267.234 45.8342C267.686 45.5401 268.287 45.393 269.037 45.393C269.687 45.393 270.257 45.5235 270.746 45.7845C271.234 46.0414 271.614 46.437 271.883 46.9715C272.156 47.5018 272.293 48.1771 272.293 48.9974V55.0627H270.826V49.0968C270.826 48.3387 270.63 47.7524 270.236 47.3381C269.847 46.9197 269.306 46.7105 268.614 46.7105C268.133 46.7105 267.703 46.812 267.321 47.015C266.944 47.218 266.646 47.5142 266.427 47.9037C266.211 48.2931 266.103 48.7654 266.103 49.3206ZM278.854 55.2616C277.992 55.2616 277.236 55.0565 276.586 54.6464C275.939 54.2362 275.434 53.6624 275.069 52.925C274.709 52.1875 274.529 51.3258 274.529 50.3397C274.529 49.3454 274.709 48.4775 275.069 47.7359C275.434 46.9943 275.939 46.4184 276.586 46.0082C277.236 45.5981 277.992 45.393 278.854 45.393C279.716 45.393 280.47 45.5981 281.116 46.0082C281.766 46.4184 282.272 46.9943 282.632 47.7359C282.997 48.4775 283.179 49.3454 283.179 50.3397C283.179 51.3258 282.997 52.1875 282.632 52.925C282.272 53.6624 281.766 54.2362 281.116 54.6464C280.47 55.0565 279.716 55.2616 278.854 55.2616ZM278.854 53.9441C279.509 53.9441 280.047 53.7763 280.47 53.4408C280.892 53.1052 281.205 52.664 281.408 52.1171C281.611 51.5702 281.713 50.9778 281.713 50.3397C281.713 49.7017 281.611 49.1072 281.408 48.5562C281.205 48.0052 280.892 47.5598 280.47 47.2201C280.047 46.8803 279.509 46.7105 278.854 46.7105C278.199 46.7105 277.661 46.8803 277.238 47.2201C276.816 47.5598 276.503 48.0052 276.3 48.5562C276.097 49.1072 275.995 49.7017 275.995 50.3397C275.995 50.9778 276.097 51.5702 276.3 52.1171C276.503 52.664 276.816 53.1052 277.238 53.4408C277.661 53.7763 278.199 53.9441 278.854 53.9441ZM285.418 55.0627V45.5173H286.885V55.0627H285.418ZM286.164 43.9264C285.878 43.9264 285.631 43.829 285.424 43.6343C285.221 43.4396 285.12 43.2055 285.12 42.9321C285.12 42.6586 285.221 42.4245 285.424 42.2298C285.631 42.0351 285.878 41.9377 286.164 41.9377C286.45 41.9377 286.694 42.0351 286.897 42.2298C287.104 42.4245 287.208 42.6586 287.208 42.9321C287.208 43.2055 287.104 43.4396 286.897 43.6343C286.694 43.829 286.45 43.9264 286.164 43.9264ZM293.449 55.2616C292.554 55.2616 291.783 55.0503 291.137 54.6277C290.491 54.2051 289.993 53.6231 289.645 52.8815C289.297 52.1399 289.123 51.2926 289.123 50.3397C289.123 49.3703 289.302 48.5147 289.658 47.7731C290.018 47.0274 290.52 46.4453 291.162 46.0269C291.808 45.6043 292.562 45.393 293.424 45.393C294.095 45.393 294.7 45.5173 295.238 45.7659C295.777 46.0144 296.218 46.3625 296.562 46.8099C296.906 47.2573 297.119 47.7794 297.202 48.376H295.736C295.624 47.9409 295.375 47.5556 294.99 47.2201C294.609 46.8803 294.095 46.7105 293.449 46.7105C292.877 46.7105 292.376 46.8596 291.945 47.1579C291.518 47.4521 291.185 47.8684 290.944 48.407C290.708 48.9415 290.59 49.5691 290.59 50.29C290.59 51.0275 290.706 51.6696 290.938 52.2165C291.174 52.7634 291.506 53.188 291.932 53.4905C292.363 53.7929 292.869 53.9441 293.449 53.9441C293.83 53.9441 294.176 53.8778 294.487 53.7453C294.797 53.6127 295.06 53.4221 295.276 53.1735C295.491 52.925 295.644 52.6267 295.736 52.2787H297.202C297.119 52.8421 296.914 53.3496 296.587 53.8012C296.264 54.2486 295.835 54.6049 295.301 54.8701C294.77 55.1311 294.153 55.2616 293.449 55.2616ZM303.348 55.2616C302.429 55.2616 301.635 55.0586 300.968 54.6526C300.305 54.2424 299.794 53.6707 299.433 52.9374C299.077 52.1999 298.899 51.3423 298.899 50.3646C298.899 49.3868 299.077 48.5251 299.433 47.7794C299.794 47.0295 300.295 46.4453 300.937 46.0269C301.583 45.6043 302.337 45.393 303.199 45.393C303.696 45.393 304.187 45.4759 304.672 45.6416C305.157 45.8073 305.598 46.0766 305.996 46.4495C306.393 46.8182 306.71 47.3071 306.947 47.9161C307.183 48.5251 307.301 49.275 307.301 50.1657V50.7872H299.943V49.5194H305.809C305.809 48.9808 305.702 48.5002 305.486 48.0777C305.275 47.6551 304.972 47.3216 304.579 47.0771C304.189 46.8327 303.73 46.7105 303.199 46.7105C302.615 46.7105 302.11 46.8555 301.683 47.1455C301.26 47.4314 300.935 47.8042 300.707 48.2641C300.479 48.724 300.365 49.217 300.365 49.7431V50.5883C300.365 51.3092 300.49 51.9203 300.738 52.4216C300.991 52.9187 301.341 53.2978 301.789 53.5588C302.236 53.8157 302.756 53.9441 303.348 53.9441C303.734 53.9441 304.082 53.8903 304.392 53.7826C304.707 53.6707 304.979 53.505 305.206 53.2854C305.434 53.0617 305.61 52.7841 305.735 52.4527L307.152 52.8504C307.002 53.331 306.752 53.7536 306.4 54.1181C306.048 54.4786 305.613 54.7603 305.095 54.9633C304.577 55.1622 303.995 55.2616 303.348 55.2616Z" fill="#FBFDFF"/>
<path d="M23.108 123.813V113.631H26.6676C27.3769 113.631 27.9619 113.754 28.4226 113.999C28.8833 114.241 29.2263 114.567 29.4517 114.978C29.6771 115.386 29.7898 115.838 29.7898 116.335C29.7898 116.773 29.7119 117.134 29.5561 117.419C29.4036 117.704 29.2015 117.93 28.9496 118.095C28.701 118.261 28.4309 118.384 28.1392 118.463V118.563C28.4508 118.583 28.764 118.692 29.0788 118.891C29.3937 119.09 29.6572 119.375 29.8693 119.746C30.0814 120.117 30.1875 120.571 30.1875 121.108C30.1875 121.619 30.0715 122.078 29.8395 122.485C29.6075 122.893 29.2412 123.216 28.7408 123.455C28.2403 123.693 27.589 123.813 26.7869 123.813H23.108ZM24.3409 122.719H26.7869C27.5923 122.719 28.1641 122.563 28.5021 122.252C28.8435 121.937 29.0142 121.556 29.0142 121.108C29.0142 120.764 28.9264 120.445 28.7507 120.154C28.575 119.859 28.3248 119.623 28 119.448C27.6752 119.269 27.2907 119.179 26.8466 119.179H24.3409V122.719ZM24.3409 118.105H26.6278C26.9991 118.105 27.3338 118.032 27.6321 117.887C27.9337 117.741 28.1723 117.535 28.348 117.27C28.527 117.005 28.6165 116.693 28.6165 116.335C28.6165 115.888 28.4607 115.509 28.1491 115.197C27.8376 114.882 27.3438 114.725 26.6676 114.725H24.3409V118.105ZM34.696 123.972C33.9602 123.972 33.3255 123.809 32.7919 123.485C32.2616 123.156 31.8523 122.699 31.5639 122.112C31.2789 121.522 31.1364 120.836 31.1364 120.054C31.1364 119.272 31.2789 118.583 31.5639 117.986C31.8523 117.386 32.2533 116.919 32.7671 116.584C33.2841 116.246 33.8873 116.077 34.5767 116.077C34.9744 116.077 35.3672 116.143 35.755 116.276C36.1428 116.408 36.4958 116.624 36.8139 116.922C37.1321 117.217 37.3857 117.608 37.5746 118.095C37.7635 118.583 37.858 119.183 37.858 119.895V120.392H31.9716V119.378H36.6648C36.6648 118.947 36.5786 118.563 36.4063 118.225C36.2372 117.887 35.9953 117.62 35.6804 117.424C35.3689 117.229 35.001 117.131 34.5767 117.131C34.1094 117.131 33.705 117.247 33.3637 117.479C33.0256 117.708 32.7654 118.006 32.5831 118.374C32.4008 118.742 32.3097 119.136 32.3097 119.557V120.233C32.3097 120.81 32.4091 121.299 32.608 121.7C32.8101 122.098 33.0902 122.401 33.4482 122.61C33.8061 122.815 34.2221 122.918 34.696 122.918C35.0043 122.918 35.2827 122.875 35.5313 122.789C35.7832 122.699 36.0003 122.567 36.1825 122.391C36.3648 122.212 36.5057 121.99 36.6051 121.725L37.7387 122.043C37.6193 122.427 37.4188 122.765 37.1371 123.057C36.8554 123.345 36.5074 123.571 36.0931 123.733C35.6788 123.892 35.2131 123.972 34.696 123.972ZM44.4919 117.887L43.4379 118.185C43.3716 118.009 43.2738 117.839 43.1446 117.673C43.0186 117.504 42.8463 117.365 42.6275 117.255C42.4088 117.146 42.1287 117.091 41.7873 117.091C41.32 117.091 40.9305 117.199 40.619 117.414C40.3108 117.626 40.1566 117.897 40.1566 118.225C40.1566 118.516 40.2627 118.747 40.4748 118.916C40.6869 119.085 41.0184 119.226 41.4691 119.338L42.6027 119.617C43.2854 119.782 43.7942 120.036 44.1289 120.377C44.4637 120.715 44.6311 121.151 44.6311 121.685C44.6311 122.122 44.5051 122.514 44.2532 122.858C44.0046 123.203 43.6566 123.475 43.2092 123.674C42.7617 123.872 42.2414 123.972 41.6481 123.972C40.8692 123.972 40.2246 123.803 39.7142 123.465C39.2037 123.127 38.8806 122.633 38.7447 121.983L39.8583 121.705C39.9644 122.116 40.1649 122.424 40.4599 122.63C40.7582 122.835 41.1476 122.938 41.6282 122.938C42.1751 122.938 42.6093 122.822 42.9308 122.59C43.2556 122.354 43.418 122.073 43.418 121.745C43.418 121.479 43.3252 121.257 43.1396 121.078C42.954 120.896 42.6689 120.76 42.2845 120.671L41.0117 120.372C40.3124 120.207 39.7987 119.95 39.4706 119.602C39.1457 119.25 38.9833 118.811 38.9833 118.284C38.9833 117.853 39.1043 117.472 39.3463 117.141C39.5915 116.809 39.9246 116.549 40.3456 116.36C40.7698 116.171 41.2504 116.077 41.7873 116.077C42.543 116.077 43.1363 116.243 43.5671 116.574C44.0013 116.906 44.3096 117.343 44.4919 117.887ZM49.1582 116.176V117.171H45.2009V116.176H49.1582ZM46.3543 114.347H47.5276V121.625C47.5276 121.957 47.5756 122.205 47.6717 122.371C47.7712 122.533 47.8971 122.643 48.0496 122.699C48.2054 122.752 48.3694 122.779 48.5418 122.779C48.671 122.779 48.7771 122.772 48.86 122.759C48.9428 122.742 49.0091 122.729 49.0588 122.719L49.2975 123.773C49.2179 123.803 49.1069 123.833 48.9644 123.862C48.8218 123.896 48.6412 123.912 48.4225 123.912C48.091 123.912 47.7662 123.841 47.448 123.698C47.1332 123.556 46.8713 123.339 46.6625 123.047C46.457 122.755 46.3543 122.388 46.3543 121.943V114.347ZM53.7407 126.676V116.176H54.8742V117.389H55.0134C55.0996 117.257 55.2189 117.088 55.3713 116.882C55.5271 116.674 55.7492 116.488 56.0375 116.326C56.3292 116.16 56.7236 116.077 57.2208 116.077C57.8638 116.077 58.4305 116.238 58.9211 116.559C59.4116 116.881 59.7944 117.336 60.0695 117.926C60.3446 118.516 60.4821 119.212 60.4821 120.014C60.4821 120.823 60.3446 121.524 60.0695 122.117C59.7944 122.707 59.4132 123.165 58.926 123.49C58.4388 123.811 57.877 123.972 57.2407 123.972C56.7501 123.972 56.3574 123.891 56.0624 123.728C55.7674 123.563 55.5404 123.375 55.3813 123.166C55.2222 122.954 55.0996 122.779 55.0134 122.639H54.914V126.676H53.7407ZM54.8941 119.995C54.8941 120.571 54.9786 121.08 55.1476 121.521C55.3167 121.958 55.5636 122.301 55.8884 122.55C56.2132 122.795 56.6109 122.918 57.0816 122.918C57.5721 122.918 57.9814 122.789 58.3096 122.53C58.641 122.268 58.8896 121.917 59.0553 121.476C59.2243 121.032 59.3088 120.538 59.3088 119.995C59.3088 119.458 59.226 118.974 59.0603 118.543C58.8979 118.109 58.6509 117.766 58.3195 117.514C57.9914 117.259 57.5787 117.131 57.0816 117.131C56.6043 117.131 56.2033 117.252 55.8784 117.494C55.5536 117.732 55.3084 118.067 55.1426 118.498C54.9769 118.926 54.8941 119.424 54.8941 119.995ZM61.7119 123.813V116.176H62.8454V117.33H62.925C63.0642 116.952 63.3161 116.645 63.6807 116.41C64.0452 116.175 64.4562 116.057 64.9136 116.057C64.9998 116.057 65.1075 116.059 65.2368 116.062C65.366 116.065 65.4638 116.07 65.5301 116.077V117.27C65.4903 117.26 65.3992 117.245 65.2567 117.225C65.1174 117.202 64.97 117.191 64.8142 117.191C64.443 117.191 64.1115 117.268 63.8199 117.424C63.5315 117.577 63.3028 117.789 63.1338 118.061C62.9681 118.329 62.8852 118.636 62.8852 118.98V123.813H61.7119ZM66.3609 123.813V116.176H67.5342V123.813H66.3609ZM66.9575 114.904C66.7288 114.904 66.5316 114.826 66.3659 114.67C66.2035 114.514 66.1223 114.327 66.1223 114.108C66.1223 113.889 66.2035 113.702 66.3659 113.546C66.5316 113.391 66.7288 113.313 66.9575 113.313C67.1862 113.313 67.3817 113.391 67.5441 113.546C67.7099 113.702 67.7927 113.889 67.7927 114.108C67.7927 114.327 67.7099 114.514 67.5441 114.67C67.3817 114.826 67.1862 114.904 66.9575 114.904ZM72.2254 123.972C71.5095 123.972 70.893 123.803 70.376 123.465C69.859 123.127 69.4612 122.661 69.1828 122.068C68.9044 121.474 68.7652 120.797 68.7652 120.034C68.7652 119.259 68.9077 118.574 69.1928 117.981C69.4811 117.384 69.8822 116.919 70.3959 116.584C70.9129 116.246 71.5162 116.077 72.2055 116.077C72.7425 116.077 73.2264 116.176 73.6573 116.375C74.0881 116.574 74.4411 116.853 74.7162 117.21C74.9913 117.568 75.162 117.986 75.2283 118.463H74.055C73.9655 118.115 73.7666 117.807 73.4584 117.539C73.1535 117.267 72.7425 117.131 72.2254 117.131C71.768 117.131 71.367 117.25 71.0223 117.489C70.6809 117.724 70.4141 118.057 70.2219 118.488C70.033 118.916 69.9385 119.418 69.9385 119.995C69.9385 120.585 70.0313 121.098 70.2169 121.536C70.4058 121.973 70.671 122.313 71.0124 122.555C71.3571 122.797 71.7614 122.918 72.2254 122.918C72.5304 122.918 72.8071 122.865 73.0557 122.759C73.3043 122.653 73.5147 122.5 73.6871 122.301C73.8594 122.103 73.9821 121.864 74.055 121.585H75.2283C75.162 122.036 74.9979 122.442 74.7361 122.804C74.4776 123.161 74.1345 123.447 73.707 123.659C73.2827 123.867 72.7889 123.972 72.2254 123.972ZM76.3835 123.813V116.176H77.5568V123.813H76.3835ZM76.9801 114.904C76.7514 114.904 76.5542 114.826 76.3884 114.67C76.226 114.514 76.1448 114.327 76.1448 114.108C76.1448 113.889 76.226 113.702 76.3884 113.546C76.5542 113.391 76.7514 113.313 76.9801 113.313C77.2088 113.313 77.4043 113.391 77.5667 113.546C77.7324 113.702 77.8153 113.889 77.8153 114.108C77.8153 114.327 77.7324 114.514 77.5667 114.67C77.4043 114.826 77.2088 114.904 76.9801 114.904ZM80.319 119.219V123.813H79.1457V116.176H80.2793V117.37H80.3787C80.5577 116.982 80.8295 116.67 81.194 116.435C81.5586 116.196 82.0293 116.077 82.606 116.077C83.123 116.077 83.5754 116.183 83.9632 116.395C84.351 116.604 84.6526 116.922 84.868 117.35C85.0835 117.774 85.1912 118.311 85.1912 118.96V123.813H84.0179V119.04C84.0179 118.44 83.8621 117.973 83.5506 117.638C83.239 117.3 82.8115 117.131 82.2679 117.131C81.8934 117.131 81.5586 117.212 81.2636 117.375C80.972 117.537 80.7416 117.774 80.5726 118.085C80.4036 118.397 80.319 118.775 80.319 119.219ZM89.8576 126.835C89.2908 126.835 88.8036 126.763 88.3959 126.617C87.9883 126.474 87.6485 126.285 87.3768 126.05C87.1083 125.818 86.8945 125.569 86.7354 125.304L87.6701 124.648C87.7761 124.787 87.9104 124.946 88.0728 125.125C88.2352 125.308 88.4572 125.465 88.739 125.598C89.024 125.733 89.3969 125.801 89.8576 125.801C90.4741 125.801 90.9828 125.652 91.3839 125.354C91.7849 125.056 91.9854 124.588 91.9854 123.952V122.401H91.886C91.7998 122.54 91.6772 122.712 91.5181 122.918C91.3623 123.12 91.1369 123.301 90.842 123.46C90.5503 123.616 90.1559 123.693 89.6587 123.693C89.0422 123.693 88.4887 123.548 87.9982 123.256C87.511 122.964 87.1249 122.54 86.8398 121.983C86.5581 121.426 86.4172 120.75 86.4172 119.955C86.4172 119.173 86.5548 118.491 86.8299 117.911C87.105 117.328 87.4878 116.877 87.9783 116.559C88.4688 116.238 89.0356 116.077 89.6786 116.077C90.1758 116.077 90.5702 116.16 90.8618 116.326C91.1568 116.488 91.3822 116.674 91.538 116.882C91.6971 117.088 91.8197 117.257 91.9059 117.389H92.0252V116.176H93.1587V124.031C93.1587 124.688 93.0096 125.221 92.7113 125.632C92.4163 126.047 92.0186 126.35 91.5181 126.542C91.0209 126.738 90.4674 126.835 89.8576 126.835ZM89.8178 122.639C90.2884 122.639 90.6862 122.532 91.011 122.316C91.3358 122.101 91.5827 121.791 91.7518 121.387C91.9208 120.982 92.0053 120.498 92.0053 119.935C92.0053 119.385 91.9224 118.899 91.7567 118.478C91.591 118.057 91.3457 117.728 91.0209 117.489C90.6961 117.25 90.2951 117.131 89.8178 117.131C89.3206 117.131 88.9063 117.257 88.5749 117.509C88.2468 117.761 87.9999 118.099 87.8341 118.523C87.6717 118.947 87.5905 119.418 87.5905 119.935C87.5905 120.465 87.6734 120.934 87.8391 121.342C88.0081 121.746 88.2567 122.064 88.5849 122.296C88.9163 122.525 89.3273 122.639 89.8178 122.639ZM98.1239 123.813V116.176H99.2972V123.813H98.1239ZM98.7205 114.904C98.4918 114.904 98.2946 114.826 98.1289 114.67C97.9665 114.514 97.8853 114.327 97.8853 114.108C97.8853 113.889 97.9665 113.702 98.1289 113.546C98.2946 113.391 98.4918 113.313 98.7205 113.313C98.9492 113.313 99.1448 113.391 99.3072 113.546C99.4729 113.702 99.5558 113.889 99.5558 114.108C99.5558 114.327 99.4729 114.514 99.3072 114.67C99.1448 114.826 98.9492 114.904 98.7205 114.904ZM102.06 119.219V123.813H100.886V116.176H102.02V117.37H102.119C102.298 116.982 102.57 116.67 102.935 116.435C103.299 116.196 103.77 116.077 104.346 116.077C104.863 116.077 105.316 116.183 105.704 116.395C106.091 116.604 106.393 116.922 106.609 117.35C106.824 117.774 106.932 118.311 106.932 118.96V123.813H105.758V119.04C105.758 118.44 105.603 117.973 105.291 117.638C104.979 117.3 104.552 117.131 104.008 117.131C103.634 117.131 103.299 117.212 103.004 117.375C102.712 117.537 102.482 117.774 102.313 118.085C102.144 118.397 102.06 118.775 102.06 119.219ZM115.214 116.176V117.171H111.257V116.176H115.214ZM112.41 114.347H113.584V121.625C113.584 121.957 113.632 122.205 113.728 122.371C113.827 122.533 113.953 122.643 114.106 122.699C114.261 122.752 114.425 122.779 114.598 122.779C114.727 122.779 114.833 122.772 114.916 122.759C114.999 122.742 115.065 122.729 115.115 122.719L115.353 123.773C115.274 123.803 115.163 123.833 115.02 123.862C114.878 123.896 114.697 123.912 114.478 123.912C114.147 123.912 113.822 123.841 113.504 123.698C113.189 123.556 112.927 123.339 112.718 123.047C112.513 122.755 112.41 122.388 112.41 121.943V114.347ZM117.756 119.219V123.813H116.583V113.631H117.756V117.37H117.856C118.035 116.975 118.303 116.662 118.661 116.43C119.023 116.195 119.503 116.077 120.103 116.077C120.623 116.077 121.079 116.181 121.47 116.39C121.861 116.596 122.165 116.912 122.38 117.34C122.599 117.764 122.708 118.304 122.708 118.96V123.813H121.535V119.04C121.535 118.433 121.377 117.964 121.063 117.633C120.751 117.298 120.318 117.131 119.765 117.131C119.381 117.131 119.036 117.212 118.731 117.375C118.429 117.537 118.191 117.774 118.015 118.085C117.843 118.397 117.756 118.775 117.756 119.219ZM127.496 123.972C126.761 123.972 126.126 123.809 125.592 123.485C125.062 123.156 124.653 122.699 124.364 122.112C124.079 121.522 123.937 120.836 123.937 120.054C123.937 119.272 124.079 118.583 124.364 117.986C124.653 117.386 125.054 116.919 125.567 116.584C126.084 116.246 126.688 116.077 127.377 116.077C127.775 116.077 128.168 116.143 128.555 116.276C128.943 116.408 129.296 116.624 129.614 116.922C129.932 117.217 130.186 117.608 130.375 118.095C130.564 118.583 130.658 119.183 130.658 119.895V120.392H124.772V119.378H129.465C129.465 118.947 129.379 118.563 129.207 118.225C129.038 117.887 128.796 117.62 128.481 117.424C128.169 117.229 127.801 117.131 127.377 117.131C126.91 117.131 126.505 117.247 126.164 117.479C125.826 117.708 125.566 118.006 125.383 118.374C125.201 118.742 125.11 119.136 125.11 119.557V120.233C125.11 120.81 125.209 121.299 125.408 121.7C125.61 122.098 125.891 122.401 126.248 122.61C126.606 122.815 127.022 122.918 127.496 122.918C127.805 122.918 128.083 122.875 128.332 122.789C128.583 122.699 128.801 122.567 128.983 122.391C129.165 122.212 129.306 121.99 129.405 121.725L130.539 122.043C130.42 122.427 130.219 122.765 129.937 123.057C129.656 123.345 129.308 123.571 128.893 123.733C128.479 123.892 128.013 123.972 127.496 123.972ZM135.261 123.813V116.176H136.434V123.813H135.261ZM135.857 114.904C135.628 114.904 135.431 114.826 135.266 114.67C135.103 114.514 135.022 114.327 135.022 114.108C135.022 113.889 135.103 113.702 135.266 113.546C135.431 113.391 135.628 113.313 135.857 113.313C136.086 113.313 136.281 113.391 136.444 113.546C136.61 113.702 136.692 113.889 136.692 114.108C136.692 114.327 136.61 114.514 136.444 114.67C136.281 114.826 136.086 114.904 135.857 114.904ZM139.196 119.219V123.813H138.023V116.176H139.156V117.37H139.256C139.435 116.982 139.707 116.67 140.071 116.435C140.436 116.196 140.906 116.077 141.483 116.077C142 116.077 142.453 116.183 142.84 116.395C143.228 116.604 143.53 116.922 143.745 117.35C143.961 117.774 144.068 118.311 144.068 118.96V123.813H142.895V119.04C142.895 118.44 142.739 117.973 142.428 117.638C142.116 117.3 141.689 117.131 141.145 117.131C140.77 117.131 140.436 117.212 140.141 117.375C139.849 117.537 139.619 117.774 139.45 118.085C139.281 118.397 139.196 118.775 139.196 119.219ZM148.536 123.972C147.899 123.972 147.338 123.811 146.85 123.49C146.363 123.165 145.982 122.707 145.707 122.117C145.432 121.524 145.294 120.823 145.294 120.014C145.294 119.212 145.432 118.516 145.707 117.926C145.982 117.336 146.365 116.881 146.855 116.559C147.346 116.238 147.913 116.077 148.556 116.077C149.053 116.077 149.446 116.16 149.734 116.326C150.026 116.488 150.248 116.674 150.4 116.882C150.556 117.088 150.677 117.257 150.763 117.389H150.863V113.631H152.036V123.813H150.902V122.639H150.763C150.677 122.779 150.554 122.954 150.395 123.166C150.236 123.375 150.009 123.563 149.714 123.728C149.419 123.891 149.026 123.972 148.536 123.972ZM148.695 122.918C149.166 122.918 149.563 122.795 149.888 122.55C150.213 122.301 150.46 121.958 150.629 121.521C150.798 121.08 150.882 120.571 150.882 119.995C150.882 119.424 150.8 118.926 150.634 118.498C150.468 118.067 150.223 117.732 149.898 117.494C149.573 117.252 149.172 117.131 148.695 117.131C148.198 117.131 147.783 117.259 147.452 117.514C147.124 117.766 146.877 118.109 146.711 118.543C146.549 118.974 146.468 119.458 146.468 119.995C146.468 120.538 146.551 121.032 146.716 121.476C146.885 121.917 147.134 122.268 147.462 122.53C147.793 122.789 148.204 122.918 148.695 122.918ZM158.6 120.691V116.176H159.773V123.813H158.6V122.52H158.521C158.342 122.908 158.063 123.238 157.685 123.509C157.307 123.778 156.83 123.912 156.254 123.912C155.776 123.912 155.352 123.808 154.981 123.599C154.61 123.387 154.318 123.069 154.106 122.644C153.894 122.217 153.788 121.678 153.788 121.029V116.176H154.961V120.949C154.961 121.506 155.117 121.95 155.428 122.281C155.743 122.613 156.144 122.779 156.631 122.779C156.923 122.779 157.22 122.704 157.521 122.555C157.826 122.406 158.081 122.177 158.287 121.869C158.496 121.561 158.6 121.168 158.6 120.691ZM166.771 117.887L165.717 118.185C165.651 118.009 165.553 117.839 165.424 117.673C165.298 117.504 165.126 117.365 164.907 117.255C164.688 117.146 164.408 117.091 164.067 117.091C163.6 117.091 163.21 117.199 162.899 117.414C162.59 117.626 162.436 117.897 162.436 118.225C162.436 118.516 162.542 118.747 162.754 118.916C162.967 119.085 163.298 119.226 163.749 119.338L164.882 119.617C165.565 119.782 166.074 120.036 166.409 120.377C166.743 120.715 166.911 121.151 166.911 121.685C166.911 122.122 166.785 122.514 166.533 122.858C166.284 123.203 165.936 123.475 165.489 123.674C165.041 123.872 164.521 123.972 163.928 123.972C163.149 123.972 162.504 123.803 161.994 123.465C161.483 123.127 161.16 122.633 161.024 121.983L162.138 121.705C162.244 122.116 162.445 122.424 162.74 122.63C163.038 122.835 163.427 122.938 163.908 122.938C164.455 122.938 164.889 122.822 165.21 122.59C165.535 122.354 165.698 122.073 165.698 121.745C165.698 121.479 165.605 121.257 165.419 121.078C165.234 120.896 164.949 120.76 164.564 120.671L163.291 120.372C162.592 120.207 162.078 119.95 161.75 119.602C161.425 119.25 161.263 118.811 161.263 118.284C161.263 117.853 161.384 117.472 161.626 117.141C161.871 116.809 162.204 116.549 162.625 116.36C163.049 116.171 163.53 116.077 164.067 116.077C164.823 116.077 165.416 116.243 165.847 116.574C166.281 116.906 166.589 117.343 166.771 117.887ZM171.438 116.176V117.171H167.48V116.176H171.438ZM168.634 114.347H169.807V121.625C169.807 121.957 169.855 122.205 169.951 122.371C170.051 122.533 170.177 122.643 170.329 122.699C170.485 122.752 170.649 122.779 170.821 122.779C170.951 122.779 171.057 122.772 171.14 122.759C171.222 122.742 171.289 122.729 171.338 122.719L171.577 123.773C171.498 123.803 171.386 123.833 171.244 123.862C171.101 123.896 170.921 123.912 170.702 123.912C170.371 123.912 170.046 123.841 169.728 123.698C169.413 123.556 169.151 123.339 168.942 123.047C168.737 122.755 168.634 122.388 168.634 121.943V114.347ZM172.643 123.813V116.176H173.776V117.33H173.856C173.995 116.952 174.247 116.645 174.612 116.41C174.976 116.175 175.387 116.057 175.844 116.057C175.931 116.057 176.038 116.059 176.168 116.062C176.297 116.065 176.395 116.07 176.461 116.077V117.27C176.421 117.26 176.33 117.245 176.188 117.225C176.048 117.202 175.901 117.191 175.745 117.191C175.374 117.191 175.042 117.268 174.751 117.424C174.462 117.577 174.234 117.789 174.065 118.061C173.899 118.329 173.816 118.636 173.816 118.98V123.813H172.643ZM178.28 126.676C178.081 126.676 177.904 126.66 177.748 126.627C177.592 126.597 177.484 126.567 177.425 126.537L177.723 125.503C178.008 125.576 178.26 125.603 178.479 125.583C178.697 125.563 178.891 125.465 179.06 125.289C179.233 125.117 179.39 124.837 179.533 124.449L179.751 123.853L176.928 116.176H178.2L180.308 122.262H180.388L182.496 116.176H183.768L180.527 124.926C180.381 125.321 180.201 125.647 179.985 125.906C179.77 126.168 179.519 126.362 179.234 126.487C178.953 126.613 178.635 126.676 178.28 126.676ZM185.134 123.892C184.888 123.892 184.678 123.804 184.502 123.629C184.327 123.453 184.239 123.243 184.239 122.997C184.239 122.752 184.327 122.542 184.502 122.366C184.678 122.19 184.888 122.103 185.134 122.103C185.379 122.103 185.589 122.19 185.765 122.366C185.941 122.542 186.029 122.752 186.029 122.997C186.029 123.16 185.987 123.309 185.904 123.445C185.825 123.581 185.717 123.69 185.581 123.773C185.449 123.853 185.299 123.892 185.134 123.892Z" fill="#C2C6CA"/>
<path d="M32.4893 168.37V136.551H34.5277V168.37H32.4893ZM37.896 147.054C37.7965 146.051 37.3698 145.272 36.6158 144.717C35.8617 144.162 34.8384 143.884 33.5458 143.884C32.6675 143.884 31.9259 144.009 31.321 144.257C30.7161 144.498 30.2521 144.833 29.929 145.264C29.6141 145.695 29.4567 146.184 29.4567 146.731C29.4401 147.186 29.5354 147.584 29.7425 147.924C29.958 148.264 30.2521 148.558 30.625 148.806C30.9979 149.047 31.4287 149.258 31.9176 149.44C32.4065 149.614 32.9285 149.763 33.4837 149.888L35.7706 150.435C36.8809 150.683 37.9001 151.015 38.8281 151.429C39.7562 151.843 40.5599 152.353 41.2393 152.958C41.9188 153.563 42.445 154.275 42.8178 155.095C43.199 155.916 43.3937 156.856 43.402 157.917C43.3937 159.475 42.996 160.825 42.2088 161.969C41.4299 163.104 40.303 163.986 38.8281 164.616C37.3615 165.237 35.5924 165.548 33.521 165.548C31.466 165.548 29.6763 165.233 28.1516 164.604C26.6353 163.974 25.4504 163.042 24.5969 161.807C23.7518 160.564 23.3085 159.027 23.267 157.196H28.4748C28.5328 158.049 28.7772 158.762 29.2081 159.334C29.6473 159.897 30.2314 160.324 30.9606 160.614C31.698 160.896 32.5308 161.036 33.4588 161.036C34.3703 161.036 35.1616 160.904 35.8327 160.639C36.5122 160.374 37.0384 160.005 37.4112 159.533C37.7841 159.06 37.9705 158.518 37.9705 157.904C37.9705 157.333 37.8007 156.852 37.4609 156.463C37.1295 156.073 36.6406 155.742 35.9943 155.468C35.3563 155.195 34.5733 154.946 33.6452 154.723L30.8736 154.027C28.7275 153.505 27.033 152.688 25.7901 151.578C24.5472 150.468 23.9299 148.972 23.9382 147.091C23.9299 145.55 24.3401 144.203 25.1687 143.052C26.0056 141.9 27.1532 141.001 28.6115 140.355C30.0698 139.708 31.727 139.385 33.5831 139.385C35.4723 139.385 37.1212 139.708 38.5298 140.355C39.9467 141.001 41.0488 141.9 41.8359 143.052C42.6231 144.203 43.0291 145.538 43.054 147.054H37.896ZM57.247 139.733V165.188H51.8653V144.842H51.7161L45.8869 148.496V143.723L52.1884 139.733H57.247ZM72.5773 165.747C70.4395 165.739 68.6 165.213 67.0588 164.169C65.5259 163.125 64.3451 161.612 63.5165 159.632C62.6962 157.652 62.2902 155.269 62.2985 152.485C62.2985 149.71 62.7087 147.344 63.529 145.388C64.3576 143.433 65.5383 141.946 67.0712 140.926C68.6124 139.899 70.4478 139.385 72.5773 139.385C74.7068 139.385 76.538 139.899 78.0709 140.926C79.6121 141.954 80.797 143.445 81.6256 145.401C82.4542 147.348 82.8643 149.71 82.856 152.485C82.856 155.278 82.4417 157.664 81.6131 159.644C80.7928 161.625 79.6162 163.137 78.0833 164.181C76.5504 165.225 74.7151 165.747 72.5773 165.747ZM72.5773 161.285C74.0356 161.285 75.1998 160.552 76.0698 159.085C76.9398 157.618 77.3707 155.419 77.3624 152.485C77.3624 150.555 77.1636 148.947 76.7658 147.663C76.3764 146.379 75.8212 145.413 75.1004 144.767C74.3878 144.121 73.5467 143.797 72.5773 143.797C71.1272 143.797 69.9672 144.522 69.0972 145.973C68.2271 147.423 67.788 149.594 67.7797 152.485C67.7797 154.441 67.9744 156.073 68.3638 157.382C68.7616 158.683 69.3209 159.661 70.0418 160.316C70.7626 160.962 71.6078 161.285 72.5773 161.285ZM90.7724 161.708L90.6357 163.075C90.528 164.169 90.3208 165.258 90.0143 166.344C89.716 167.437 89.4011 168.428 89.0697 169.314C88.7465 170.201 88.4855 170.897 88.2866 171.402H84.8562C84.9805 170.913 85.1504 170.23 85.3658 169.351C85.5813 168.481 85.7843 167.504 85.9748 166.418C86.1654 165.333 86.2856 164.227 86.3353 163.1L86.3974 161.708H90.7724ZM103.819 165.747C101.681 165.739 99.8416 165.213 98.3004 164.169C96.7675 163.125 95.5867 161.612 94.7581 159.632C93.9378 157.652 93.5318 155.269 93.5401 152.485C93.5401 149.71 93.9503 147.344 94.7706 145.388C95.5992 143.433 96.7799 141.946 98.3128 140.926C99.854 139.899 101.689 139.385 103.819 139.385C105.948 139.385 107.78 139.899 109.312 140.926C110.854 141.954 112.039 143.445 112.867 145.401C113.696 147.348 114.106 149.71 114.098 152.485C114.098 155.278 113.683 157.664 112.855 159.644C112.034 161.625 110.858 163.137 109.325 164.181C107.792 165.225 105.957 165.747 103.819 165.747ZM103.819 161.285C105.277 161.285 106.441 160.552 107.311 159.085C108.181 157.618 108.612 155.419 108.604 152.485C108.604 150.555 108.405 148.947 108.007 147.663C107.618 146.379 107.063 145.413 106.342 144.767C105.629 144.121 104.788 143.797 103.819 143.797C102.369 143.797 101.209 144.522 100.339 145.973C99.4687 147.423 99.0296 149.594 99.0213 152.485C99.0213 154.441 99.216 156.073 99.6054 157.382C100.003 158.683 100.562 159.661 101.283 160.316C102.004 160.962 102.849 161.285 103.819 161.285ZM127.216 165.747C125.078 165.739 123.238 165.213 121.697 164.169C120.164 163.125 118.983 161.612 118.155 159.632C117.335 157.652 116.929 155.269 116.937 152.485C116.937 149.71 117.347 147.344 118.167 145.388C118.996 143.433 120.177 141.946 121.71 140.926C123.251 139.899 125.086 139.385 127.216 139.385C129.345 139.385 131.176 139.899 132.709 140.926C134.25 141.954 135.435 143.445 136.264 145.401C137.092 147.348 137.503 149.71 137.494 152.485C137.494 155.278 137.08 157.664 136.251 159.644C135.431 161.625 134.254 163.137 132.722 164.181C131.189 165.225 129.353 165.747 127.216 165.747ZM127.216 161.285C128.674 161.285 129.838 160.552 130.708 159.085C131.578 157.618 132.009 155.419 132.001 152.485C132.001 150.555 131.802 148.947 131.404 147.663C131.015 146.379 130.46 145.413 129.739 144.767C129.026 144.121 128.185 143.797 127.216 143.797C125.766 143.797 124.605 144.522 123.735 145.973C122.865 147.423 122.426 149.594 122.418 152.485C122.418 154.441 122.613 156.073 123.002 157.382C123.4 158.683 123.959 159.661 124.68 160.316C125.401 160.962 126.246 161.285 127.216 161.285ZM150.612 165.747C148.474 165.739 146.635 165.213 145.094 164.169C143.561 163.125 142.38 161.612 141.552 159.632C140.731 157.652 140.325 155.269 140.333 152.485C140.333 149.71 140.744 147.344 141.564 145.388C142.393 143.433 143.573 141.946 145.106 140.926C146.647 139.899 148.483 139.385 150.612 139.385C152.742 139.385 154.573 139.899 156.106 140.926C157.647 141.954 158.832 143.445 159.661 145.401C160.489 147.348 160.899 149.71 160.891 152.485C160.891 155.278 160.477 157.664 159.648 159.644C158.828 161.625 157.651 163.137 156.118 164.181C154.585 165.225 152.75 165.747 150.612 165.747ZM150.612 161.285C152.071 161.285 153.235 160.552 154.105 159.085C154.975 157.618 155.406 155.419 155.397 152.485C155.397 150.555 155.199 148.947 154.801 147.663C154.411 146.379 153.856 145.413 153.135 144.767C152.423 144.121 151.582 143.797 150.612 143.797C149.162 143.797 148.002 144.522 147.132 145.973C146.262 147.423 145.823 149.594 145.815 152.485C145.815 154.441 146.009 156.073 146.399 157.382C146.797 158.683 147.356 159.661 148.077 160.316C148.798 160.962 149.643 161.285 150.612 161.285Z" fill="#F5F7F9"/>
<rect x="115.5" y="58.1877" width="0.875" height="0.875" fill="#D9D9D9"/>
<rect x="138.25" y="89.6877" width="0.875" height="0.875" fill="#D9D9D9"/>
<rect x="167.125" y="36.3127" width="0.875" height="0.875" fill="#D9D9D9"/>
<rect x="198.625" y="36.3127" width="0.875" height="0.875" fill="#D9D9D9"/>
<rect x="190.75" y="61.6877" width="0.875" height="0.875" fill="#D9D9D9"/>
<rect x="232.75" y="73.9377" width="0.875" height="0.875" fill="#D9D9D9"/>
<rect x="262.5" y="38.0627" width="0.875" height="0.875" fill="#D9D9D9"/>
<rect x="262.5" y="104.563" width="0.875" height="0.875" fill="#D9D9D9"/>
<rect x="247.625" y="128.188" width="0.875" height="0.875" fill="#D9D9D9"/>
<path d="M134.75 73.9377C145.25 57.7502 165.812 27.1252 162.75 0.437744" stroke="#1F262F" stroke-width="1.75"/>
<path d="M199.5 77.0002C210 60.8127 217.438 21.8752 205.625 0.437744" stroke="#1F262F" stroke-width="1.75"/>
</g>
<rect x="0.5" y="0.937744" width="349" height="201.125" rx="19.5" stroke="url(#paint3_linear_34_17791)"/>
<g clip-path="url(#clip1_34_17791)">
<rect y="221" width="350" height="202.125" rx="20" fill="url(#paint4_linear_34_17791)"/>
<rect x="21.875" y="245.35" width="49.8886" height="47.5501" rx="17.9287" fill="#9FC9F9"/>
<path d="M54.6144 264.837L48.8619 270.555C48.0842 271.328 47.6953 271.714 47.213 271.714C46.7307 271.714 46.3419 271.328 45.5644 270.555L45.3778 270.369C44.5996 269.595 44.2105 269.208 43.7279 269.208C43.2453 269.209 42.8564 269.596 42.0788 270.37L39.0242 273.412M54.6144 264.837V269.161M54.6144 264.837H50.263" stroke="#323B47" stroke-width="1.16927" stroke-linecap="round" stroke-linejoin="round"/>
<rect x="228.812" y="245.062" width="101.5" height="48.125" rx="17.9375" fill="#232A31"/>
<rect x="228.812" y="245.062" width="101.5" height="48.125" rx="17.9375" stroke="#494F55" stroke-width="0.875"/>
<path d="M262.345 266.875H260.804C260.713 266.432 260.553 266.042 260.325 265.707C260.102 265.371 259.828 265.089 259.505 264.862C259.186 264.629 258.832 264.455 258.442 264.339C258.053 264.223 257.647 264.165 257.224 264.165C256.454 264.165 255.756 264.36 255.13 264.75C254.509 265.139 254.014 265.713 253.645 266.471C253.28 267.229 253.098 268.159 253.098 269.261C253.098 270.363 253.28 271.294 253.645 272.052C254.014 272.81 254.509 273.384 255.13 273.773C255.756 274.163 256.454 274.357 257.224 274.357C257.647 274.357 258.053 274.299 258.442 274.183C258.832 274.067 259.186 273.895 259.505 273.667C259.828 273.435 260.102 273.152 260.325 272.816C260.553 272.476 260.713 272.087 260.804 271.648H262.345C262.229 272.298 262.018 272.88 261.711 273.394C261.405 273.908 261.024 274.345 260.568 274.705C260.112 275.062 259.6 275.333 259.033 275.519C258.469 275.706 257.867 275.799 257.224 275.799C256.139 275.799 255.174 275.534 254.328 275.004C253.483 274.473 252.818 273.719 252.334 272.741C251.849 271.764 251.607 270.604 251.607 269.261C251.607 267.919 251.849 266.759 252.334 265.781C252.818 264.804 253.483 264.049 254.328 263.519C255.174 262.989 256.139 262.724 257.224 262.724C257.867 262.724 258.469 262.817 259.033 263.003C259.6 263.19 260.112 263.463 260.568 263.824C261.024 264.18 261.405 264.615 261.711 265.129C262.018 265.638 262.229 266.22 262.345 266.875ZM266.103 269.883V275.625H264.637V262.898H266.103V267.571H266.228C266.451 267.078 266.787 266.686 267.234 266.396C267.686 266.102 268.287 265.955 269.037 265.955C269.687 265.955 270.257 266.086 270.746 266.347C271.234 266.604 271.614 266.999 271.883 267.534C272.156 268.064 272.293 268.739 272.293 269.56V275.625H270.826V269.659C270.826 268.901 270.63 268.315 270.236 267.9C269.847 267.482 269.306 267.273 268.614 267.273C268.133 267.273 267.703 267.374 267.321 267.577C266.944 267.78 266.646 268.076 266.427 268.466C266.211 268.855 266.103 269.328 266.103 269.883ZM278.854 275.824C277.992 275.824 277.236 275.619 276.586 275.209C275.939 274.798 275.434 274.225 275.069 273.487C274.709 272.75 274.529 271.888 274.529 270.902C274.529 269.908 274.709 269.04 275.069 268.298C275.434 267.557 275.939 266.981 276.586 266.57C277.236 266.16 277.992 265.955 278.854 265.955C279.716 265.955 280.47 266.16 281.116 266.57C281.766 266.981 282.272 267.557 282.632 268.298C282.997 269.04 283.179 269.908 283.179 270.902C283.179 271.888 282.997 272.75 282.632 273.487C282.272 274.225 281.766 274.798 281.116 275.209C280.47 275.619 279.716 275.824 278.854 275.824ZM278.854 274.506C279.509 274.506 280.047 274.339 280.47 274.003C280.892 273.667 281.205 273.226 281.408 272.679C281.611 272.132 281.713 271.54 281.713 270.902C281.713 270.264 281.611 269.669 281.408 269.118C281.205 268.567 280.892 268.122 280.47 267.782C280.047 267.443 279.509 267.273 278.854 267.273C278.199 267.273 277.661 267.443 277.238 267.782C276.816 268.122 276.503 268.567 276.3 269.118C276.097 269.669 275.995 270.264 275.995 270.902C275.995 271.54 276.097 272.132 276.3 272.679C276.503 273.226 276.816 273.667 277.238 274.003C277.661 274.339 278.199 274.506 278.854 274.506ZM285.418 275.625V266.08H286.885V275.625H285.418ZM286.164 264.489C285.878 264.489 285.631 264.391 285.424 264.197C285.221 264.002 285.12 263.768 285.12 263.494C285.12 263.221 285.221 262.987 285.424 262.792C285.631 262.597 285.878 262.5 286.164 262.5C286.45 262.5 286.694 262.597 286.897 262.792C287.104 262.987 287.208 263.221 287.208 263.494C287.208 263.768 287.104 264.002 286.897 264.197C286.694 264.391 286.45 264.489 286.164 264.489ZM293.449 275.824C292.554 275.824 291.783 275.613 291.137 275.19C290.491 274.767 289.993 274.185 289.645 273.444C289.297 272.702 289.123 271.855 289.123 270.902C289.123 269.933 289.302 269.077 289.658 268.335C290.018 267.59 290.52 267.008 291.162 266.589C291.808 266.167 292.562 265.955 293.424 265.955C294.095 265.955 294.7 266.08 295.238 266.328C295.777 266.577 296.218 266.925 296.562 267.372C296.906 267.82 297.119 268.342 297.202 268.938H295.736C295.624 268.503 295.375 268.118 294.99 267.782C294.609 267.443 294.095 267.273 293.449 267.273C292.877 267.273 292.376 267.422 291.945 267.72C291.518 268.014 291.185 268.431 290.944 268.969C290.708 269.504 290.59 270.131 290.59 270.852C290.59 271.59 290.706 272.232 290.938 272.779C291.174 273.326 291.506 273.75 291.932 274.053C292.363 274.355 292.869 274.506 293.449 274.506C293.83 274.506 294.176 274.44 294.487 274.308C294.797 274.175 295.06 273.984 295.276 273.736C295.491 273.487 295.644 273.189 295.736 272.841H297.202C297.119 273.404 296.914 273.912 296.587 274.363C296.264 274.811 295.835 275.167 295.301 275.432C294.77 275.693 294.153 275.824 293.449 275.824ZM303.348 275.824C302.429 275.824 301.635 275.621 300.968 275.215C300.305 274.805 299.794 274.233 299.433 273.5C299.077 272.762 298.899 271.905 298.899 270.927C298.899 269.949 299.077 269.087 299.433 268.342C299.794 267.592 300.295 267.008 300.937 266.589C301.583 266.167 302.337 265.955 303.199 265.955C303.696 265.955 304.187 266.038 304.672 266.204C305.157 266.37 305.598 266.639 305.996 267.012C306.393 267.38 306.71 267.869 306.947 268.478C307.183 269.087 307.301 269.837 307.301 270.728V271.349H299.943V270.082H305.809C305.809 269.543 305.702 269.062 305.486 268.64C305.275 268.217 304.972 267.884 304.579 267.639C304.189 267.395 303.73 267.273 303.199 267.273C302.615 267.273 302.11 267.418 301.683 267.708C301.26 267.994 300.935 268.366 300.707 268.826C300.479 269.286 300.365 269.779 300.365 270.305V271.151C300.365 271.871 300.49 272.483 300.738 272.984C300.991 273.481 301.341 273.86 301.789 274.121C302.236 274.378 302.756 274.506 303.348 274.506C303.734 274.506 304.082 274.453 304.392 274.345C304.707 274.233 304.979 274.067 305.206 273.848C305.434 273.624 305.61 273.346 305.735 273.015L307.152 273.413C307.002 273.893 306.752 274.316 306.4 274.68C306.048 275.041 305.613 275.323 305.095 275.526C304.577 275.724 303.995 275.824 303.348 275.824Z" fill="#FBFDFF"/>
<rect x="115.5" y="278.75" width="0.875" height="0.875" fill="#D9D9D9"/>
<rect x="167.125" y="256.875" width="0.875" height="0.875" fill="#D9D9D9"/>
<rect x="198.625" y="256.875" width="0.875" height="0.875" fill="#D9D9D9"/>
<rect x="190.75" y="282.25" width="0.875" height="0.875" fill="#D9D9D9"/>
<rect x="232.75" y="294.5" width="0.875" height="0.875" fill="#D9D9D9"/>
<rect x="262.5" y="258.625" width="0.875" height="0.875" fill="#D9D9D9"/>
<path d="M134.75 294.5C145.25 278.312 165.812 247.688 162.75 221" stroke="#1F262F" stroke-width="1.75"/>
<path d="M199.5 297.562C210 281.375 217.438 242.438 205.625 221" stroke="#1F262F" stroke-width="1.75"/>
</g>
<rect x="0.5" y="221.5" width="349" height="201.125" rx="19.5" stroke="url(#paint5_linear_34_17791)"/>
<defs>
<linearGradient id="paint0_linear_34_17791" x1="175" y1="0.437744" x2="175" y2="202.563" gradientUnits="userSpaceOnUse">
<stop stop-color="#1F2327"/>
<stop offset="1" stop-color="#0F1215"/>
</linearGradient>
<linearGradient id="paint1_linear_34_17791" x1="207.813" y1="150.063" x2="350" y2="149.664" gradientUnits="userSpaceOnUse">
<stop stop-color="#2A394A"/>
<stop offset="0.625185" stop-color="#6A8CB3"/>
</linearGradient>
<linearGradient id="paint2_linear_34_17791" x1="281.75" y1="123.89" x2="281.75" y2="200.89" gradientUnits="userSpaceOnUse">
<stop stop-color="#0E1925"/>
<stop offset="1" stop-color="#0D1116"/>
</linearGradient>
<linearGradient id="paint3_linear_34_17791" x1="175" y1="94.2899" x2="175" y2="0.437744" gradientUnits="userSpaceOnUse">
<stop stop-color="white" stop-opacity="0"/>
<stop offset="1" stop-color="white"/>
</linearGradient>
<linearGradient id="paint4_linear_34_17791" x1="175" y1="221" x2="175" y2="423.125" gradientUnits="userSpaceOnUse">
<stop stop-color="#1F2327"/>
<stop offset="1" stop-color="#0F1215"/>
</linearGradient>
<linearGradient id="paint5_linear_34_17791" x1="175" y1="314.852" x2="175" y2="221" gradientUnits="userSpaceOnUse">
<stop stop-color="white" stop-opacity="0"/>
<stop offset="1" stop-color="white"/>
</linearGradient>
<clipPath id="clip0_34_17791">
<rect y="0.437744" width="350" height="202.125" rx="20" fill="white"/>
</clipPath>
<clipPath id="clip1_34_17791">
<rect y="221" width="350" height="202.125" rx="20" fill="white"/>
</clipPath>
</defs>
</svg>
