<svg width="82" height="82" viewBox="0 0 82 82" fill="none" xmlns="http://www.w3.org/2000/svg">
<path d="M54.6237 40.6479C53.8151 41.2168 53.1423 41.9569 52.6531 42.8151C52.1638 43.6736 51.8434 44.5909 51.7664 45.5757C51.6618 46.7326 51.3055 47.8524 50.7226 48.8574C50.1397 49.8622 49.3441 50.7278 48.3915 51.3939C47.4387 52.0598 46.3518 52.5102 45.2064 52.7131C44.0612 52.9163 42.8852 52.8675 41.7606 52.57C40.4174 52.2023 39.0205 52.2954 37.71 52.7654C36.3996 53.2353 35.2665 54.0974 34.4652 55.2342C33.6639 56.3711 33.2332 57.727 33.2321 59.1177C33.2312 60.5082 33.6596 61.8654 34.4592 63.0043C35.2588 64.1431 36.3905 65.0083 37.7001 65.4816C39.0099 65.9551 40.4335 66.0135 41.7773 65.6495C43.1212 65.2853 44.3194 64.5162 45.209 63.4468C46.0986 62.3774 46.6361 61.06 46.7481 59.674C46.8527 58.5173 47.2375 57.436 47.8205 56.431C48.4034 55.4262 49.1991 54.5606 50.1517 53.8945C51.1045 53.2286 52.1914 52.7782 53.3366 52.5752C54.482 52.3721 55.6292 52.3822 56.7539 52.6798C57.8517 52.9766 59.0067 52.992 60.1119 52.7244C61.2168 52.4569 62.2363 51.9151 63.0755 51.1494C63.9147 50.3836 64.5469 49.4185 64.9128 48.3437C65.279 47.2687 65.3674 46.1189 65.1699 45.0004C64.9724 43.882 64.4953 42.8313 63.783 41.9458C63.0707 41.0602 62.1461 40.3684 61.0949 39.9345C60.0438 39.5006 58.9 39.3385 57.7698 39.4633C56.6395 39.5883 55.5593 39.996 54.6292 40.6489L54.6237 40.6479Z" fill="white"/>
<path d="M39.5713 47.8186C40.5243 48.0872 41.4965 48.1024 42.4728 47.9376C43.4491 47.7728 44.3764 47.3935 45.1876 46.8269C45.9986 46.2603 46.6736 45.5207 47.1631 44.6616C47.6529 43.8025 47.9452 42.8455 48.019 41.8595C48.1236 40.7026 48.5086 39.6215 49.0914 38.6164C49.6743 37.6116 50.47 36.746 51.4226 36.08C52.3754 35.4141 53.4623 34.9637 54.6075 34.7607C55.7529 34.5575 56.9287 34.6064 58.0535 34.9039C59.3966 35.2729 60.792 35.1803 62.1029 34.7113C63.414 34.2423 64.5478 33.3808 65.35 32.2443C66.1521 31.1079 66.5836 29.7518 66.5855 28.3611C66.5873 26.9704 66.1596 25.6127 65.3602 24.4733C64.5611 23.3339 63.4295 22.4682 62.1198 21.9942C60.8101 21.5203 59.3862 21.4613 58.042 21.8251C56.6979 22.1889 55.4993 22.958 54.6093 24.0274C53.7194 25.0967 53.1551 26.3742 53.043 27.7604C52.9386 28.9173 52.5827 30.0374 51.9999 31.0424C51.4171 32.0475 50.6214 32.9132 49.6687 33.5794C48.7159 34.2453 47.6288 34.6956 46.4835 34.8986C45.338 35.1015 44.1885 35.0925 43.0638 34.7947C42.1108 34.5261 41.1098 34.4722 40.1336 34.637C39.1574 34.8017 38.2301 35.1812 37.4189 35.7477C36.6077 36.3143 35.9329 37.054 35.4431 37.9131C34.9535 38.7722 34.6344 39.6909 34.5605 40.6768C34.4556 41.8335 34.0991 42.9532 33.5162 43.958C32.9332 44.9626 32.1376 45.8283 31.185 46.4942C30.2323 47.1601 29.1456 47.6103 28.0004 47.8137C26.8553 48.0168 25.6794 47.9683 24.5548 47.6711C23.2117 47.3021 21.8144 47.3942 20.5034 47.8634C19.1925 48.3325 18.0586 49.1939 17.2564 50.3304C16.4542 51.4669 16.0228 52.8229 16.0209 54.2136C16.0191 55.6043 16.447 56.9619 17.2461 58.1013C18.0453 59.2409 19.1769 60.1065 20.4866 60.5804C21.7963 61.0543 23.2203 61.1134 24.5644 60.7495C25.9085 60.3857 27.1072 59.6167 27.9971 58.5474C28.8871 57.4779 29.4534 56.199 29.5655 54.8128C29.6701 53.6559 30.0264 52.5362 30.6094 51.5312C31.1921 50.5263 31.9878 49.6607 32.9404 48.9946C33.8932 48.3288 34.9802 47.8784 36.1253 47.6754C37.2707 47.4723 38.4466 47.521 39.5713 47.8186Z" fill="white"/>
<path d="M28.066 42.0445C28.8747 41.4758 29.5475 40.7357 30.0364 39.8772C30.5254 39.0188 30.8472 38.1015 30.9234 37.1167C31.028 35.9596 31.3843 34.8393 31.9675 33.8341C32.5507 32.829 33.3466 31.9633 34.2998 31.2973C35.253 30.6313 36.3403 30.1812 37.4859 29.9784C38.6316 29.7756 39.808 29.825 40.9328 30.1231C42.2755 30.4915 43.6705 30.3989 44.9808 29.9298C46.2912 29.4607 47.4244 28.5993 48.2264 27.4632C49.0281 26.3271 49.4592 24.9715 49.461 23.5813C49.4628 22.1911 49.035 20.8339 48.2361 19.6949C47.4373 18.5559 46.306 17.6905 44.9969 17.2167C43.6877 16.7428 42.2642 16.6837 40.9206 17.0472C39.5769 17.4108 38.3786 18.1794 37.4889 19.2482C36.5991 20.317 36.0344 21.5957 35.922 22.9814C35.8175 24.1382 35.4611 25.2581 34.8782 26.2629C34.2953 27.2678 33.4998 28.1335 32.5471 28.7995C31.5943 29.4655 30.5074 29.9157 29.3622 30.1188C28.2169 30.3219 27.0678 30.3115 25.9431 30.0139C24.8453 29.7173 23.6903 29.7023 22.5854 29.97C21.4804 30.2378 20.4612 30.7798 19.6221 31.5457C18.783 32.3115 18.1513 33.2767 17.7854 34.3515C17.4195 35.4265 17.3312 36.5764 17.5289 37.6946C17.7265 38.813 18.2037 39.8635 18.9161 40.7489C19.6285 41.6345 20.5531 42.3261 21.6042 42.76C22.6554 43.1937 23.799 43.3556 24.9292 43.2308C26.0594 43.1058 27.1396 42.698 28.0696 42.0451L28.066 42.0445Z" fill="white"/>
</svg>
