<svg width="100" height="100" viewBox="0 0 100 100" fill="none" xmlns="http://www.w3.org/2000/svg">
<path opacity="0.9" fill-rule="evenodd" clip-rule="evenodd" d="M64.7373 60.004C70.2624 65.5291 79.2202 65.5291 84.7453 60.004C90.2701 54.4788 90.2701 45.5211 84.7453 39.9959C79.2202 34.4711 70.2624 34.4711 64.7373 39.9959L54.7334 50.0001L64.7373 60.004Z" fill="white"/>
<path opacity="0.8" fill-rule="evenodd" clip-rule="evenodd" d="M60.0042 84.7446C65.529 79.2194 65.529 70.2617 60.0042 64.7365L50 54.7327L39.9962 64.7365C34.4713 70.2617 34.4713 79.2194 39.9962 84.7446C45.5213 90.2697 54.4791 90.2697 60.0042 84.7446Z" fill="white"/>
<path opacity="0.7" fill-rule="evenodd" clip-rule="evenodd" d="M15.255 60.004C9.73009 54.4788 9.73009 45.5211 15.255 39.9959C20.7803 34.4711 29.738 34.4711 35.2632 39.9959L45.2671 50.0001L35.2632 60.004C29.738 65.5291 20.7803 65.5291 15.255 60.004Z" fill="white"/>
<path fill-rule="evenodd" clip-rule="evenodd" d="M60.0042 35.2627C65.529 29.7376 65.529 20.7798 60.0042 15.2547C54.4791 9.72957 45.5213 9.72957 39.9962 15.2547C34.4713 20.7798 34.4713 29.7376 39.9962 35.2627L50 45.2666L60.0042 35.2627Z" fill="white"/>
</svg>
