<svg width="82" height="82" viewBox="0 0 82 82" fill="none" xmlns="http://www.w3.org/2000/svg">
<path d="M52.7675 17.177L47.7267 14.8317L40.3452 30.6262L38.96 14.9475L33.4209 15.4273L34.9176 32.367L25.99 19.6633L21.437 22.8398L31.2293 36.7744L17.1313 30.2149L14.7843 35.2369L30.1882 42.4039C30.1434 41.5757 30.1916 40.7296 30.3418 39.8778C31.4048 33.8491 37.1704 29.8266 43.2197 30.8932C49.269 31.9599 53.3111 37.7118 52.2481 43.7405C52.0989 44.5867 51.8569 45.3935 51.5347 46.1521L65.534 52.6656L67.881 47.6436L52.4158 40.4481L67.9082 39.1059L67.4203 33.584L50.4275 35.0561L63.1615 26.172L59.9695 21.6298L46.1955 31.2395L52.7675 17.177Z" fill="white"/>
<path d="M51.5095 46.2114C50.719 48.0424 49.4588 49.5902 47.9025 50.734L56.6752 63.2176L61.2282 60.0411L51.5095 46.2114Z" fill="white"/>
<path d="M47.7756 50.8257C46.2073 51.9447 44.3488 52.6584 42.3727 52.8466L43.7057 67.9338L49.2446 67.4539L47.7756 50.8257Z" fill="white"/>
<path d="M42.1659 52.8645C41.2521 52.9343 40.3148 52.8918 39.3705 52.7253C38.3588 52.5469 37.4032 52.2374 36.5182 51.8175L30.0998 65.5514L35.1406 67.8967L42.1659 52.8645Z" fill="white"/>
<path d="M36.3405 51.7318C34.5813 50.8582 33.1112 49.5443 32.048 47.9573L19.5039 56.709L22.6959 61.2512L36.3405 51.7318Z" fill="white"/>
<path d="M31.9753 47.8476C30.9359 46.2559 30.3021 44.3977 30.19 42.4381L14.757 43.7751L15.2448 49.2969L31.9753 47.8476Z" fill="white"/>
</svg>
