<svg width="82" height="82" viewBox="0 0 82 82" fill="none" xmlns="http://www.w3.org/2000/svg">
<path d="M31.4108 49.0489C31.0471 48.9848 30.6754 49.1055 30.4188 49.3711L23.9481 56.0684C23.3295 56.7086 23.6775 57.78 24.5542 57.9346L46.2173 61.7544C46.581 61.8185 46.9528 61.6978 47.2093 61.4322L66.8621 41.0914C67.4807 40.4512 67.1328 39.3798 66.256 39.2252L50.9588 36.5279C50.5952 36.4637 50.2234 36.5845 49.9668 36.85L38.2211 49.007C37.5796 49.6709 36.6502 49.9728 35.741 49.8124L31.4108 49.0489Z" fill="url(#paint0_linear_34_19094)" fill-opacity="0.48"/>
<path d="M34.0816 21.5665C34.5946 21.0055 35.3588 20.7456 36.1075 20.8776L54.764 24.1672C55.6271 24.3194 55.9825 25.3644 55.391 26.0112L37.0581 46.0617C36.5451 46.6227 35.7809 46.8826 35.0322 46.7506L16.3758 43.461C15.5126 43.3088 15.1573 42.2638 15.7487 41.617L34.0816 21.5665Z" fill="url(#paint1_linear_34_19094)"/>
<path opacity="0.72" d="M31.8468 49.1257C31.2104 49.0135 30.5598 49.2248 30.1108 49.6895L25.0372 54.9408C23.9546 56.0612 24.5636 57.9362 26.0979 58.2068L45.7809 61.6774C46.4173 61.7896 47.0678 61.5783 47.5169 61.1136L65.7725 42.2188C66.8551 41.0983 66.2461 39.2234 64.7118 38.9528L51.3948 36.6047C50.7584 36.4924 50.1078 36.7037 49.6588 37.1685L38.9903 48.2105C37.8677 49.3723 36.2412 49.9006 34.6502 49.62L31.8468 49.1257Z" fill="white"/>
<path d="M33.4638 22.2421C34.3615 21.2602 35.6989 20.8055 37.0091 21.0365L53.2699 23.9037C54.7805 24.17 55.4023 25.9987 54.3673 27.1307L37.6759 45.3859C36.7781 46.3678 35.4408 46.8226 34.1306 46.5915L17.8697 43.7243C16.3592 43.458 15.7373 41.6293 16.7724 40.4973L33.4638 22.2421Z" fill="white"/>
<defs>
<linearGradient id="paint0_linear_34_19094" x1="47.6336" y1="35.9415" x2="40.8753" y2="74.27" gradientUnits="userSpaceOnUse">
<stop offset="0.313079" stop-color="white"/>
<stop offset="1" stop-color="white" stop-opacity="0"/>
</linearGradient>
<linearGradient id="paint1_linear_34_19094" x1="37.7984" y1="21.1757" x2="31.9047" y2="54.6003" gradientUnits="userSpaceOnUse">
<stop offset="0.38239" stop-color="white"/>
<stop offset="1" stop-color="white" stop-opacity="0"/>
</linearGradient>
</defs>
</svg>
