<svg width="1157" height="422" viewBox="0 0 1157 422" fill="none" xmlns="http://www.w3.org/2000/svg">
<g opacity="0.7">
<mask id="mask0_0_16542" style="mask-type:alpha" maskUnits="userSpaceOnUse" x="0" y="-14" width="1157" height="691">
<rect y="-14" width="1156.45" height="690.254" fill="url(#paint0_radial_0_16542)"/>
</mask>
<g mask="url(#mask0_0_16542)">
<rect x="148.772" y="-2.55601" width="95.1659" height="95.1659" stroke="white" stroke-width="1.20463"/>
<rect x="243.938" y="-2.55601" width="95.1659" height="95.1659" stroke="white" stroke-width="1.20463"/>
<rect x="339.104" y="-2.55601" width="95.1659" height="95.1659" stroke="white" stroke-width="1.20463"/>
<rect x="434.27" y="-2.55601" width="95.1659" height="95.1659" stroke="white" stroke-width="1.20463"/>
<rect x="529.436" y="-2.55601" width="95.1659" height="95.1659" stroke="white" stroke-width="1.20463"/>
<rect x="624.602" y="-2.55601" width="95.1659" height="95.1659" stroke="white" stroke-width="1.20463"/>
<rect x="719.768" y="-2.55601" width="95.1659" height="95.1659" fill="white" fill-opacity="0.25" stroke="white" stroke-width="1.20463"/>
<rect x="814.932" y="-2.55601" width="95.1659" height="95.1659" stroke="white" stroke-width="1.20463"/>
<rect x="910.098" y="-2.55601" width="95.1659" height="95.1659" stroke="white" stroke-width="1.20463"/>
<rect x="148.772" y="92.6099" width="95.1659" height="95.1659" stroke="white" stroke-width="1.20463"/>
<rect x="243.938" y="92.6098" width="95.1659" height="95.1659" stroke="white" stroke-width="1.20463"/>
<rect x="339.104" y="92.6098" width="95.1659" height="95.1659" stroke="white" stroke-width="1.20463"/>
<rect x="434.27" y="92.6098" width="95.1659" height="95.1659" stroke="white" stroke-width="1.20463"/>
<rect x="529.436" y="92.6098" width="95.1659" height="95.1659" stroke="white" stroke-width="1.20463"/>
<rect x="624.602" y="92.6098" width="95.1659" height="95.1659" stroke="white" stroke-width="1.20463"/>
<rect x="719.768" y="92.6098" width="95.1659" height="95.1659" stroke="white" stroke-width="1.20463"/>
<rect x="814.932" y="92.6098" width="95.1659" height="95.1659" stroke="white" stroke-width="1.20463"/>
<rect x="910.098" y="92.6098" width="95.1659" height="95.1659" stroke="white" stroke-width="1.20463"/>
<rect x="148.772" y="187.776" width="95.1659" height="95.1659" stroke="white" stroke-width="1.20463"/>
<rect x="243.938" y="187.776" width="95.1659" height="95.1659" stroke="white" stroke-width="1.20463"/>
<rect x="339.104" y="187.776" width="95.1659" height="95.1659" stroke="white" stroke-width="1.20463"/>
<rect x="434.27" y="187.776" width="95.1659" height="95.1659" stroke="white" stroke-width="1.20463"/>
<rect x="529.436" y="187.776" width="95.1659" height="95.1659" fill="white" fill-opacity="0.25" stroke="white" stroke-width="1.20463"/>
<rect x="624.602" y="187.776" width="95.1659" height="95.1659" stroke="white" stroke-width="1.20463"/>
<rect x="719.768" y="187.776" width="95.1659" height="95.1659" fill="white" fill-opacity="0.25" stroke="white" stroke-width="1.20463"/>
<rect x="814.932" y="187.776" width="95.1659" height="95.1659" stroke="white" stroke-width="1.20463"/>
<rect x="910.098" y="187.776" width="95.1659" height="95.1659" stroke="white" stroke-width="1.20463"/>
<rect x="148.772" y="282.942" width="95.1659" height="95.1659" stroke="white" stroke-width="1.20463"/>
<rect x="243.938" y="282.942" width="95.1659" height="95.1659" stroke="white" stroke-width="1.20463"/>
<rect x="339.104" y="282.942" width="95.1659" height="95.1659" stroke="white" stroke-width="1.20463"/>
<rect x="434.27" y="282.942" width="95.1659" height="95.1659" stroke="white" stroke-width="1.20463"/>
<rect x="529.436" y="282.942" width="95.1659" height="95.1659" stroke="white" stroke-width="1.20463"/>
<rect x="624.602" y="282.942" width="95.1659" height="95.1659" stroke="white" stroke-width="1.20463"/>
<rect x="719.768" y="282.942" width="95.1659" height="95.1659" stroke="white" stroke-width="1.20463"/>
<rect x="814.932" y="282.942" width="95.1659" height="95.1659" stroke="white" stroke-width="1.20463"/>
<rect x="910.098" y="282.942" width="95.1659" height="95.1659" stroke="white" stroke-width="1.20463"/>
<rect x="148.772" y="378.107" width="95.1659" height="95.1659" stroke="white" stroke-width="1.20463"/>
<rect x="243.938" y="378.107" width="95.1659" height="95.1659" stroke="white" stroke-width="1.20463"/>
<rect x="339.104" y="378.107" width="95.1659" height="95.1659" stroke="white" stroke-width="1.20463"/>
<rect x="434.27" y="378.107" width="95.1659" height="95.1659" fill="white" fill-opacity="0.25" stroke="white" stroke-width="1.20463"/>
<rect x="529.436" y="378.107" width="95.1659" height="95.1659" stroke="white" stroke-width="1.20463"/>
<rect x="624.602" y="378.107" width="95.1659" height="95.1659" stroke="white" stroke-width="1.20463"/>
<rect x="719.768" y="378.107" width="95.1659" height="95.1659" stroke="white" stroke-width="1.20463"/>
<rect x="814.932" y="378.107" width="95.1659" height="95.1659" stroke="white" stroke-width="1.20463"/>
<rect x="910.098" y="378.107" width="95.1659" height="95.1659" stroke="white" stroke-width="1.20463"/>
</g>
</g>
<defs>
<radialGradient id="paint0_radial_0_16542" cx="0" cy="0" r="1" gradientUnits="userSpaceOnUse" gradientTransform="translate(578.223 331.127) rotate(90) scale(425.464 712.819)">
<stop stop-color="#D9D9D9" stop-opacity="0.2"/>
<stop offset="0.802083" stop-color="#D9D9D9" stop-opacity="0"/>
</radialGradient>
</defs>
</svg>
