<svg width="82" height="82" viewBox="0 0 82 82" fill="none" xmlns="http://www.w3.org/2000/svg">
<g clip-path="url(#clip0_34_19096)">
<path opacity="0.64" d="M11.7432 75.0016C23.165 72.9876 30.7915 62.0957 28.7775 50.6741C26.7635 39.2522 15.8718 31.6257 4.44995 33.6396L7.00256 48.1162C10.4291 47.512 13.6966 49.8 14.3008 53.2267C14.905 56.6531 12.6171 59.9207 9.19054 60.5249L11.7432 75.0016Z" fill="white"/>
<path d="M74.6019 28.3779C70.8705 27.8815 67.0005 27.9411 63.0958 28.6296C42.6317 32.238 28.9677 51.7526 32.576 72.2164C32.9382 74.2705 33.4606 76.256 34.1281 78.1623L57.1505 74.1028C56.0038 72.4052 55.1869 70.4445 54.8082 68.2963C53.3648 60.1108 58.8303 52.3049 67.0159 50.8616C71.4898 50.0727 75.85 51.3478 79.1203 54.0026L74.6019 28.3779Z" fill="white"/>
<path opacity="0.8" d="M4.43945 12.3174C8.88897 27.5256 24.1662 37.271 40.1338 34.4555C56.1012 31.64 67.124 17.2572 66.1036 1.44433L43.9187 5.35612C43.1545 9.03103 40.2268 12.0489 36.3048 12.7404C32.3826 13.432 28.5995 11.5975 26.6243 8.4056L4.43945 12.3174Z" fill="white"/>
</g>
<defs>
<clipPath id="clip0_34_19096">
<path d="M6.88091 47.4263C3.5243 28.39 16.2352 10.2369 35.2715 6.88032C54.3078 3.52371 72.4608 16.2346 75.8174 35.2709C79.1741 54.3072 66.4632 72.4602 47.4269 75.8169C28.3906 79.1735 10.2375 66.4626 6.88091 47.4263Z" fill="white"/>
</clipPath>
</defs>
</svg>
