<svg width="195" height="46" viewBox="0 0 195 46" fill="none" xmlns="http://www.w3.org/2000/svg">
<path fill-rule="evenodd" clip-rule="evenodd" d="M0.458008 23.0001C13.859 23.0001 21.5413 15.3177 21.5413 1.91675C21.5413 15.3177 29.2237 23.0001 42.6247 23.0001C29.2237 23.0001 21.5413 30.6825 21.5413 44.0834C21.5413 30.6825 13.859 23.0001 0.458008 23.0001Z" fill="white"/>
<path d="M50.9526 32.4961L58.3126 12.3711H62.4526L69.8126 32.4961H65.9026L64.2926 27.8386H56.4439L54.8051 32.4961H50.9526ZM57.4501 24.9636H63.2864L60.3539 16.5974L57.4501 24.9636Z" fill="white"/>
<path d="M77.1938 32.8411C75.7371 32.8411 74.4529 32.5249 73.3412 31.8924C72.2296 31.2599 71.3479 30.3782 70.6963 29.2474C70.0637 28.1165 69.7475 26.8228 69.7475 25.3661C69.7475 23.9095 70.0637 22.6157 70.6963 21.4849C71.3479 20.354 72.2296 19.4724 73.3412 18.8399C74.4529 18.2074 75.7371 17.8911 77.1938 17.8911C79.0146 17.8911 80.5479 18.3703 81.7938 19.3286C83.0396 20.2678 83.835 21.5711 84.18 23.2386H80.2987C80.1071 22.5486 79.7237 22.012 79.1488 21.6286C78.5929 21.2261 77.9317 21.0249 77.165 21.0249C76.1492 21.0249 75.2867 21.4082 74.5775 22.1749C73.8683 22.9415 73.5137 24.0053 73.5137 25.3661C73.5137 26.727 73.8683 27.7907 74.5775 28.5574C75.2867 29.324 76.1492 29.7074 77.165 29.7074C77.9317 29.7074 78.5929 29.5157 79.1488 29.1324C79.7237 28.749 80.1071 28.2028 80.2987 27.4936H84.18C83.835 29.1036 83.0396 30.3974 81.7938 31.3749C80.5479 32.3524 79.0146 32.8411 77.1938 32.8411Z" fill="white"/>
<path d="M86.0088 32.4961V18.2361H89.2575L89.5738 20.1624C90.0338 19.4724 90.6375 18.9261 91.385 18.5236C92.1517 18.102 93.0334 17.8911 94.03 17.8911C96.2342 17.8911 97.7963 18.744 98.7163 20.4499C99.2338 19.664 99.9238 19.0411 100.786 18.5811C101.668 18.1211 102.626 17.8911 103.661 17.8911C105.52 17.8911 106.948 18.447 107.945 19.5586C108.942 20.6703 109.44 22.2995 109.44 24.4461V32.4961H105.76V24.7911C105.76 23.5645 105.52 22.6253 105.041 21.9736C104.581 21.322 103.863 20.9961 102.885 20.9961C101.888 20.9961 101.083 21.3603 100.47 22.0886C99.8759 22.817 99.5788 23.8328 99.5788 25.1361V32.4961H95.8988V24.7911C95.8988 23.5645 95.6592 22.6253 95.18 21.9736C94.7009 21.322 93.9629 20.9961 92.9663 20.9961C91.9888 20.9961 91.1934 21.3603 90.58 22.0886C89.9859 22.817 89.6888 23.8328 89.6888 25.1361V32.4961H86.0088Z" fill="white"/>
<path d="M118.425 32.8411C116.988 32.8411 115.713 32.5345 114.601 31.9211C113.49 31.3078 112.618 30.4453 111.985 29.3336C111.353 28.222 111.036 26.9378 111.036 25.4811C111.036 24.0053 111.343 22.6924 111.956 21.5424C112.589 20.3924 113.451 19.5011 114.544 18.8686C115.655 18.217 116.959 17.8911 118.454 17.8911C119.853 17.8911 121.089 18.1978 122.163 18.8111C123.236 19.4245 124.07 20.2678 124.664 21.3411C125.277 22.3953 125.584 23.574 125.584 24.8774C125.584 25.0882 125.574 25.3086 125.555 25.5386C125.555 25.7686 125.545 26.0082 125.526 26.2574H114.688C114.764 27.369 115.148 28.2411 115.838 28.8736C116.547 29.5061 117.4 29.8224 118.396 29.8224C119.144 29.8224 119.767 29.6595 120.265 29.3336C120.783 28.9886 121.166 28.5478 121.415 28.0111H125.153C124.884 28.912 124.434 29.7361 123.801 30.4836C123.188 31.212 122.421 31.787 121.501 32.2086C120.6 32.6303 119.575 32.8411 118.425 32.8411ZM118.454 20.8811C117.553 20.8811 116.758 21.1399 116.068 21.6574C115.378 22.1557 114.937 22.9224 114.745 23.9574H121.846C121.789 23.0182 121.444 22.2707 120.811 21.7149C120.179 21.159 119.393 20.8811 118.454 20.8811Z" fill="white"/>
<path d="M141.855 32.8411C139.823 32.8411 138.079 32.4099 136.622 31.5474C135.165 30.6657 134.044 29.4486 133.258 27.8961C132.472 26.3245 132.08 24.5132 132.08 22.4624C132.08 20.4115 132.472 18.6003 133.258 17.0286C134.044 15.457 135.165 14.2303 136.622 13.3486C138.079 12.467 139.823 12.0261 141.855 12.0261C144.27 12.0261 146.244 12.6299 147.777 13.8374C149.33 15.0257 150.297 16.7028 150.681 18.8686H146.627C146.378 17.7761 145.841 16.9232 145.017 16.3099C144.212 15.6774 143.139 15.3611 141.797 15.3611C139.938 15.3611 138.481 15.9936 137.427 17.2586C136.373 18.5236 135.846 20.2582 135.846 22.4624C135.846 24.6665 136.373 26.4011 137.427 27.6661C138.481 28.912 139.938 29.5349 141.797 29.5349C143.139 29.5349 144.212 29.2474 145.017 28.6724C145.841 28.0782 146.378 27.2636 146.627 26.2286H150.681C150.297 28.2986 149.33 29.9182 147.777 31.0874C146.244 32.2565 144.27 32.8411 141.855 32.8411Z" fill="white"/>
<path d="M159.257 32.8411C157.877 32.8411 156.631 32.5249 155.52 31.8924C154.427 31.2599 153.555 30.3878 152.903 29.2761C152.271 28.1453 151.955 26.842 151.955 25.3661C151.955 23.8903 152.28 22.5965 152.932 21.4849C153.584 20.354 154.456 19.4724 155.548 18.8399C156.66 18.2074 157.906 17.8911 159.286 17.8911C160.647 17.8911 161.873 18.2074 162.966 18.8399C164.077 19.4724 164.95 20.354 165.582 21.4849C166.234 22.5965 166.56 23.8903 166.56 25.3661C166.56 26.842 166.234 28.1453 165.582 29.2761C164.95 30.3878 164.077 31.2599 162.966 31.8924C161.854 32.5249 160.618 32.8411 159.257 32.8411ZM159.257 29.6499C160.215 29.6499 161.049 29.2953 161.758 28.5861C162.467 27.8578 162.822 26.7845 162.822 25.3661C162.822 23.9478 162.467 22.884 161.758 22.1749C161.049 21.4465 160.225 21.0824 159.286 21.0824C158.308 21.0824 157.465 21.4465 156.756 22.1749C156.066 22.884 155.721 23.9478 155.721 25.3661C155.721 26.7845 156.066 27.8578 156.756 28.5861C157.465 29.2953 158.299 29.6499 159.257 29.6499Z" fill="white"/>
<path d="M168.412 32.4961V18.2361H171.69L172.035 20.9099C172.552 19.9899 173.252 19.2615 174.134 18.7249C175.034 18.169 176.089 17.8911 177.296 17.8911V21.7724H176.261C175.456 21.7724 174.737 21.897 174.105 22.1461C173.472 22.3953 172.974 22.8265 172.61 23.4399C172.265 24.0532 172.092 24.9061 172.092 25.9986V32.4961H168.412Z" fill="white"/>
<path d="M178.374 38.8211V18.2361H181.651L182.054 20.2774C182.514 19.6449 183.118 19.089 183.865 18.6099C184.632 18.1307 185.619 17.8911 186.826 17.8911C188.168 17.8911 189.366 18.217 190.42 18.8686C191.474 19.5203 192.308 20.4115 192.921 21.5424C193.535 22.6732 193.841 23.9574 193.841 25.3949C193.841 26.8324 193.535 28.1165 192.921 29.2474C192.308 30.359 191.474 31.2407 190.42 31.8924C189.366 32.5249 188.168 32.8411 186.826 32.8411C185.753 32.8411 184.814 32.6399 184.009 32.2374C183.204 31.8349 182.552 31.2695 182.054 30.5411V38.8211H178.374ZM186.05 29.6211C187.219 29.6211 188.187 29.2282 188.954 28.4424C189.72 27.6565 190.104 26.6407 190.104 25.3949C190.104 24.149 189.72 23.1236 188.954 22.3186C188.187 21.5136 187.219 21.1111 186.05 21.1111C184.862 21.1111 183.884 21.5136 183.117 22.3186C182.37 23.1045 181.996 24.1203 181.996 25.3661C181.996 26.612 182.37 27.6374 183.117 28.4424C183.884 29.2282 184.862 29.6211 186.05 29.6211Z" fill="white"/>
</svg>
