<svg width="32" height="32" viewBox="0 0 32 32" fill="none" xmlns="http://www.w3.org/2000/svg">
<path d="M0 16C0 7.16344 7.16344 0 16 0C24.8366 0 32 7.16344 32 16C32 24.8366 24.8366 32 16 32C7.16344 32 0 24.8366 0 16Z" fill="#0A7CFF"/>
<path d="M0 16C0 7.16344 7.16344 0 16 0C24.8366 0 32 7.16344 32 16C32 24.8366 24.8366 32 16 32C7.16344 32 0 24.8366 0 16Z" fill="url(#paint0_radial_2023_5180)"/>
<path d="M14.5 14.6522C14.5 14.244 14.8358 13.913 15.25 13.913H16.75C17.1642 13.913 17.5 14.244 17.5 14.6522V24.2609C17.5 24.6691 17.1642 25 16.75 25H15.25C14.8358 25 14.5 24.6691 14.5 24.2609V14.6522Z" fill="url(#paint1_linear_2023_5180)"/>
<path d="M14.5 8.73913C14.5 8.33092 14.8358 8 15.25 8H16.75C17.1642 8 17.5 8.33092 17.5 8.73913V10.2174C17.5 10.6256 17.1642 10.9565 16.75 10.9565H15.25C14.8358 10.9565 14.5 10.6256 14.5 10.2174V8.73913Z" fill="url(#paint2_linear_2023_5180)"/>
<path d="M17.5 11.6957C17.5 11.2874 17.8358 10.9565 18.25 10.9565H24.25C24.6642 10.9565 25 11.2874 25 11.6957V13.1739C25 13.5821 24.6642 13.913 24.25 13.913H18.25C17.8358 13.913 17.5 13.5821 17.5 13.1739V11.6957Z" fill="url(#paint3_linear_2023_5180)"/>
<path d="M7 11.6957C7 11.2874 7.33579 10.9565 7.75 10.9565H13.75C14.1642 10.9565 14.5 11.2874 14.5 11.6957V13.1739C14.5 13.5821 14.1642 13.913 13.75 13.913H7.75C7.33579 13.913 7 13.5821 7 13.1739V11.6957Z" fill="url(#paint4_linear_2023_5180)"/>
<defs>
<radialGradient id="paint0_radial_2023_5180" cx="0" cy="0" r="1" gradientUnits="userSpaceOnUse" gradientTransform="translate(16 16) rotate(45) scale(22.6274)">
<stop stop-color="white" stop-opacity="0.12"/>
<stop offset="1" stop-opacity="0"/>
</radialGradient>
<linearGradient id="paint1_linear_2023_5180" x1="17.7679" y1="4.05353" x2="17.7679" y2="35.8157" gradientUnits="userSpaceOnUse">
<stop offset="0.313079" stop-color="white"/>
<stop offset="1" stop-color="white" stop-opacity="0"/>
</linearGradient>
<linearGradient id="paint2_linear_2023_5180" x1="17.7679" y1="4.05353" x2="17.7679" y2="35.8157" gradientUnits="userSpaceOnUse">
<stop offset="0.313079" stop-color="white"/>
<stop offset="1" stop-color="white" stop-opacity="0"/>
</linearGradient>
<linearGradient id="paint3_linear_2023_5180" x1="17.7679" y1="4.05353" x2="17.7679" y2="35.8157" gradientUnits="userSpaceOnUse">
<stop offset="0.313079" stop-color="white"/>
<stop offset="1" stop-color="white" stop-opacity="0"/>
</linearGradient>
<linearGradient id="paint4_linear_2023_5180" x1="17.7679" y1="4.05353" x2="17.7679" y2="35.8157" gradientUnits="userSpaceOnUse">
<stop offset="0.313079" stop-color="white"/>
<stop offset="1" stop-color="white" stop-opacity="0"/>
</linearGradient>
</defs>
</svg>
