<svg width="1157" height="531" viewBox="0 0 1157 531" fill="none" xmlns="http://www.w3.org/2000/svg">
<g opacity="0.7">
<mask id="mask0_34_19099" style="mask-type:alpha" maskUnits="userSpaceOnUse" x="0" y="-160" width="1157" height="691">
<rect y="-160" width="1156.45" height="690.254" fill="url(#paint0_radial_34_19099)"/>
</mask>
<g mask="url(#mask0_34_19099)">
<rect x="148.772" y="-53.3899" width="95.1659" height="95.1659" stroke="white" stroke-width="1.20463"/>
<rect x="243.938" y="-53.3899" width="95.1659" height="95.1659" stroke="white" stroke-width="1.20463"/>
<rect x="339.104" y="-53.3899" width="95.1659" height="95.1659" stroke="white" stroke-width="1.20463"/>
<rect x="434.27" y="-53.3899" width="95.1659" height="95.1659" stroke="white" stroke-width="1.20463"/>
<rect x="529.435" y="-53.3899" width="95.1659" height="95.1659" stroke="white" stroke-width="1.20463"/>
<rect x="624.601" y="-53.3899" width="95.1659" height="95.1659" stroke="white" stroke-width="1.20463"/>
<rect x="719.767" y="-53.3899" width="95.1659" height="95.1659" stroke="white" stroke-width="1.20463"/>
<rect x="814.933" y="-53.3899" width="95.1659" height="95.1659" stroke="white" stroke-width="1.20463"/>
<rect x="910.099" y="-53.3899" width="95.1659" height="95.1659" stroke="white" stroke-width="1.20463"/>
<rect x="148.772" y="41.7757" width="95.1659" height="95.1659" stroke="white" stroke-width="1.20463"/>
<rect x="243.938" y="41.7757" width="95.1659" height="95.1659" stroke="white" stroke-width="1.20463"/>
<rect x="339.104" y="41.7757" width="95.1659" height="95.1659" stroke="white" stroke-width="1.20463"/>
<rect x="434.27" y="41.7757" width="95.1659" height="95.1659" stroke="white" stroke-width="1.20463"/>
<rect x="529.435" y="41.7757" width="95.1659" height="95.1659" fill="white" fill-opacity="0.25" stroke="white" stroke-width="1.20463"/>
<rect x="624.601" y="41.7757" width="95.1659" height="95.1659" stroke="white" stroke-width="1.20463"/>
<rect x="719.767" y="41.7757" width="95.1659" height="95.1659" fill="white" fill-opacity="0.25" stroke="white" stroke-width="1.20463"/>
<rect x="814.933" y="41.7757" width="95.1659" height="95.1659" stroke="white" stroke-width="1.20463"/>
<rect x="910.099" y="41.7757" width="95.1659" height="95.1659" stroke="white" stroke-width="1.20463"/>
<rect x="148.772" y="136.942" width="95.1659" height="95.1659" stroke="white" stroke-width="1.20463"/>
<rect x="243.938" y="136.942" width="95.1659" height="95.1659" stroke="white" stroke-width="1.20463"/>
<rect x="339.104" y="136.942" width="95.1659" height="95.1659" stroke="white" stroke-width="1.20463"/>
<rect x="434.27" y="136.942" width="95.1659" height="95.1659" stroke="white" stroke-width="1.20463"/>
<rect x="529.435" y="136.942" width="95.1659" height="95.1659" stroke="white" stroke-width="1.20463"/>
<rect x="624.601" y="136.942" width="95.1659" height="95.1659" stroke="white" stroke-width="1.20463"/>
<rect x="719.767" y="136.942" width="95.1659" height="95.1659" stroke="white" stroke-width="1.20463"/>
<rect x="814.933" y="136.942" width="95.1659" height="95.1659" stroke="white" stroke-width="1.20463"/>
<rect x="910.099" y="136.942" width="95.1659" height="95.1659" stroke="white" stroke-width="1.20463"/>
<rect x="148.772" y="232.108" width="95.1659" height="95.1659" stroke="white" stroke-width="1.20463"/>
<rect x="243.938" y="232.108" width="95.1659" height="95.1659" stroke="white" stroke-width="1.20463"/>
<rect x="339.104" y="232.108" width="95.1659" height="95.1659" stroke="white" stroke-width="1.20463"/>
<rect x="434.27" y="232.108" width="95.1659" height="95.1659" fill="white" fill-opacity="0.25" stroke="white" stroke-width="1.20463"/>
<rect x="529.435" y="232.108" width="95.1659" height="95.1659" stroke="white" stroke-width="1.20463"/>
<rect x="624.601" y="232.108" width="95.1659" height="95.1659" stroke="white" stroke-width="1.20463"/>
<rect x="719.767" y="232.108" width="95.1659" height="95.1659" stroke="white" stroke-width="1.20463"/>
<rect x="814.933" y="232.108" width="95.1659" height="95.1659" stroke="white" stroke-width="1.20463"/>
<rect x="910.099" y="232.108" width="95.1659" height="95.1659" stroke="white" stroke-width="1.20463"/>
<rect x="148.772" y="327.273" width="95.1659" height="95.1659" stroke="white" stroke-width="1.20463"/>
<rect x="243.938" y="327.273" width="95.1659" height="95.1659" stroke="white" stroke-width="1.20463"/>
<rect x="339.104" y="327.273" width="95.1659" height="95.1659" stroke="white" stroke-width="1.20463"/>
<rect x="434.27" y="327.273" width="95.1659" height="95.1659" stroke="white" stroke-width="1.20463"/>
<rect x="529.435" y="327.273" width="95.1659" height="95.1659" stroke="white" stroke-width="1.20463"/>
<rect x="624.601" y="327.273" width="95.1659" height="95.1659" stroke="white" stroke-width="1.20463"/>
<rect x="719.767" y="327.273" width="95.1659" height="95.1659" stroke="white" stroke-width="1.20463"/>
<rect x="814.933" y="327.273" width="95.1659" height="95.1659" stroke="white" stroke-width="1.20463"/>
<rect x="910.099" y="327.273" width="95.1659" height="95.1659" stroke="white" stroke-width="1.20463"/>
<rect x="148.772" y="422.439" width="95.1659" height="95.1659" stroke="white" stroke-width="1.20463"/>
<rect x="243.938" y="422.439" width="95.1659" height="95.1659" stroke="white" stroke-width="1.20463"/>
<rect x="339.104" y="422.439" width="95.1659" height="95.1659" stroke="white" stroke-width="1.20463"/>
<rect x="434.27" y="422.439" width="95.1659" height="95.1659" stroke="white" stroke-width="1.20463"/>
<rect x="529.435" y="422.439" width="95.1659" height="95.1659" stroke="white" stroke-width="1.20463"/>
<rect x="624.601" y="422.439" width="95.1659" height="95.1659" stroke="white" stroke-width="1.20463"/>
<rect x="719.767" y="422.439" width="95.1659" height="95.1659" stroke="white" stroke-width="1.20463"/>
<rect x="814.933" y="422.439" width="95.1659" height="95.1659" stroke="white" stroke-width="1.20463"/>
<rect x="910.099" y="422.439" width="95.1659" height="95.1659" stroke="white" stroke-width="1.20463"/>
</g>
</g>
<defs>
<radialGradient id="paint0_radial_34_19099" cx="0" cy="0" r="1" gradientUnits="userSpaceOnUse" gradientTransform="translate(578.223 185.127) rotate(90) scale(425.464 712.819)">
<stop stop-color="#D9D9D9" stop-opacity="0.2"/>
<stop offset="0.802083" stop-color="#D9D9D9" stop-opacity="0"/>
</radialGradient>
</defs>
</svg>
