<svg width="101" height="101" viewBox="0 0 101 101" fill="none" xmlns="http://www.w3.org/2000/svg">
<path d="M54.3234 36.1101L59.6296 41.4164C62.0674 43.854 64.0012 46.7479 65.3206 49.9328C66.64 53.1178 67.319 56.5315 67.319 59.9789C67.319 63.4263 66.64 66.84 65.3206 70.025C64.0012 73.2099 62.0674 76.1038 59.6296 78.5414L58.3021 79.8651C53.379 84.7882 46.7019 87.554 39.7396 87.554C32.7773 87.554 26.1002 84.7882 21.1771 79.8651C16.254 74.9421 13.4883 68.2649 13.4883 61.3026C13.4883 54.3404 16.254 47.6632 21.1771 42.7401L26.4834 48.0464C24.7298 49.7847 23.3368 51.8523 22.3844 54.1304C21.4319 56.4085 20.9389 58.8523 20.9335 61.3215C20.9281 63.7907 21.4104 66.2367 22.3528 68.5189C23.2953 70.8012 24.6792 72.8749 26.4252 74.6208C28.1712 76.3668 30.2448 77.7508 32.5271 78.6932C34.8094 79.6356 37.2553 80.1179 39.7245 80.1125C42.1937 80.1071 44.6375 79.6141 46.9156 78.6617C49.1937 77.7093 51.2613 76.3163 52.9996 74.5627L54.3271 73.2352C57.8422 69.719 59.8169 64.9507 59.8169 59.9789C59.8169 55.0071 57.8422 50.2388 54.3271 46.7226L49.0209 41.4164L54.3271 36.1139L54.3234 36.1101ZM79.5159 58.6514L74.2134 53.3489C75.967 51.6106 77.36 49.543 78.3124 47.2649C79.2648 44.9868 79.7579 42.543 79.7633 40.0738C79.7687 37.6046 79.2863 35.1586 78.3439 32.8764C77.4015 30.5941 76.0175 28.5204 74.2716 26.7745C72.5256 25.0285 70.4519 23.6445 68.1697 22.7021C65.8874 21.7597 63.4414 21.2773 60.9723 21.2828C58.5031 21.2882 56.0593 21.7812 53.7811 22.7336C51.503 23.686 49.4354 25.079 47.6971 26.8326L46.3696 28.1601C42.8545 31.6763 40.8799 36.4446 40.8799 41.4164C40.8799 46.3882 42.8545 51.1565 46.3696 54.6726L51.6759 59.9789L46.3696 65.2814L41.0671 59.9789C38.6293 57.5413 36.6955 54.6474 35.3761 51.4625C34.0568 48.2775 33.3777 44.8638 33.3777 41.4164C33.3777 37.969 34.0568 34.5553 35.3761 31.3703C36.6955 28.1854 38.6293 25.2915 41.0671 22.8539L42.3946 21.5301C47.3177 16.6071 53.9948 13.8413 60.9571 13.8413C67.9194 13.8413 74.5965 16.6071 79.5196 21.5301C84.4427 26.4532 87.2085 33.1304 87.2085 40.0926C87.2085 47.0549 84.4427 53.7321 79.5196 58.6551L79.5159 58.6514Z" fill="white"/>
</svg>
