<svg width="82" height="82" viewBox="0 0 82 82" fill="none" xmlns="http://www.w3.org/2000/svg">
<path d="M54.2746 40.2988C53.466 40.8677 52.7932 41.6078 52.304 42.466C51.8147 43.3244 51.4943 44.2418 51.4172 45.2266C51.3127 46.3835 50.9564 47.5033 50.3734 48.5083C49.7905 49.5131 48.995 50.3787 48.0424 51.0448C47.0896 51.7107 46.0026 52.1611 44.8573 52.364C43.7121 52.5672 42.536 52.5184 41.4115 52.2208C40.0683 51.8532 38.6714 51.9463 37.3608 52.4162C36.0505 52.8862 34.9173 53.7483 34.116 54.8851C33.3147 56.022 32.8841 57.3779 32.883 58.7686C32.882 60.1591 33.3105 61.5163 34.1101 62.6552C34.9096 63.794 36.0414 64.6591 37.351 65.1324C38.6607 65.606 40.0844 65.6644 41.4282 65.3004C42.7721 64.9361 43.9703 64.1671 44.8599 63.0977C45.7495 62.0283 46.2869 60.7109 46.399 59.3249C46.5036 58.1682 46.8884 57.0869 47.4713 56.0819C48.0542 55.0771 48.8499 54.2114 49.8026 53.5454C50.7554 52.8795 51.8423 52.4291 52.9875 52.2261C54.1328 52.023 55.28 52.0331 56.4048 52.3307C57.5025 52.6274 58.6576 52.6428 59.7627 52.3753C60.8677 52.1078 61.8872 51.566 62.7264 50.8003C63.5656 50.0345 64.1978 49.0694 64.5637 47.9946C64.9299 46.9196 65.0182 45.7698 64.8208 44.6512C64.6233 43.5329 64.1462 42.4822 63.4339 41.5966C62.7216 40.7111 61.797 40.0192 60.7458 39.5854C59.6946 39.1515 58.5509 38.9894 57.4206 39.1142C56.2904 39.2392 55.2102 39.6469 54.2801 40.2998L54.2746 40.2988Z" fill="white"/>
<path d="M39.2217 47.4692C40.1747 47.7378 41.1468 47.7531 42.1232 47.5883C43.0994 47.4234 44.0268 47.0441 44.8379 46.4776C45.649 45.911 46.324 45.1713 46.8135 44.3122C47.3033 43.4531 47.5956 42.4961 47.6694 41.5101C47.774 40.3532 48.159 39.2721 48.7417 38.2671C49.3247 37.2623 50.1204 36.3967 51.073 35.7306C52.0258 35.0647 53.1127 34.6143 54.2579 34.4114C55.4033 34.2082 56.5791 34.257 57.7039 34.5546C59.047 34.9235 60.4424 34.831 61.7533 34.3619C63.0644 33.8929 64.1982 33.0314 65.0004 31.8949C65.8025 30.7585 66.234 29.4024 66.2358 28.0117C66.2377 26.621 65.8099 25.2634 65.0106 24.1239C64.2115 22.9845 63.0799 22.1188 61.7702 21.6449C60.4605 21.171 59.0366 21.1119 57.6924 21.4757C56.3483 21.8396 55.1497 22.6087 54.2597 23.678C53.3698 24.7474 52.8055 26.0248 52.6934 27.411C52.589 28.5679 52.233 29.688 51.6503 30.6931C51.0675 31.6981 50.2718 32.5639 49.3191 33.23C48.3663 33.8959 47.2792 34.3463 46.1339 34.5492C44.9884 34.7521 43.8389 34.7431 42.7142 34.4454C41.7612 34.1767 40.7602 34.1228 39.784 34.2877C38.8078 34.4523 37.8805 34.8318 37.0693 35.3984C36.2581 35.9649 35.5832 36.7046 35.0935 37.5637C34.6039 38.4228 34.2848 39.3415 34.2109 40.3275C34.106 41.4841 33.7495 42.6039 33.1666 43.6087C32.5836 44.6133 31.788 45.4789 30.8354 46.1448C29.8827 46.8107 28.796 47.2609 27.6508 47.4643C26.5057 47.6675 25.3298 47.6189 24.2052 47.3217C22.8621 46.9528 21.4648 47.0449 20.1538 47.514C18.8429 47.9831 17.709 48.8445 16.9068 49.981C16.1046 51.1175 15.6732 52.4735 15.6713 53.8642C15.6695 55.2549 16.0973 56.6126 16.8965 57.7519C17.6957 58.8915 18.8273 59.7571 20.137 60.231C21.4467 60.7049 22.8707 60.764 24.2148 60.4002C25.5589 60.0363 26.7576 59.2674 27.6475 58.198C28.5375 57.1285 29.1038 55.8496 29.2159 54.4635C29.3205 53.3066 29.6768 52.1868 30.2597 51.1818C30.8425 50.177 31.6382 49.3113 32.5908 48.6453C33.5436 47.9794 34.6305 47.529 35.7757 47.326C36.9211 47.1229 38.097 47.1716 39.2217 47.4692Z" fill="white"/>
<path d="M27.7164 41.6949C28.525 41.1262 29.1978 40.3861 29.6868 39.5276C30.1758 38.6692 30.4975 37.7519 30.5738 36.7671C30.6784 35.61 31.0347 34.4897 31.6179 33.4845C32.2011 32.4794 32.997 31.6137 33.9502 30.9477C34.9034 30.2817 35.9907 29.8316 37.1363 29.6288C38.282 29.426 39.4584 29.4754 40.5832 29.7735C41.9259 30.1419 43.3209 30.0493 44.6312 29.5802C45.9416 29.1111 47.0748 28.2497 47.8767 27.1136C48.6785 25.9775 49.1096 24.6219 49.1114 23.2317C49.1132 21.8415 48.6854 20.4843 47.8865 19.3453C47.0877 18.2063 45.9564 17.3409 44.6473 16.867C43.3381 16.3932 41.9146 16.3341 40.571 16.6976C39.2273 17.0612 38.029 17.8298 37.1393 18.8986C36.2495 19.9674 35.6848 21.2461 35.5724 22.6317C35.4679 23.7885 35.1115 24.9084 34.5286 25.9133C33.9457 26.9182 33.1502 27.7839 32.1975 28.4499C31.2447 29.1159 30.1578 29.5661 29.0126 29.7692C27.8673 29.9723 26.7182 29.9619 25.5935 29.6643C24.4957 29.3677 23.3407 29.3527 22.2358 29.6204C21.1308 29.8882 20.1116 30.4302 19.2725 31.1961C18.4334 31.9619 17.8017 32.9271 17.4358 34.0019C17.0698 35.0769 16.9816 36.2268 17.1793 37.345C17.3769 38.4634 17.8541 39.5138 18.5665 40.3993C19.2789 41.2848 20.2035 41.9765 21.2546 42.4104C22.3058 42.8441 23.4494 43.006 24.5796 42.8812C25.7098 42.7562 26.79 42.3484 27.72 41.6955L27.7164 41.6949Z" fill="white"/>
</svg>
