<svg width="82" height="82" viewBox="0 0 82 82" fill="none" xmlns="http://www.w3.org/2000/svg">
<path opacity="0.9" fill-rule="evenodd" clip-rule="evenodd" d="M52.7244 46.4538C57.2048 49.5911 63.38 48.5022 66.5172 44.0218C69.6543 39.5414 68.5654 33.3662 64.0852 30.2289C59.6048 27.0919 53.4296 28.1807 50.2923 32.661L44.6121 40.7735L52.7244 46.4538Z" fill="white"/>
<path opacity="0.8" fill-rule="evenodd" clip-rule="evenodd" d="M52.4693 64.084C55.6063 59.6036 54.5174 53.4284 50.0372 50.2912L41.9247 44.6109L36.2443 52.7232C33.1073 57.2036 34.1962 63.3788 38.6764 66.5161C43.1569 69.6533 49.332 68.5645 52.4693 64.084Z" fill="white"/>
<path opacity="0.7" fill-rule="evenodd" clip-rule="evenodd" d="M18.6128 52.4684C14.1325 49.3311 13.0437 43.156 16.1808 38.6755C19.3181 34.1953 25.4933 33.1065 29.9737 36.2435L38.0861 41.924L32.4057 50.0363C29.2685 54.5168 23.0933 55.6056 18.6128 52.4684Z" fill="white"/>
<path fill-rule="evenodd" clip-rule="evenodd" d="M46.4545 29.973C49.5915 25.4926 48.5026 19.3174 44.0224 16.1802C39.542 13.043 33.3668 14.1318 30.2295 18.6122C27.0925 23.0926 28.1814 29.2678 32.6616 32.4051L40.7739 38.0854L46.4545 29.973Z" fill="white"/>
</svg>
