<svg width="19" height="16" viewBox="0 0 19 16" fill="none" xmlns="http://www.w3.org/2000/svg">
<path d="M6.375 2.5C6.375 2.32741 6.23509 2.1875 6.0625 2.1875C5.02696 2.1875 4.1875 1.34804 4.1875 0.3125C4.1875 0.13991 4.04759 0 3.875 0C3.70241 0 3.5625 0.13991 3.5625 0.3125C3.5625 1.34804 2.72304 2.1875 1.6875 2.1875C1.51491 2.1875 1.375 2.32741 1.375 2.5C1.375 2.67259 1.51491 2.8125 1.6875 2.8125C2.72304 2.8125 3.5625 3.65196 3.5625 4.6875C3.5625 4.86009 3.70241 5 3.875 5C4.04759 5 4.1875 4.86009 4.1875 4.6875C4.1875 3.65196 5.02696 2.8125 6.0625 2.8125C6.23509 2.8125 6.375 2.67259 6.375 2.5Z" fill="url(#paint0_linear_34_18107)"/>
<path d="M6.375 2.5C6.375 2.32741 6.23509 2.1875 6.0625 2.1875C5.02696 2.1875 4.1875 1.34804 4.1875 0.3125C4.1875 0.13991 4.04759 0 3.875 0C3.70241 0 3.5625 0.13991 3.5625 0.3125C3.5625 1.34804 2.72304 2.1875 1.6875 2.1875C1.51491 2.1875 1.375 2.32741 1.375 2.5C1.375 2.67259 1.51491 2.8125 1.6875 2.8125C2.72304 2.8125 3.5625 3.65196 3.5625 4.6875C3.5625 4.86009 3.70241 5 3.875 5C4.04759 5 4.1875 4.86009 4.1875 4.6875C4.1875 3.65196 5.02696 2.8125 6.0625 2.8125C6.23509 2.8125 6.375 2.67259 6.375 2.5Z" fill="white" fill-opacity="0.4"/>
<path d="M6.375 2.5C6.375 2.32741 6.23509 2.1875 6.0625 2.1875C5.02696 2.1875 4.1875 1.34804 4.1875 0.3125C4.1875 0.13991 4.04759 0 3.875 0C3.70241 0 3.5625 0.13991 3.5625 0.3125C3.5625 1.34804 2.72304 2.1875 1.6875 2.1875C1.51491 2.1875 1.375 2.32741 1.375 2.5C1.375 2.67259 1.51491 2.8125 1.6875 2.8125C2.72304 2.8125 3.5625 3.65196 3.5625 4.6875C3.5625 4.86009 3.70241 5 3.875 5C4.04759 5 4.1875 4.86009 4.1875 4.6875C4.1875 3.65196 5.02696 2.8125 6.0625 2.8125C6.23509 2.8125 6.375 2.67259 6.375 2.5Z" fill="url(#paint1_linear_34_18107)"/>
<path d="M6.375 2.5C6.375 2.32741 6.23509 2.1875 6.0625 2.1875C5.02696 2.1875 4.1875 1.34804 4.1875 0.3125C4.1875 0.13991 4.04759 0 3.875 0C3.70241 0 3.5625 0.13991 3.5625 0.3125C3.5625 1.34804 2.72304 2.1875 1.6875 2.1875C1.51491 2.1875 1.375 2.32741 1.375 2.5C1.375 2.67259 1.51491 2.8125 1.6875 2.8125C2.72304 2.8125 3.5625 3.65196 3.5625 4.6875C3.5625 4.86009 3.70241 5 3.875 5C4.04759 5 4.1875 4.86009 4.1875 4.6875C4.1875 3.65196 5.02696 2.8125 6.0625 2.8125C6.23509 2.8125 6.375 2.67259 6.375 2.5Z" fill="white" fill-opacity="0.4"/>
<path d="M13.875 2C13.875 1.72386 13.6511 1.5 13.375 1.5C13.0989 1.5 12.875 1.72386 12.875 2C12.875 4.48488 10.8602 6.5 8.375 6.5C8.0989 6.5 7.875 6.7239 7.875 7C7.875 7.2761 8.0989 7.5 8.375 7.5C10.8603 7.5 12.875 9.5142 12.875 12C12.875 12.2761 13.0989 12.5 13.375 12.5C13.6511 12.5 13.875 12.2761 13.875 12C13.875 9.5141 15.8891 7.5 18.375 7.5C18.6511 7.5 18.875 7.2761 18.875 7C18.875 6.7239 18.6511 6.5 18.375 6.5C15.8892 6.5 13.875 4.48492 13.875 2Z" fill="url(#paint2_linear_34_18107)"/>
<path d="M13.875 2C13.875 1.72386 13.6511 1.5 13.375 1.5C13.0989 1.5 12.875 1.72386 12.875 2C12.875 4.48488 10.8602 6.5 8.375 6.5C8.0989 6.5 7.875 6.7239 7.875 7C7.875 7.2761 8.0989 7.5 8.375 7.5C10.8603 7.5 12.875 9.5142 12.875 12C12.875 12.2761 13.0989 12.5 13.375 12.5C13.6511 12.5 13.875 12.2761 13.875 12C13.875 9.5141 15.8891 7.5 18.375 7.5C18.6511 7.5 18.875 7.2761 18.875 7C18.875 6.7239 18.6511 6.5 18.375 6.5C15.8892 6.5 13.875 4.48492 13.875 2Z" fill="white" fill-opacity="0.4"/>
<path d="M13.875 2C13.875 1.72386 13.6511 1.5 13.375 1.5C13.0989 1.5 12.875 1.72386 12.875 2C12.875 4.48488 10.8602 6.5 8.375 6.5C8.0989 6.5 7.875 6.7239 7.875 7C7.875 7.2761 8.0989 7.5 8.375 7.5C10.8603 7.5 12.875 9.5142 12.875 12C12.875 12.2761 13.0989 12.5 13.375 12.5C13.6511 12.5 13.875 12.2761 13.875 12C13.875 9.5141 15.8891 7.5 18.375 7.5C18.6511 7.5 18.875 7.2761 18.875 7C18.875 6.7239 18.6511 6.5 18.375 6.5C15.8892 6.5 13.875 4.48492 13.875 2Z" fill="url(#paint3_linear_34_18107)"/>
<path d="M13.875 2C13.875 1.72386 13.6511 1.5 13.375 1.5C13.0989 1.5 12.875 1.72386 12.875 2C12.875 4.48488 10.8602 6.5 8.375 6.5C8.0989 6.5 7.875 6.7239 7.875 7C7.875 7.2761 8.0989 7.5 8.375 7.5C10.8603 7.5 12.875 9.5142 12.875 12C12.875 12.2761 13.0989 12.5 13.375 12.5C13.6511 12.5 13.875 12.2761 13.875 12C13.875 9.5141 15.8891 7.5 18.375 7.5C18.6511 7.5 18.875 7.2761 18.875 7C18.875 6.7239 18.6511 6.5 18.375 6.5C15.8892 6.5 13.875 4.48492 13.875 2Z" fill="white" fill-opacity="0.4"/>
<path d="M4.875 8.5C4.875 8.2239 4.65114 8 4.375 8C4.09886 8 3.875 8.2239 3.875 8.5C3.875 10.1569 2.53186 11.5 0.875 11.5C0.59886 11.5 0.375 11.7239 0.375 12C0.375 12.2761 0.59886 12.5 0.875 12.5C2.53186 12.5 3.875 13.8431 3.875 15.5C3.875 15.7761 4.09886 16 4.375 16C4.65114 16 4.875 15.7761 4.875 15.5C4.875 13.8431 6.21814 12.5 7.875 12.5C8.1511 12.5 8.375 12.2761 8.375 12C8.375 11.7239 8.1511 11.5 7.875 11.5C6.21814 11.5 4.875 10.1569 4.875 8.5Z" fill="url(#paint4_linear_34_18107)"/>
<path d="M4.875 8.5C4.875 8.2239 4.65114 8 4.375 8C4.09886 8 3.875 8.2239 3.875 8.5C3.875 10.1569 2.53186 11.5 0.875 11.5C0.59886 11.5 0.375 11.7239 0.375 12C0.375 12.2761 0.59886 12.5 0.875 12.5C2.53186 12.5 3.875 13.8431 3.875 15.5C3.875 15.7761 4.09886 16 4.375 16C4.65114 16 4.875 15.7761 4.875 15.5C4.875 13.8431 6.21814 12.5 7.875 12.5C8.1511 12.5 8.375 12.2761 8.375 12C8.375 11.7239 8.1511 11.5 7.875 11.5C6.21814 11.5 4.875 10.1569 4.875 8.5Z" fill="white" fill-opacity="0.4"/>
<path d="M4.875 8.5C4.875 8.2239 4.65114 8 4.375 8C4.09886 8 3.875 8.2239 3.875 8.5C3.875 10.1569 2.53186 11.5 0.875 11.5C0.59886 11.5 0.375 11.7239 0.375 12C0.375 12.2761 0.59886 12.5 0.875 12.5C2.53186 12.5 3.875 13.8431 3.875 15.5C3.875 15.7761 4.09886 16 4.375 16C4.65114 16 4.875 15.7761 4.875 15.5C4.875 13.8431 6.21814 12.5 7.875 12.5C8.1511 12.5 8.375 12.2761 8.375 12C8.375 11.7239 8.1511 11.5 7.875 11.5C6.21814 11.5 4.875 10.1569 4.875 8.5Z" fill="url(#paint5_linear_34_18107)"/>
<path d="M4.875 8.5C4.875 8.2239 4.65114 8 4.375 8C4.09886 8 3.875 8.2239 3.875 8.5C3.875 10.1569 2.53186 11.5 0.875 11.5C0.59886 11.5 0.375 11.7239 0.375 12C0.375 12.2761 0.59886 12.5 0.875 12.5C2.53186 12.5 3.875 13.8431 3.875 15.5C3.875 15.7761 4.09886 16 4.375 16C4.65114 16 4.875 15.7761 4.875 15.5C4.875 13.8431 6.21814 12.5 7.875 12.5C8.1511 12.5 8.375 12.2761 8.375 12C8.375 11.7239 8.1511 11.5 7.875 11.5C6.21814 11.5 4.875 10.1569 4.875 8.5Z" fill="white" fill-opacity="0.4"/>
<defs>
<linearGradient id="paint0_linear_34_18107" x1="0.375" y1="0" x2="18.8757" y2="0.000849094" gradientUnits="userSpaceOnUse">
<stop offset="0.0001" stop-color="#9CA6FF"/>
</linearGradient>
<linearGradient id="paint1_linear_34_18107" x1="0.375" y1="0" x2="18.8757" y2="0.000849094" gradientUnits="userSpaceOnUse">
<stop offset="0.0001" stop-color="#9CA6FF"/>
</linearGradient>
<linearGradient id="paint2_linear_34_18107" x1="0.375" y1="0" x2="18.8757" y2="0.000849094" gradientUnits="userSpaceOnUse">
<stop offset="0.0001" stop-color="#9CA6FF"/>
</linearGradient>
<linearGradient id="paint3_linear_34_18107" x1="0.375" y1="0" x2="18.8757" y2="0.000849094" gradientUnits="userSpaceOnUse">
<stop offset="0.0001" stop-color="#9CA6FF"/>
</linearGradient>
<linearGradient id="paint4_linear_34_18107" x1="0.375" y1="0" x2="18.8757" y2="0.000849094" gradientUnits="userSpaceOnUse">
<stop offset="0.0001" stop-color="#9CA6FF"/>
</linearGradient>
<linearGradient id="paint5_linear_34_18107" x1="0.375" y1="0" x2="18.8757" y2="0.000849094" gradientUnits="userSpaceOnUse">
<stop offset="0.0001" stop-color="#9CA6FF"/>
</linearGradient>
</defs>
</svg>
