<svg width="350" height="300" viewBox="0 0 350 300" fill="none" xmlns="http://www.w3.org/2000/svg">
<g clip-path="url(#clip0_34_17682)">
<rect width="350" height="336" rx="20" fill="url(#paint0_linear_34_17682)"/>
<g style="mix-blend-mode:exclusion" filter="url(#filter0_f_34_17682)">
<path d="M350 376.893V102.116C337.008 114.458 308.708 142.965 299.443 158.254C287.861 177.365 285.301 293.485 206.584 317.528C127.867 341.571 123.552 298.162 91.6404 250.235C66.1109 211.893 19.9095 135.513 0 102.116V380.401C0.77951 396.381 12.0824 406.514 20.657 408.853C29.2316 411.191 33.1292 410.802 63.9198 410.802H314.143C330.122 410.802 334.643 407.824 340.646 401.837C347.254 395.247 350.613 386.084 350 376.893Z" fill="url(#paint1_linear_34_17682)"/>
</g>
<g filter="url(#filter1_f_34_17682)">
<ellipse cx="323.064" cy="17.6451" rx="47.5501" ry="21.8263" transform="rotate(-8.4259 323.064 17.6451)" fill="white" fill-opacity="0.1"/>
</g>
<g filter="url(#filter2_f_34_17682)">
<ellipse cx="149.888" cy="5.09626" rx="53.2012" ry="24.4202" transform="rotate(-45.2788 149.888 5.09626)" fill="white" fill-opacity="0.15"/>
</g>
<path d="M345.145 43.8191V98.4655" stroke="#13202F" stroke-width="0.77951" stroke-linecap="round"/>
<rect x="177.728" y="144.989" width="0.77951" height="0.77951" fill="#D9D9D9"/>
<rect x="58.4634" y="97.4387" width="0.77951" height="0.77951" fill="#D9D9D9"/>
<rect x="182.406" y="197.216" width="0.77951" height="0.77951" fill="#D9D9D9"/>
<rect x="122.383" y="137.194" width="0.77951" height="0.77951" fill="#D9D9D9"/>
<rect x="84.9668" y="234.633" width="0.77951" height="0.77951" fill="#D9D9D9"/>
<rect x="28.8418" y="31.96" width="1.55902" height="1.55902" fill="#D9D9D9"/>
<rect x="162.917" y="23.3853" width="1.55902" height="1.55902" fill="#D9D9D9"/>
<rect x="277.505" y="45.991" width="1.55902" height="1.55902" fill="#D9D9D9"/>
<rect x="266.592" y="106.793" width="1.55902" height="1.55902" fill="#D9D9D9"/>
<rect x="247.105" y="293.096" width="1.55902" height="1.55902" fill="#D9D9D9"/>
<rect x="307.127" y="87.3052" width="1.55902" height="1.55902" fill="#D9D9D9"/>
<rect x="300.111" y="153.563" width="1.55902" height="1.55902" fill="#D9D9D9"/>
<path d="M27.1588 213.238C26.6391 213.238 26.1711 213.134 25.7548 212.928C25.3385 212.721 25.0048 212.438 24.7538 212.077C24.5028 211.717 24.3655 211.307 24.3419 210.846H25.4049C25.4462 211.257 25.6323 211.596 25.963 211.865C26.2966 212.131 26.6952 212.263 27.1588 212.263C27.5308 212.263 27.8615 212.176 28.1509 212.002C28.4432 211.828 28.672 211.589 28.8374 211.285C29.0057 210.977 29.0899 210.631 29.0899 210.244C29.0899 209.848 29.0027 209.495 28.8285 209.185C28.6573 208.872 28.4211 208.626 28.1199 208.446C27.8187 208.265 27.4747 208.174 27.0879 208.171C26.8104 208.168 26.5254 208.211 26.2331 208.299C25.9408 208.385 25.7002 208.496 25.5112 208.632L24.4837 208.508L25.0329 204.043H29.7453V205.017H25.9541L25.6352 207.693H25.6884C25.8744 207.545 26.1076 207.422 26.3881 207.325C26.6686 207.228 26.961 207.179 27.2651 207.179C27.8202 207.179 28.3148 207.312 28.7488 207.577C29.1858 207.84 29.5283 208.2 29.7764 208.658C30.0273 209.116 30.1528 209.638 30.1528 210.226C30.1528 210.805 30.0229 211.321 29.7631 211.776C29.5062 212.228 29.1519 212.585 28.7001 212.848C28.2483 213.108 27.7346 213.238 27.1588 213.238ZM31.8364 206.311L33.4663 209.092L35.0962 206.311H36.3009L34.1041 209.712L36.3009 213.114H35.0962L33.4663 210.474L31.8364 213.114H30.6317L32.7931 209.712L30.6317 206.311H31.8364Z" fill="white"/>
<path d="M72.7245 204.043V213.114H71.6261V205.195H71.573L69.3585 206.665V205.549L71.6261 204.043H72.7245ZM77.4188 213.238C76.7515 213.238 76.1831 213.056 75.7136 212.693C75.2441 212.327 74.8854 211.797 74.6374 211.103C74.3893 210.406 74.2653 209.565 74.2653 208.578C74.2653 207.598 74.3893 206.761 74.6374 206.067C74.8883 205.37 75.2486 204.839 75.718 204.473C76.1905 204.104 76.7574 203.919 77.4188 203.919C78.0802 203.919 78.6456 204.104 79.1151 204.473C79.5875 204.839 79.9478 205.37 80.1958 206.067C80.4468 206.761 80.5723 207.598 80.5723 208.578C80.5723 209.565 80.4482 210.406 80.2002 211.103C79.9522 211.797 79.5934 212.327 79.124 212.693C78.6545 213.056 78.0861 213.238 77.4188 213.238ZM77.4188 212.263C78.0802 212.263 78.594 211.945 78.9601 211.307C79.3262 210.669 79.5093 209.76 79.5093 208.578C79.5093 207.793 79.4251 207.124 79.2568 206.572C79.0915 206.02 78.8523 205.599 78.5393 205.31C78.2293 205.02 77.8558 204.876 77.4188 204.876C76.7633 204.876 76.251 205.199 75.8819 205.846C75.5128 206.489 75.3283 207.4 75.3283 208.578C75.3283 209.364 75.411 210.031 75.5763 210.58C75.7417 211.13 75.9793 211.547 76.2894 211.834C76.6024 212.12 76.9788 212.263 77.4188 212.263ZM82.1795 206.311L83.8094 209.092L85.4392 206.311H86.6439L84.4471 209.712L86.6439 213.114H85.4392L83.8094 210.474L82.1795 213.114H80.9748L83.1361 209.712L80.9748 206.311H82.1795Z" fill="white"/>
<path d="M127.29 204.043V213.114H126.192V205.195H126.139L123.924 206.665V205.549L126.192 204.043H127.29ZM131.861 213.238C131.341 213.238 130.873 213.134 130.457 212.928C130.04 212.721 129.707 212.438 129.456 212.077C129.205 211.717 129.067 211.307 129.044 210.846H130.107C130.148 211.257 130.334 211.596 130.665 211.865C130.999 212.131 131.397 212.263 131.861 212.263C132.233 212.263 132.563 212.176 132.853 212.002C133.145 211.828 133.374 211.589 133.539 211.285C133.708 210.977 133.792 210.631 133.792 210.244C133.792 209.848 133.705 209.495 133.53 209.185C133.359 208.872 133.123 208.626 132.822 208.446C132.521 208.265 132.177 208.174 131.79 208.171C131.512 208.168 131.227 208.211 130.935 208.299C130.643 208.385 130.402 208.496 130.213 208.632L129.186 208.508L129.735 204.043H134.447V205.017H130.656L130.337 207.693H130.39C130.576 207.545 130.81 207.422 131.09 207.325C131.371 207.228 131.663 207.179 131.967 207.179C132.522 207.179 133.017 207.312 133.451 207.577C133.888 207.84 134.23 208.2 134.478 208.658C134.729 209.116 134.855 209.638 134.855 210.226C134.855 210.805 134.725 211.321 134.465 211.776C134.208 212.228 133.854 212.585 133.402 212.848C132.95 213.108 132.436 213.238 131.861 213.238ZM136.538 206.311L138.168 209.092L139.798 206.311H141.003L138.806 209.712L141.003 213.114H139.798L138.168 210.474L136.538 213.114H135.334L137.495 209.712L135.334 206.311H136.538Z" fill="white"/>
<path d="M170.092 213.114V212.317L173.086 209.039C173.438 208.655 173.727 208.322 173.954 208.038C174.182 207.752 174.35 207.483 174.459 207.232C174.572 206.978 174.628 206.712 174.628 206.435C174.628 206.116 174.551 205.84 174.397 205.607C174.247 205.373 174.04 205.193 173.777 205.066C173.514 204.939 173.219 204.876 172.891 204.876C172.543 204.876 172.239 204.948 171.979 205.093C171.722 205.235 171.523 205.434 171.381 205.691C171.242 205.948 171.173 206.249 171.173 206.594H170.128C170.128 206.063 170.25 205.596 170.495 205.195C170.74 204.793 171.074 204.48 171.496 204.256C171.921 204.031 172.398 203.919 172.927 203.919C173.458 203.919 173.929 204.031 174.34 204.256C174.75 204.48 175.072 204.783 175.305 205.164C175.539 205.545 175.655 205.968 175.655 206.435C175.655 206.768 175.595 207.095 175.474 207.414C175.355 207.73 175.149 208.082 174.853 208.472C174.561 208.859 174.155 209.331 173.636 209.889L171.598 212.069V212.139H175.815V213.114H170.092ZM179.729 213.238C179.062 213.238 178.494 213.056 178.024 212.693C177.555 212.327 177.196 211.797 176.948 211.103C176.7 210.406 176.576 209.565 176.576 208.578C176.576 207.598 176.7 206.761 176.948 206.067C177.199 205.37 177.559 204.839 178.029 204.473C178.501 204.104 179.068 203.919 179.729 203.919C180.391 203.919 180.956 204.104 181.426 204.473C181.898 204.839 182.258 205.37 182.506 206.067C182.757 206.761 182.883 207.598 182.883 208.578C182.883 209.565 182.759 210.406 182.511 211.103C182.263 211.797 181.904 212.327 181.435 212.693C180.965 213.056 180.397 213.238 179.729 213.238ZM179.729 212.263C180.391 212.263 180.904 211.945 181.271 211.307C181.637 210.669 181.82 209.76 181.82 208.578C181.82 207.793 181.736 207.124 181.567 206.572C181.402 206.02 181.163 205.599 180.85 205.31C180.54 205.02 180.166 204.876 179.729 204.876C179.074 204.876 178.562 205.199 178.192 205.846C177.823 206.489 177.639 207.4 177.639 208.578C177.639 209.364 177.721 210.031 177.887 210.58C178.052 211.13 178.29 211.547 178.6 211.834C178.913 212.12 179.289 212.263 179.729 212.263ZM184.49 206.311L186.12 209.092L187.75 206.311H188.954L186.758 209.712L188.954 213.114H187.75L186.12 210.474L184.49 213.114H183.285L185.447 209.712L183.285 206.311H184.49Z" fill="white"/>
<path d="M218.422 213.114V212.317L221.416 209.039C221.767 208.655 222.057 208.322 222.284 208.038C222.511 207.752 222.68 207.483 222.789 207.232C222.901 206.978 222.957 206.712 222.957 206.435C222.957 206.116 222.88 205.84 222.727 205.607C222.576 205.373 222.37 205.193 222.107 205.066C221.844 204.939 221.549 204.876 221.221 204.876C220.873 204.876 220.568 204.948 220.309 205.093C220.052 205.235 219.852 205.434 219.711 205.691C219.572 205.948 219.503 206.249 219.503 206.594H218.457C218.457 206.063 218.58 205.596 218.825 205.195C219.07 204.793 219.404 204.48 219.826 204.256C220.251 204.031 220.728 203.919 221.256 203.919C221.788 203.919 222.259 204.031 222.669 204.256C223.08 204.48 223.402 204.783 223.635 205.164C223.868 205.545 223.985 205.968 223.985 206.435C223.985 206.768 223.924 207.095 223.803 207.414C223.685 207.73 223.478 208.082 223.183 208.472C222.891 208.859 222.485 209.331 221.965 209.889L219.928 212.069V212.139H224.144V213.114H218.422ZM227.935 213.238C227.415 213.238 226.947 213.134 226.531 212.928C226.115 212.721 225.781 212.438 225.53 212.077C225.279 211.717 225.142 211.307 225.118 210.846H226.181C226.222 211.257 226.408 211.596 226.739 211.865C227.073 212.131 227.471 212.263 227.935 212.263C228.307 212.263 228.638 212.176 228.927 212.002C229.219 211.828 229.448 211.589 229.614 211.285C229.782 210.977 229.866 210.631 229.866 210.244C229.866 209.848 229.779 209.495 229.605 209.185C229.433 208.872 229.197 208.626 228.896 208.446C228.595 208.265 228.251 208.174 227.864 208.171C227.586 208.168 227.302 208.211 227.009 208.299C226.717 208.385 226.476 208.496 226.287 208.632L225.26 208.508L225.809 204.043H230.521V205.017H226.73L226.411 207.693H226.464C226.65 207.545 226.884 207.422 227.164 207.325C227.445 207.228 227.737 207.179 228.041 207.179C228.596 207.179 229.091 207.312 229.525 207.577C229.962 207.84 230.304 208.2 230.552 208.658C230.803 209.116 230.929 209.638 230.929 210.226C230.929 210.805 230.799 211.321 230.539 211.776C230.282 212.228 229.928 212.585 229.476 212.848C229.024 213.108 228.511 213.238 227.935 213.238ZM232.613 206.311L234.242 209.092L235.872 206.311H237.077L234.88 209.712L237.077 213.114H235.872L234.242 210.474L232.613 213.114H231.408L233.569 209.712L231.408 206.311H232.613Z" fill="white"/>
<path d="M265.919 213.238C265.335 213.238 264.814 213.137 264.356 212.937C263.901 212.736 263.54 212.457 263.271 212.1C263.005 211.739 262.86 211.321 262.837 210.846H263.953C263.977 211.138 264.077 211.391 264.254 211.603C264.431 211.813 264.663 211.976 264.949 212.091C265.236 212.206 265.553 212.263 265.902 212.263C266.291 212.263 266.637 212.195 266.938 212.06C267.239 211.924 267.475 211.735 267.647 211.493C267.818 211.251 267.904 210.97 267.904 210.651C267.904 210.318 267.821 210.024 267.656 209.77C267.49 209.513 267.248 209.312 266.929 209.167C266.61 209.023 266.221 208.95 265.76 208.95H265.034V207.976H265.76C266.12 207.976 266.436 207.911 266.708 207.781C266.982 207.651 267.196 207.468 267.35 207.232C267.506 206.996 267.585 206.718 267.585 206.399C267.585 206.092 267.517 205.825 267.381 205.598C267.245 205.37 267.053 205.193 266.805 205.066C266.56 204.939 266.271 204.876 265.937 204.876C265.624 204.876 265.329 204.933 265.051 205.048C264.777 205.161 264.552 205.325 264.378 205.54C264.204 205.753 264.109 206.01 264.095 206.311H263.032C263.049 205.835 263.193 205.419 263.461 205.062C263.73 204.702 264.081 204.421 264.515 204.22C264.952 204.019 265.432 203.919 265.955 203.919C266.516 203.919 266.997 204.033 267.399 204.26C267.8 204.485 268.109 204.781 268.324 205.15C268.54 205.519 268.648 205.918 268.648 206.346C268.648 206.857 268.513 207.293 268.245 207.653C267.979 208.013 267.617 208.263 267.16 208.401V208.472C267.732 208.567 268.18 208.81 268.502 209.203C268.823 209.593 268.984 210.075 268.984 210.651C268.984 211.144 268.85 211.587 268.581 211.98C268.315 212.37 267.952 212.677 267.492 212.901C267.031 213.126 266.507 213.238 265.919 213.238ZM272.881 213.238C272.214 213.238 271.646 213.056 271.176 212.693C270.707 212.327 270.348 211.797 270.1 211.103C269.852 210.406 269.728 209.565 269.728 208.578C269.728 207.598 269.852 206.761 270.1 206.067C270.351 205.37 270.711 204.839 271.181 204.473C271.653 204.104 272.22 203.919 272.881 203.919C273.543 203.919 274.108 204.104 274.578 204.473C275.05 204.839 275.41 205.37 275.658 206.067C275.909 206.761 276.035 207.598 276.035 208.578C276.035 209.565 275.911 210.406 275.663 211.103C275.415 211.797 275.056 212.327 274.586 212.693C274.117 213.056 273.549 213.238 272.881 213.238ZM272.881 212.263C273.543 212.263 274.056 211.945 274.423 211.307C274.789 210.669 274.972 209.76 274.972 208.578C274.972 207.793 274.888 207.124 274.719 206.572C274.554 206.02 274.315 205.599 274.002 205.31C273.692 205.02 273.318 204.876 272.881 204.876C272.226 204.876 271.713 205.199 271.344 205.846C270.975 206.489 270.791 207.4 270.791 208.578C270.791 209.364 270.873 210.031 271.039 210.58C271.204 211.13 271.442 211.547 271.752 211.834C272.065 212.12 272.441 212.263 272.881 212.263ZM277.642 206.311L279.272 209.092L280.902 206.311H282.106L279.91 209.712L282.106 213.114H280.902L279.272 210.474L277.642 213.114H276.437L278.599 209.712L276.437 206.311H277.642Z" fill="white"/>
<path d="M313.47 213.238C312.885 213.238 312.364 213.137 311.906 212.937C311.452 212.736 311.09 212.457 310.821 212.1C310.555 211.739 310.411 211.321 310.387 210.846H311.503C311.527 211.138 311.627 211.391 311.804 211.603C311.982 211.813 312.213 211.976 312.5 212.091C312.786 212.206 313.104 212.263 313.452 212.263C313.842 212.263 314.187 212.195 314.488 212.06C314.79 211.924 315.026 211.735 315.197 211.493C315.368 211.251 315.454 210.97 315.454 210.651C315.454 210.318 315.371 210.024 315.206 209.77C315.04 209.513 314.798 209.312 314.479 209.167C314.161 209.023 313.771 208.95 313.31 208.95H312.584V207.976H313.31C313.67 207.976 313.986 207.911 314.258 207.781C314.533 207.651 314.747 207.468 314.9 207.232C315.057 206.996 315.135 206.718 315.135 206.399C315.135 206.092 315.067 205.825 314.931 205.598C314.795 205.37 314.604 205.193 314.355 205.066C314.11 204.939 313.821 204.876 313.487 204.876C313.174 204.876 312.879 204.933 312.602 205.048C312.327 205.161 312.103 205.325 311.928 205.54C311.754 205.753 311.66 206.01 311.645 206.311H310.582C310.6 205.835 310.743 205.419 311.012 205.062C311.28 204.702 311.632 204.421 312.066 204.22C312.503 204.019 312.982 203.919 313.505 203.919C314.066 203.919 314.547 204.033 314.949 204.26C315.351 204.485 315.659 204.781 315.875 205.15C316.09 205.519 316.198 205.918 316.198 206.346C316.198 206.857 316.064 207.293 315.795 207.653C315.529 208.013 315.167 208.263 314.71 208.401V208.472C315.283 208.567 315.73 208.81 316.052 209.203C316.374 209.593 316.535 210.075 316.535 210.651C316.535 211.144 316.4 211.587 316.132 211.98C315.866 212.37 315.503 212.677 315.042 212.901C314.581 213.126 314.057 213.238 313.47 213.238ZM320.308 213.238C319.788 213.238 319.32 213.134 318.904 212.928C318.487 212.721 318.154 212.438 317.903 212.077C317.652 211.717 317.514 211.307 317.491 210.846H318.554C318.595 211.257 318.781 211.596 319.112 211.865C319.445 212.131 319.844 212.263 320.308 212.263C320.68 212.263 321.01 212.176 321.3 212.002C321.592 211.828 321.821 211.589 321.986 211.285C322.154 210.977 322.239 210.631 322.239 210.244C322.239 209.848 322.152 209.495 321.977 209.185C321.806 208.872 321.57 208.626 321.269 208.446C320.967 208.265 320.624 208.174 320.237 208.171C319.959 208.168 319.674 208.211 319.382 208.299C319.09 208.385 318.849 208.496 318.66 208.632L317.632 208.508L318.182 204.043H322.894V205.017H319.103L318.784 207.693H318.837C319.023 207.545 319.256 207.422 319.537 207.325C319.817 207.228 320.11 207.179 320.414 207.179C320.969 207.179 321.464 207.312 321.898 207.577C322.335 207.84 322.677 208.2 322.925 208.658C323.176 209.116 323.302 209.638 323.302 210.226C323.302 210.805 323.172 211.321 322.912 211.776C322.655 212.228 322.301 212.585 321.849 212.848C321.397 213.108 320.883 213.238 320.308 213.238ZM324.985 206.311L326.615 209.092L328.245 206.311H329.45L327.253 209.712L329.45 213.114H328.245L326.615 210.474L324.985 213.114H323.781L325.942 209.712L323.781 206.311H324.985Z" fill="white"/>
<path d="M226.876 174.221C227.091 174.221 227.266 174.046 227.266 173.831C227.266 173.616 227.091 173.441 226.876 173.441V173.831V174.221ZM19.4873 173.831V174.221H226.876V173.831V173.441H19.4873V173.831Z" fill="#E7F0FA"/>
<path d="M330.248 173.441C330.463 173.441 330.638 173.267 330.638 173.051C330.638 172.836 330.463 172.662 330.248 172.662V173.051V173.441ZM222.94 173.051V173.441H330.248V173.051V172.662H222.94V173.051Z" fill="#414F5E"/>
<path d="M30.4014 153.564V193.68" stroke="url(#paint2_linear_34_17682)" stroke-width="0.77951" stroke-linecap="round"/>
<path d="M37.4165 157.461V190.201" stroke="url(#paint3_linear_34_17682)" stroke-width="0.77951" stroke-linecap="round"/>
<path d="M45.2119 151.225V194.878" stroke="url(#paint4_linear_34_17682)" stroke-width="0.77951" stroke-linecap="round"/>
<path d="M62.3608 151.225V194.878" stroke="url(#paint5_linear_34_17682)" stroke-width="0.77951" stroke-linecap="round"/>
<path d="M93.541 159.02V187.083" stroke="url(#paint6_linear_34_17682)" stroke-width="0.77951" stroke-linecap="round"/>
<path d="M108.352 159.02V187.083" stroke="url(#paint7_linear_34_17682)" stroke-width="0.77951" stroke-linecap="round"/>
<path d="M123.942 159.02V187.083" stroke="url(#paint8_linear_34_17682)" stroke-width="0.77951" stroke-linecap="round"/>
<path d="M147.328 159.02V187.083" stroke="url(#paint9_linear_34_17682)" stroke-width="0.77951" stroke-linecap="round"/>
<path d="M162.917 159.02V187.083" stroke="url(#paint10_linear_34_17682)" stroke-width="0.77951" stroke-linecap="round"/>
<path d="M194.878 159.02V187.083" stroke="url(#paint11_linear_34_17682)" stroke-width="0.77951" stroke-linecap="round"/>
<path d="M210.468 159.02V187.083" stroke="url(#paint12_linear_34_17682)" stroke-width="0.77951" stroke-linecap="round"/>
<path d="M240.869 159.02V187.083" stroke="url(#paint13_linear_34_17682)" stroke-width="0.77951" stroke-linecap="round"/>
<path d="M257.238 159.02V187.083" stroke="url(#paint14_linear_34_17682)" stroke-width="0.77951" stroke-linecap="round"/>
<path d="M289.198 159.02V187.083" stroke="url(#paint15_linear_34_17682)" stroke-width="0.77951" stroke-linecap="round"/>
<path d="M304.009 159.02V187.083" stroke="url(#paint16_linear_34_17682)" stroke-width="0.77951" stroke-linecap="round"/>
<path d="M53.0063 157.461V190.201" stroke="url(#paint17_linear_34_17682)" stroke-width="0.77951" stroke-linecap="round"/>
<path d="M69.376 157.461V190.201" stroke="url(#paint18_linear_34_17682)" stroke-width="0.77951" stroke-linecap="round"/>
<path d="M84.9668 157.461V190.201" stroke="url(#paint19_linear_34_17682)" stroke-width="0.77951" stroke-linecap="round"/>
<path d="M100.557 157.461V190.201" stroke="url(#paint20_linear_34_17682)" stroke-width="0.77951" stroke-linecap="round"/>
<path d="M116.147 157.461V190.201" stroke="url(#paint21_linear_34_17682)" stroke-width="0.77951" stroke-linecap="round"/>
<path d="M139.532 157.461V190.201" stroke="url(#paint22_linear_34_17682)" stroke-width="0.77951" stroke-linecap="round"/>
<path d="M155.122 156.682V189.421" stroke="url(#paint23_linear_34_17682)" stroke-width="0.77951" stroke-linecap="round"/>
<path d="M170.713 156.682V189.421" stroke="url(#paint24_linear_34_17682)" stroke-width="0.77951" stroke-linecap="round"/>
<path d="M186.303 156.682V189.421" stroke="url(#paint25_linear_34_17682)" stroke-width="0.77951" stroke-linecap="round"/>
<path d="M203.452 157.461V190.201" stroke="url(#paint26_linear_34_17682)" stroke-width="0.77951" stroke-linecap="round"/>
<path d="M217.483 157.461V190.201" stroke="url(#paint27_linear_34_17682)" stroke-width="0.77951" stroke-linecap="round"/>
<path d="M233.074 157.461V190.201" stroke="url(#paint28_linear_34_17682)" stroke-width="0.77951" stroke-linecap="round"/>
<path d="M249.443 157.461V190.201" stroke="url(#paint29_linear_34_17682)" stroke-width="0.77951" stroke-linecap="round"/>
<path d="M265.033 156.682V189.421" stroke="url(#paint30_linear_34_17682)" stroke-width="0.77951" stroke-linecap="round"/>
<path d="M279.844 156.682V189.421" stroke="url(#paint31_linear_34_17682)" stroke-width="0.77951" stroke-linecap="round"/>
<path d="M296.214 156.682V189.421" stroke="url(#paint32_linear_34_17682)" stroke-width="0.77951" stroke-linecap="round"/>
<path d="M311.804 156.682V189.421" stroke="url(#paint33_linear_34_17682)" stroke-width="0.77951" stroke-linecap="round"/>
<path d="M77.9507 153.564V193.68" stroke="url(#paint34_linear_34_17682)" stroke-width="0.77951" stroke-linecap="round"/>
<path d="M132.517 153.564V193.68" stroke="url(#paint35_linear_34_17682)" stroke-width="0.77951" stroke-linecap="round"/>
<path d="M180.066 153.564V193.68" stroke="url(#paint36_linear_34_17682)" stroke-width="0.77951" stroke-linecap="round"/>
<path d="M225.278 153.564V193.68" stroke="url(#paint37_linear_34_17682)" stroke-width="0.77951" stroke-linecap="round"/>
<path d="M272.829 153.564V193.68" stroke="url(#paint38_linear_34_17682)" stroke-width="0.77951" stroke-linecap="round"/>
<path d="M320.379 153.564V193.68" stroke="url(#paint39_linear_34_17682)" stroke-width="0.77951" stroke-linecap="round"/>
<circle cx="225.279" cy="173.051" r="5.45657" fill="#A4BBD6"/>
<path d="M225.278 166.036C229.153 166.036 232.294 169.177 232.294 173.052C232.294 176.926 229.153 180.067 225.278 180.067C221.404 180.067 218.263 176.926 218.263 173.052C218.263 169.177 221.404 166.036 225.278 166.036ZM225.278 166.815C221.834 166.815 219.042 169.607 219.042 173.052C219.042 176.496 221.834 179.288 225.278 179.288C228.722 179.288 231.515 176.496 231.515 173.052C231.515 169.607 228.722 166.815 225.278 166.815Z" fill="#A4BBD6"/>
<rect x="19.4873" y="20.2673" width="49.8886" height="47.5501" rx="17.9287" fill="#9FC9F9"/>
<path d="M52.2269 48.3297L46.4744 42.6123C45.6967 41.8393 45.3079 41.4529 44.8256 41.4529C44.3432 41.453 43.9545 41.8395 43.177 42.6127L42.9904 42.7982C42.2122 43.572 41.8231 43.9589 41.3405 43.9587C40.8578 43.9586 40.469 43.5714 39.6914 42.797L36.6367 39.7551M52.2269 48.3297V44.0067M52.2269 48.3297H47.8756" stroke="#323B47" stroke-width="1.16927" stroke-linecap="round" stroke-linejoin="round"/>
<path d="M79.7045 49.5425H76.2055V38.2042H79.8595C80.9594 38.2042 81.9005 38.4311 82.683 38.8851C83.4654 39.3354 84.0652 39.9831 84.4823 40.8284C84.8993 41.6699 85.1079 42.6775 85.1079 43.8512C85.1079 45.0322 84.8975 46.0491 84.4767 46.9017C84.056 47.7506 83.4433 48.4038 82.6387 48.8615C81.8341 49.3155 80.856 49.5425 79.7045 49.5425ZM77.5785 48.3245H79.6159C80.5534 48.3245 81.3303 48.1436 81.9467 47.7819C82.563 47.4202 83.0225 46.9054 83.3252 46.2373C83.6278 45.5693 83.7792 44.7739 83.7792 43.8512C83.7792 42.9358 83.6297 42.1478 83.3307 41.4872C83.0318 40.8228 82.5852 40.3135 81.9909 39.9592C81.3967 39.6011 80.6567 39.4221 79.7709 39.4221H77.5785V48.3245ZM89.5803 49.7418C89.0415 49.7418 88.5524 49.6403 88.1132 49.4373C87.674 49.2306 87.3252 48.9335 87.0668 48.5459C86.8085 48.1547 86.6793 47.6823 86.6793 47.1287C86.6793 46.6415 86.7753 46.2465 86.9672 45.9439C87.1591 45.6375 87.4156 45.3976 87.7367 45.2242C88.0578 45.0507 88.4122 44.9215 88.7997 44.8366C89.1909 44.7481 89.584 44.6779 89.9789 44.6263C90.4957 44.5598 90.9146 44.51 91.2357 44.4768C91.5605 44.4399 91.7967 44.379 91.9443 44.2941C92.0956 44.2092 92.1713 44.0616 92.1713 43.8512V43.8069C92.1713 43.2606 92.0218 42.8362 91.7229 42.5335C91.4276 42.2309 90.9792 42.0796 90.3775 42.0796C89.7538 42.0796 89.2648 42.2161 88.9104 42.4892C88.5561 42.7624 88.307 43.0539 88.163 43.364L86.9229 42.9211C87.1444 42.4044 87.4396 42.002 87.8087 41.7142C88.1815 41.4226 88.5875 41.2196 89.0267 41.1052C89.4696 40.9871 89.9051 40.928 90.3333 40.928C90.6064 40.928 90.9201 40.9612 91.2744 41.0277C91.6324 41.0904 91.9775 41.2214 92.3097 41.4207C92.6456 41.62 92.9242 41.9209 93.1457 42.3232C93.3671 42.7255 93.4779 43.2643 93.4779 43.9398V49.5425H92.1713V48.3909H92.1049C92.0163 48.5755 91.8687 48.7729 91.662 48.9833C91.4553 49.1937 91.1803 49.3727 90.8371 49.5203C90.4938 49.668 90.0749 49.7418 89.5803 49.7418ZM89.7796 48.5681C90.2963 48.5681 90.7319 48.4666 91.0862 48.2636C91.4442 48.0606 91.7136 47.7985 91.8945 47.4774C92.079 47.1563 92.1713 46.8186 92.1713 46.4643V45.2685C92.1159 45.3349 91.9941 45.3958 91.8059 45.4512C91.6214 45.5028 91.4073 45.549 91.1637 45.5896C90.9238 45.6265 90.6894 45.6597 90.4606 45.6892C90.2354 45.7151 90.0527 45.7372 89.9125 45.7557C89.5729 45.7999 89.2555 45.8719 88.9603 45.9716C88.6687 46.0675 88.4325 46.2133 88.2516 46.4089C88.0744 46.6009 87.9859 46.8629 87.9859 47.1951C87.9859 47.6491 88.1538 47.9923 88.4897 48.2248C88.8292 48.4537 89.2592 48.5681 89.7796 48.5681ZM95.7067 49.5425V41.0387H97.0133V49.5425H95.7067ZM96.3711 39.6214C96.1164 39.6214 95.8968 39.5347 95.7123 39.3612C95.5314 39.1878 95.441 38.9792 95.441 38.7356C95.441 38.492 95.5314 38.2835 95.7123 38.11C95.8968 37.9366 96.1164 37.8498 96.3711 37.8498C96.6257 37.8498 96.8435 37.9366 97.0244 38.11C97.2089 38.2835 97.3012 38.492 97.3012 38.7356C97.3012 38.9792 97.2089 39.1878 97.0244 39.3612C96.8435 39.5347 96.6257 39.6214 96.3711 39.6214ZM100.557 38.2042V49.5425H99.2505V38.2042H100.557ZM103.636 52.7314C103.414 52.7314 103.217 52.7129 103.043 52.676C102.87 52.6428 102.75 52.6096 102.683 52.5764L103.016 51.4248C103.333 51.506 103.614 51.5355 103.857 51.5134C104.101 51.4913 104.317 51.3824 104.505 51.1868C104.697 50.9948 104.872 50.683 105.031 50.2511L105.274 49.5868L102.13 41.0387H103.547L105.895 47.8152H105.983L108.33 41.0387H109.748L106.138 50.7826C105.976 51.2218 105.775 51.5854 105.535 51.8733C105.295 52.1648 105.016 52.3808 104.699 52.521C104.385 52.6613 104.031 52.7314 103.636 52.7314ZM115.722 49.5425V38.2042H117.095V48.3245H122.366V49.5425H115.722ZM127.613 49.7196C126.846 49.7196 126.172 49.5369 125.593 49.1715C125.017 48.8062 124.567 48.295 124.242 47.638C123.921 46.981 123.76 46.2133 123.76 45.3349C123.76 44.4491 123.921 43.6759 124.242 43.0152C124.567 42.3545 125.017 41.8415 125.593 41.4761C126.172 41.1107 126.846 40.928 127.613 40.928C128.381 40.928 129.053 41.1107 129.629 41.4761C130.208 41.8415 130.658 42.3545 130.98 43.0152C131.304 43.6759 131.467 44.4491 131.467 45.3349C131.467 46.2133 131.304 46.981 130.98 47.638C130.658 48.295 130.208 48.8062 129.629 49.1715C129.053 49.5369 128.381 49.7196 127.613 49.7196ZM127.613 48.5459C128.197 48.5459 128.676 48.3965 129.053 48.0975C129.429 47.7985 129.708 47.4055 129.889 46.9183C130.07 46.4311 130.16 45.9033 130.16 45.3349C130.16 44.7665 130.07 44.2369 129.889 43.746C129.708 43.2551 129.429 42.8583 129.053 42.5557C128.676 42.253 128.197 42.1017 127.613 42.1017C127.03 42.1017 126.551 42.253 126.174 42.5557C125.798 42.8583 125.519 43.2551 125.338 43.746C125.157 44.2369 125.067 44.7665 125.067 45.3349C125.067 45.9033 125.157 46.4311 125.338 46.9183C125.519 47.4055 125.798 47.7985 126.174 48.0975C126.551 48.3965 127.03 48.5459 127.613 48.5459ZM139.329 42.9432L138.155 43.2754C138.081 43.0798 137.972 42.8897 137.828 42.7052C137.688 42.5169 137.496 42.3619 137.253 42.2401C137.009 42.1183 136.697 42.0574 136.317 42.0574C135.797 42.0574 135.363 42.1774 135.016 42.4173C134.673 42.6535 134.501 42.9543 134.501 43.3197C134.501 43.6445 134.619 43.901 134.855 44.0892C135.092 44.2775 135.461 44.4343 135.963 44.5598L137.225 44.8698C137.985 45.0544 138.552 45.3367 138.925 45.7169C139.297 46.0934 139.484 46.5787 139.484 47.1729C139.484 47.6601 139.344 48.0957 139.063 48.4795C138.786 48.8634 138.399 49.166 137.9 49.3875C137.402 49.6089 136.823 49.7196 136.162 49.7196C135.295 49.7196 134.577 49.5314 134.008 49.1549C133.44 48.7785 133.08 48.2285 132.929 47.5051L134.169 47.1951C134.287 47.6528 134.51 47.996 134.839 48.2248C135.171 48.4537 135.605 48.5681 136.14 48.5681C136.749 48.5681 137.232 48.4389 137.59 48.1806C137.952 47.9185 138.133 47.6048 138.133 47.2394C138.133 46.9441 138.03 46.6968 137.823 46.4975C137.616 46.2945 137.299 46.1432 136.871 46.0435L135.453 45.7114C134.675 45.5268 134.103 45.2408 133.737 44.8532C133.375 44.462 133.195 43.973 133.195 43.3861C133.195 42.9063 133.329 42.4819 133.599 42.1128C133.872 41.7437 134.243 41.454 134.712 41.2436C135.184 41.0332 135.719 40.928 136.317 40.928C137.159 40.928 137.819 41.1126 138.299 41.4816C138.783 41.8507 139.126 42.3379 139.329 42.9432ZM147.318 42.9432L146.144 43.2754C146.071 43.0798 145.962 42.8897 145.818 42.7052C145.678 42.5169 145.486 42.3619 145.242 42.2401C144.998 42.1183 144.687 42.0574 144.306 42.0574C143.786 42.0574 143.352 42.1774 143.005 42.4173C142.662 42.6535 142.491 42.9543 142.491 43.3197C142.491 43.6445 142.609 43.901 142.845 44.0892C143.081 44.2775 143.45 44.4343 143.952 44.5598L145.214 44.8698C145.975 45.0544 146.541 45.3367 146.914 45.7169C147.287 46.0934 147.473 46.5787 147.473 47.1729C147.473 47.6601 147.333 48.0957 147.052 48.4795C146.776 48.8634 146.388 49.166 145.89 49.3875C145.392 49.6089 144.812 49.7196 144.151 49.7196C143.284 49.7196 142.566 49.5314 141.998 49.1549C141.429 48.7785 141.07 48.2285 140.918 47.5051L142.158 47.1951C142.276 47.6528 142.5 47.996 142.828 48.2248C143.16 48.4537 143.594 48.5681 144.129 48.5681C144.738 48.5681 145.222 48.4389 145.58 48.1806C145.941 47.9185 146.122 47.6048 146.122 47.2394C146.122 46.9441 146.019 46.6968 145.812 46.4975C145.606 46.2945 145.288 46.1432 144.86 46.0435L143.443 45.7114C142.664 45.5268 142.092 45.2408 141.727 44.8532C141.365 44.462 141.184 43.973 141.184 43.3861C141.184 42.9063 141.319 42.4819 141.588 42.1128C141.861 41.7437 142.232 41.454 142.701 41.2436C143.173 41.0332 143.708 40.928 144.306 40.928C145.148 40.928 145.809 41.1126 146.288 41.4816C146.772 41.8507 147.115 42.3379 147.318 42.9432ZM153.69 49.5425V38.2042H155.063V48.3245H160.334V49.5425H153.69ZM162.126 49.5425V41.0387H163.433V49.5425H162.126ZM162.791 39.6214C162.536 39.6214 162.317 39.5347 162.132 39.3612C161.951 39.1878 161.861 38.9792 161.861 38.7356C161.861 38.492 161.951 38.2835 162.132 38.11C162.317 37.9366 162.536 37.8498 162.791 37.8498C163.045 37.8498 163.263 37.9366 163.444 38.11C163.629 38.2835 163.721 38.492 163.721 38.7356C163.721 38.9792 163.629 39.1878 163.444 39.3612C163.263 39.5347 163.045 39.6214 162.791 39.6214ZM165.67 49.5425V41.0387H166.932V42.3674H167.043C167.22 41.9135 167.506 41.561 167.901 41.31C168.296 41.0553 168.771 40.928 169.324 40.928C169.885 40.928 170.352 41.0553 170.725 41.31C171.101 41.561 171.395 41.9135 171.605 42.3674H171.694C171.911 41.9282 172.238 41.5794 172.674 41.3211C173.109 41.059 173.631 40.928 174.24 40.928C175.001 40.928 175.623 41.1661 176.106 41.6422C176.59 42.1146 176.831 42.8509 176.831 43.8512V49.5425H175.525V43.8512C175.525 43.2237 175.353 42.7753 175.01 42.5059C174.667 42.2364 174.263 42.1017 173.797 42.1017C173.2 42.1017 172.736 42.2826 172.408 42.6443C172.079 43.0023 171.915 43.4562 171.915 44.0062V49.5425H170.586V43.7183C170.586 43.2348 170.43 42.8454 170.116 42.5501C169.802 42.2512 169.398 42.1017 168.903 42.1017C168.564 42.1017 168.246 42.1921 167.951 42.373C167.66 42.5538 167.423 42.8048 167.242 43.1259C167.065 43.4433 166.977 43.8106 166.977 44.2276V49.5425H165.67ZM179.064 49.5425V41.0387H180.371V49.5425H179.064ZM179.729 39.6214C179.474 39.6214 179.254 39.5347 179.07 39.3612C178.889 39.1878 178.799 38.9792 178.799 38.7356C178.799 38.492 178.889 38.2835 179.07 38.11C179.254 37.9366 179.474 37.8498 179.729 37.8498C179.983 37.8498 180.201 37.9366 180.382 38.11C180.567 38.2835 180.659 38.492 180.659 38.7356C180.659 38.9792 180.567 39.1878 180.382 39.3612C180.201 39.5347 179.983 39.6214 179.729 39.6214ZM186.306 41.0387V42.146H181.899V41.0387H186.306ZM183.184 39.0014H184.49V47.1065C184.49 47.4756 184.544 47.7524 184.651 47.937C184.762 48.1178 184.902 48.2396 185.072 48.3024C185.245 48.3614 185.428 48.3909 185.62 48.3909C185.764 48.3909 185.882 48.3835 185.974 48.3688C186.066 48.3503 186.14 48.3356 186.196 48.3245L186.461 49.4982C186.373 49.5314 186.249 49.5646 186.09 49.5978C185.932 49.6348 185.731 49.6532 185.487 49.6532C185.118 49.6532 184.756 49.5739 184.402 49.4151C184.051 49.2564 183.76 49.0147 183.527 48.6899C183.298 48.3651 183.184 47.9554 183.184 47.4608V39.0014Z" fill="white"/>
<rect x="238.89" y="23.3854" width="92.7617" height="41.314" rx="17.539" fill="#212C38"/>
<rect x="238.89" y="23.3854" width="92.7617" height="41.314" rx="17.539" stroke="#414F5E" stroke-width="0.77951"/>
<path d="M269.681 44.1882C269.681 48.4933 266.191 51.9833 261.886 51.9833C257.581 51.9833 254.091 48.4933 254.091 44.1882C254.091 39.8831 257.581 36.3931 261.886 36.3931C266.191 36.3931 269.681 39.8831 269.681 44.1882Z" stroke="white" stroke-width="0.77951" stroke-linecap="round" stroke-dasharray="0.39 2.73"/>
<path d="M269.68 44.1882C269.68 39.8831 266.19 36.3931 261.885 36.3931M261.885 41.8496V44.9677H265.003" stroke="white" stroke-width="0.77951" stroke-linecap="round" stroke-linejoin="round"/>
<path d="M280.789 49.8432C279.955 49.8432 279.244 49.6163 278.657 49.1623C278.071 48.7046 277.622 48.0421 277.312 47.1748C277.002 46.3037 276.847 45.2518 276.847 44.0191C276.847 42.7937 277.002 41.7473 277.312 40.88C277.626 40.0089 278.076 39.3446 278.663 38.8869C279.254 38.4256 279.962 38.1949 280.789 38.1949C281.616 38.1949 282.322 38.4256 282.909 38.8869C283.5 39.3446 283.95 40.0089 284.26 40.88C284.574 41.7473 284.731 42.7937 284.731 44.0191C284.731 45.2518 284.576 46.3037 284.266 47.1748C283.956 48.0421 283.507 48.7046 282.92 49.1623C282.334 49.6163 281.623 49.8432 280.789 49.8432ZM280.789 48.6253C281.616 48.6253 282.258 48.2267 282.716 47.4294C283.173 46.6322 283.402 45.4954 283.402 44.0191C283.402 43.0373 283.297 42.2013 283.086 41.5111C282.88 40.8209 282.581 40.295 282.19 39.9333C281.802 39.5716 281.335 39.3907 280.789 39.3907C279.97 39.3907 279.329 39.7949 278.868 40.6032C278.406 41.4078 278.176 42.5464 278.176 44.0191C278.176 45.0008 278.279 45.835 278.486 46.5215C278.693 47.208 278.99 47.7302 279.377 48.0882C279.768 48.4463 280.239 48.6253 280.789 48.6253ZM289.687 49.8432C288.927 49.8432 288.255 49.7085 287.672 49.4391C287.092 49.166 286.64 48.7914 286.315 48.3152C285.99 47.8354 285.83 47.2892 285.834 46.6765C285.83 46.1967 285.924 45.7538 286.116 45.3478C286.308 44.9381 286.57 44.5967 286.902 44.3236C287.238 44.0467 287.613 43.8714 288.026 43.7976V43.7312C287.483 43.5909 287.052 43.2864 286.73 42.8177C286.409 42.3453 286.251 41.8082 286.254 41.2066C286.251 40.6309 286.396 40.116 286.692 39.662C286.987 39.208 287.393 38.85 287.91 38.588C288.43 38.3259 289.023 38.1949 289.687 38.1949C290.344 38.1949 290.931 38.3259 291.447 38.588C291.964 38.85 292.37 39.208 292.665 39.662C292.964 40.116 293.116 40.6309 293.119 41.2066C293.116 41.8082 292.951 42.3453 292.627 42.8177C292.306 43.2864 291.879 43.5909 291.348 43.7312V43.7976C291.757 43.8714 292.127 44.0467 292.455 44.3236C292.783 44.5967 293.046 44.9381 293.241 45.3478C293.437 45.7538 293.536 46.1967 293.54 46.6765C293.536 47.2892 293.37 47.8354 293.042 48.3152C292.717 48.7914 292.265 49.166 291.685 49.4391C291.11 49.7085 290.443 49.8432 289.687 49.8432ZM289.687 48.6253C290.2 48.6253 290.643 48.5422 291.016 48.3761C291.388 48.21 291.676 47.9757 291.879 47.673C292.082 47.3704 292.186 47.016 292.189 46.6101C292.186 46.1819 292.075 45.8036 291.857 45.4751C291.639 45.1466 291.342 44.8883 290.966 44.7C290.593 44.5118 290.167 44.4177 289.687 44.4177C289.203 44.4177 288.772 44.5118 288.391 44.7C288.015 44.8883 287.718 45.1466 287.5 45.4751C287.286 45.8036 287.181 46.1819 287.184 46.6101C287.181 47.016 287.279 47.3704 287.478 47.673C287.681 47.9757 287.971 48.21 288.347 48.3761C288.724 48.5422 289.17 48.6253 289.687 48.6253ZM289.687 43.244C290.093 43.244 290.453 43.1628 290.766 43.0004C291.084 42.838 291.333 42.611 291.514 42.3194C291.695 42.0278 291.787 41.6864 291.791 41.2952C291.787 40.9114 291.697 40.5773 291.519 40.2931C291.342 40.0053 291.097 39.7838 290.783 39.6288C290.469 39.4701 290.104 39.3907 289.687 39.3907C289.262 39.3907 288.891 39.4701 288.574 39.6288C288.257 39.7838 288.011 40.0053 287.838 40.2931C287.664 40.5773 287.579 40.9114 287.583 41.2952C287.579 41.6864 287.666 42.0278 287.843 42.3194C288.024 42.611 288.273 42.838 288.591 43.0004C288.908 43.1628 289.273 43.244 289.687 43.244ZM295.857 48.2377C295.584 48.2377 295.349 48.1399 295.154 47.9443C294.958 47.7487 294.86 47.5143 294.86 47.2412C294.86 46.9681 294.958 46.7337 295.154 46.5381C295.349 46.3425 295.584 46.2447 295.857 46.2447C296.13 46.2447 296.364 46.3425 296.56 46.5381C296.756 46.7337 296.853 46.9681 296.853 47.2412C296.853 47.422 296.807 47.5881 296.715 47.7395C296.626 47.8908 296.506 48.0126 296.355 48.1049C296.207 48.1934 296.041 48.2377 295.857 48.2377ZM295.857 42.5021C295.584 42.5021 295.349 42.4043 295.154 42.2087C294.958 42.0131 294.86 41.7787 294.86 41.5056C294.86 41.2325 294.958 40.9981 295.154 40.8025C295.349 40.6069 295.584 40.5091 295.857 40.5091C296.13 40.5091 296.364 40.6069 296.56 40.8025C296.756 40.9981 296.853 41.2325 296.853 41.5056C296.853 41.6864 296.807 41.8525 296.715 42.0039C296.626 42.1552 296.506 42.277 296.355 42.3693C296.207 42.4578 296.041 42.5021 295.857 42.5021ZM298.396 49.6882V48.6917L302.139 44.5948C302.578 44.115 302.94 43.698 303.224 43.3436C303.508 42.9856 303.719 42.6498 303.855 42.336C303.995 42.0186 304.065 41.6864 304.065 41.3395C304.065 40.9409 303.969 40.5958 303.778 40.3042C303.589 40.0126 303.331 39.7875 303.002 39.6288C302.674 39.4701 302.305 39.3907 301.895 39.3907C301.46 39.3907 301.08 39.4812 300.755 39.662C300.434 39.8392 300.185 40.0883 300.007 40.4094C299.834 40.7305 299.747 41.107 299.747 41.5388H298.441C298.441 40.8745 298.594 40.2913 298.9 39.7893C299.206 39.2874 299.623 38.8962 300.151 38.6156C300.683 38.3351 301.279 38.1949 301.94 38.1949C302.604 38.1949 303.193 38.3351 303.706 38.6156C304.219 38.8962 304.621 39.2745 304.912 39.7506C305.204 40.2267 305.35 40.7563 305.35 41.3395C305.35 41.7566 305.274 42.1644 305.123 42.563C304.975 42.9579 304.717 43.399 304.348 43.8862C303.982 44.3697 303.475 44.9602 302.825 45.6578L300.279 48.3817V48.4702H305.549V49.6882H298.396ZM310.821 49.8432C310.356 49.8359 309.891 49.7473 309.426 49.5775C308.961 49.4077 308.536 49.1217 308.152 48.7194C307.768 48.3134 307.46 47.7653 307.228 47.0751C306.995 46.3812 306.879 45.5102 306.879 44.462C306.879 43.4581 306.973 42.5686 307.161 41.7935C307.35 41.0147 307.623 40.3596 307.981 39.8281C308.339 39.2929 308.771 38.8869 309.276 38.6101C309.786 38.3333 310.359 38.1949 310.998 38.1949C311.633 38.1949 312.198 38.3222 312.692 38.5769C313.19 38.8279 313.596 39.1785 313.91 39.6288C314.224 40.0791 314.427 40.5976 314.519 41.1845H313.168C313.043 40.6751 312.799 40.2525 312.437 39.9167C312.076 39.5808 311.596 39.4129 310.998 39.4129C310.12 39.4129 309.428 39.7949 308.922 40.5589C308.42 41.3229 308.167 42.3951 308.163 43.7755H308.252C308.459 43.4617 308.704 43.1942 308.988 42.9727C309.276 42.7476 309.594 42.5741 309.941 42.4523C310.288 42.3305 310.655 42.2696 311.042 42.2696C311.692 42.2696 312.286 42.432 312.825 42.7568C313.364 43.0779 313.796 43.5226 314.12 44.091C314.445 44.6557 314.608 45.3035 314.608 46.0343C314.608 46.7355 314.451 47.3778 314.137 47.9609C313.823 48.5404 313.382 49.0017 312.814 49.345C312.249 49.6845 311.585 49.8506 310.821 49.8432ZM310.821 48.6253C311.286 48.6253 311.703 48.509 312.072 48.2765C312.445 48.044 312.738 47.7321 312.952 47.3408C313.17 46.9496 313.279 46.5141 313.279 46.0343C313.279 45.5655 313.174 45.1392 312.963 44.7554C312.757 44.3679 312.471 44.0597 312.105 43.8308C311.744 43.602 311.33 43.4876 310.865 43.4876C310.514 43.4876 310.188 43.5577 309.885 43.698C309.583 43.8345 309.317 44.0228 309.088 44.2627C308.863 44.5026 308.686 44.7775 308.556 45.0876C308.427 45.3939 308.363 45.7169 308.363 46.0564C308.363 46.5067 308.468 46.9275 308.678 47.3187C308.892 47.7099 309.184 48.0255 309.553 48.2654C309.926 48.5053 310.348 48.6253 310.821 48.6253Z" fill="white"/>
<g filter="url(#filter3_f_34_17682)">
<rect x="19.4873" y="270.49" width="33.5189" height="32.7394" rx="11.6927" fill="#485E77" fill-opacity="0.8"/>
</g>
<path d="M37.3776 286.087L35.086 288.368C33.8204 289.628 33.8204 291.671 35.086 292.931C36.3516 294.19 38.4036 294.19 39.6691 292.931L42.5336 290.079C45.0648 287.559 45.0648 283.474 42.5336 280.954C40.0024 278.435 35.8985 278.435 33.3673 280.954L30.5029 283.806C28.2881 286.011 28.2881 289.585 30.5029 291.79" stroke="#F3F8FD" stroke-width="0.77951" stroke-linecap="round"/>
<path d="M62.037 282.155H63.5118L66.9798 290.626H67.0994L70.5673 282.155H72.0422V292.36H70.8862V284.607H70.7865L67.5976 292.36H66.4815L63.2926 284.607H63.1929V292.36H62.037V282.155ZM75.6303 292.539C75.1453 292.539 74.7052 292.448 74.3099 292.265C73.9146 292.079 73.6007 291.812 73.3682 291.463C73.1357 291.111 73.0194 290.685 73.0194 290.187C73.0194 289.749 73.1058 289.393 73.2785 289.121C73.4512 288.845 73.6821 288.629 73.9711 288.473C74.2601 288.317 74.579 288.201 74.9278 288.124C75.2799 288.045 75.6336 287.982 75.9891 287.935C76.4541 287.875 76.8311 287.83 77.1201 287.8C77.4125 287.767 77.6251 287.712 77.7579 287.636C77.8941 287.56 77.9622 287.427 77.9622 287.237V287.198C77.9622 286.706 77.8277 286.324 77.5586 286.052C77.2929 285.779 76.8893 285.643 76.3478 285.643C75.7864 285.643 75.3463 285.766 75.0274 286.012C74.7085 286.258 74.4843 286.52 74.3548 286.799L73.2386 286.4C73.438 285.935 73.7037 285.573 74.0359 285.314C74.3714 285.052 74.7368 284.869 75.1321 284.766C75.5307 284.66 75.9226 284.607 76.308 284.607C76.5538 284.607 76.8361 284.636 77.155 284.696C77.4772 284.753 77.7878 284.871 78.0868 285.05C78.3891 285.229 78.6399 285.5 78.8392 285.862C79.0385 286.224 79.1381 286.709 79.1381 287.317V292.36H77.9622V291.323H77.9024C77.8227 291.489 77.6898 291.667 77.5038 291.856C77.3178 292.046 77.0703 292.207 76.7614 292.34C76.4525 292.473 76.0754 292.539 75.6303 292.539ZM75.8097 291.483C76.2747 291.483 76.6667 291.391 76.9856 291.209C77.3078 291.026 77.5503 290.79 77.7131 290.501C77.8792 290.212 77.9622 289.908 77.9622 289.589V288.513C77.9124 288.573 77.8028 288.628 77.6334 288.677C77.4673 288.724 77.2746 288.765 77.0554 288.802C76.8395 288.835 76.6285 288.865 76.4226 288.892C76.2199 288.915 76.0555 288.935 75.9293 288.951C75.6237 288.991 75.338 289.056 75.0723 289.146C74.8098 289.232 74.5973 289.363 74.4345 289.539C74.275 289.712 74.1953 289.948 74.1953 290.247C74.1953 290.656 74.3465 290.964 74.6487 291.174C74.9543 291.38 75.3413 291.483 75.8097 291.483ZM81.1792 284.706L83.0128 287.835L84.8464 284.706H86.2017L83.7303 288.533L86.2017 292.36H84.8464L83.0128 289.39L81.1792 292.36H79.8239L82.2554 288.533L79.8239 284.706H81.1792ZM86.8974 292.36V284.706H88.0733V292.36H86.8974ZM87.4953 283.431C87.2661 283.431 87.0685 283.353 86.9024 283.197C86.7396 283.04 86.6583 282.853 86.6583 282.633C86.6583 282.414 86.7396 282.227 86.9024 282.07C87.0685 281.914 87.2661 281.836 87.4953 281.836C87.7245 281.836 87.9205 281.914 88.0833 282.07C88.2494 282.227 88.3324 282.414 88.3324 282.633C88.3324 282.853 88.2494 283.04 88.0833 283.197C87.9205 283.353 87.7245 283.431 87.4953 283.431ZM89.2449 292.36V284.706H90.381V285.902H90.4806C90.6401 285.494 90.8975 285.176 91.2529 284.95C91.6083 284.721 92.0352 284.607 92.5335 284.607C93.0384 284.607 93.4586 284.721 93.7941 284.95C94.1329 285.176 94.397 285.494 94.5863 285.902H94.666C94.862 285.507 95.156 285.193 95.548 284.96C95.9399 284.725 96.41 284.607 96.9581 284.607C97.6424 284.607 98.2021 284.821 98.6372 285.249C99.0724 285.675 99.29 286.337 99.29 287.237V292.36H98.114V287.237C98.114 286.673 97.9596 286.269 97.6507 286.027C97.3417 285.784 96.978 285.663 96.5595 285.663C96.0213 285.663 95.6044 285.826 95.3088 286.151C95.0132 286.473 94.8654 286.882 94.8654 287.377V292.36H93.6695V287.118C93.6695 286.683 93.5283 286.332 93.246 286.067C92.9636 285.797 92.5999 285.663 92.1548 285.663C91.8492 285.663 91.5635 285.744 91.2978 285.907C91.0353 286.07 90.8227 286.296 90.66 286.585C90.5005 286.87 90.4208 287.201 90.4208 287.576V292.36H89.2449ZM105.281 289.231V284.706H106.457V292.36H105.281V291.064H105.201C105.022 291.453 104.743 291.783 104.364 292.056C103.986 292.325 103.507 292.459 102.929 292.459C102.451 292.459 102.026 292.355 101.654 292.145C101.282 291.933 100.989 291.614 100.777 291.189C100.564 290.76 100.458 290.22 100.458 289.569V284.706H101.634V289.49C101.634 290.048 101.79 290.493 102.102 290.825C102.418 291.157 102.82 291.323 103.308 291.323C103.6 291.323 103.897 291.248 104.2 291.099C104.505 290.95 104.761 290.72 104.967 290.411C105.176 290.102 105.281 289.709 105.281 289.231ZM107.628 292.36V284.706H108.765V285.902H108.864C109.024 285.494 109.281 285.176 109.637 284.95C109.992 284.721 110.419 284.607 110.917 284.607C111.422 284.607 111.842 284.721 112.178 284.95C112.516 285.176 112.781 285.494 112.97 285.902H113.05C113.246 285.507 113.54 285.193 113.932 284.96C114.324 284.725 114.794 284.607 115.342 284.607C116.026 284.607 116.586 284.821 117.021 285.249C117.456 285.675 117.674 286.337 117.674 287.237V292.36H116.498V287.237C116.498 286.673 116.343 286.269 116.034 286.027C115.725 285.784 115.362 285.663 114.943 285.663C114.405 285.663 113.988 285.826 113.692 286.151C113.397 286.473 113.249 286.882 113.249 287.377V292.36H112.053V287.118C112.053 286.683 111.912 286.332 111.63 286.067C111.347 285.797 110.983 285.663 110.538 285.663C110.233 285.663 109.947 285.744 109.681 285.907C109.419 286.07 109.206 286.296 109.044 286.585C108.884 286.87 108.804 287.201 108.804 287.576V292.36H107.628Z" fill="#E0EEFD"/>
<path d="M221.865 293.635V280.88H222.682V293.635H221.865ZM224.616 284.706C224.556 284.201 224.313 283.809 223.888 283.53C223.463 283.251 222.941 283.112 222.324 283.112C221.872 283.112 221.477 283.185 221.138 283.331C220.802 283.477 220.54 283.678 220.35 283.934C220.164 284.19 220.071 284.48 220.071 284.806C220.071 285.078 220.136 285.312 220.266 285.508C220.399 285.701 220.568 285.862 220.774 285.992C220.98 286.118 221.196 286.223 221.422 286.306C221.648 286.385 221.855 286.45 222.045 286.5L223.081 286.779C223.347 286.849 223.642 286.945 223.968 287.068C224.297 287.191 224.611 287.359 224.91 287.571C225.212 287.781 225.461 288.05 225.657 288.378C225.853 288.707 225.951 289.111 225.951 289.589C225.951 290.141 225.806 290.639 225.517 291.084C225.232 291.529 224.813 291.883 224.262 292.145C223.714 292.408 223.048 292.539 222.264 292.539C221.533 292.539 220.9 292.421 220.365 292.185C219.834 291.949 219.415 291.621 219.11 291.199C218.807 290.777 218.636 290.287 218.597 289.729H219.872C219.905 290.114 220.035 290.433 220.261 290.685C220.49 290.935 220.779 291.121 221.128 291.244C221.48 291.363 221.859 291.423 222.264 291.423C222.735 291.423 223.159 291.346 223.534 291.194C223.91 291.038 224.207 290.822 224.426 290.546C224.645 290.267 224.755 289.941 224.755 289.569C224.755 289.231 224.66 288.955 224.471 288.742C224.282 288.53 224.033 288.357 223.724 288.224C223.415 288.091 223.081 287.975 222.722 287.875L221.467 287.516C220.669 287.287 220.038 286.96 219.573 286.535C219.108 286.11 218.876 285.553 218.876 284.866C218.876 284.294 219.03 283.796 219.339 283.371C219.651 282.942 220.07 282.61 220.595 282.374C221.123 282.135 221.712 282.016 222.363 282.016C223.021 282.016 223.606 282.134 224.117 282.369C224.629 282.602 225.034 282.921 225.333 283.326C225.635 283.731 225.795 284.191 225.811 284.706H224.616ZM226.582 290.267V289.25L231.066 282.155H231.804V283.73H231.305L227.917 289.091V289.171H233.956V290.267H226.582ZM231.385 292.36V289.958V289.485V282.155H232.561V292.36H231.385ZM236.136 290.964L236.056 291.503C235.999 291.881 235.913 292.287 235.797 292.718C235.684 293.15 235.566 293.557 235.443 293.939C235.32 294.321 235.219 294.625 235.139 294.851H234.242C234.285 294.638 234.342 294.358 234.412 294.009C234.481 293.66 234.551 293.27 234.621 292.838C234.694 292.409 234.754 291.971 234.8 291.523L234.86 290.964H236.136ZM240.465 282.016C240.883 282.019 241.302 282.099 241.721 282.255C242.139 282.411 242.521 282.67 242.867 283.032C243.212 283.391 243.489 283.881 243.699 284.502C243.908 285.123 244.013 285.902 244.013 286.839C244.013 287.746 243.926 288.551 243.753 289.255C243.584 289.956 243.338 290.548 243.016 291.029C242.697 291.511 242.308 291.876 241.85 292.125C241.395 292.375 240.88 292.499 240.305 292.499C239.734 292.499 239.224 292.386 238.776 292.16C238.331 291.931 237.965 291.614 237.68 291.209C237.397 290.8 237.216 290.327 237.136 289.789H238.352C238.462 290.257 238.679 290.644 239.005 290.95C239.334 291.252 239.767 291.403 240.305 291.403C241.093 291.403 241.714 291.059 242.169 290.372C242.627 289.684 242.857 288.712 242.857 287.457H242.777C242.591 287.736 242.37 287.977 242.114 288.179C241.858 288.382 241.574 288.538 241.262 288.648C240.95 288.757 240.618 288.812 240.266 288.812C239.681 288.812 239.144 288.667 238.656 288.378C238.171 288.086 237.783 287.686 237.49 287.178C237.201 286.666 237.057 286.081 237.057 285.424C237.057 284.799 237.196 284.228 237.475 283.71C237.758 283.188 238.153 282.773 238.661 282.464C239.173 282.155 239.774 282.006 240.465 282.016ZM240.465 283.112C240.046 283.112 239.669 283.216 239.334 283.426C239.002 283.632 238.738 283.911 238.542 284.263C238.349 284.612 238.253 284.999 238.253 285.424C238.253 285.849 238.346 286.236 238.532 286.585C238.721 286.93 238.978 287.206 239.304 287.412C239.633 287.614 240.007 287.716 240.425 287.716C240.741 287.716 241.035 287.654 241.307 287.531C241.579 287.405 241.817 287.234 242.019 287.018C242.225 286.799 242.387 286.551 242.503 286.276C242.619 285.997 242.677 285.706 242.677 285.404C242.677 285.005 242.581 284.632 242.388 284.283C242.199 283.934 241.936 283.652 241.601 283.436C241.269 283.22 240.89 283.112 240.465 283.112ZM248.239 282.016C248.657 282.019 249.076 282.099 249.494 282.255C249.913 282.411 250.295 282.67 250.64 283.032C250.986 283.391 251.263 283.881 251.472 284.502C251.682 285.123 251.786 285.902 251.786 286.839C251.786 287.746 251.7 288.551 251.527 289.255C251.358 289.956 251.112 290.548 250.79 291.029C250.471 291.511 250.082 291.876 249.624 292.125C249.169 292.375 248.654 292.499 248.079 292.499C247.508 292.499 246.998 292.386 246.549 292.16C246.104 291.931 245.739 291.614 245.453 291.209C245.171 290.8 244.99 290.327 244.91 289.789H246.126C246.235 290.257 246.453 290.644 246.779 290.95C247.107 291.252 247.541 291.403 248.079 291.403C248.866 291.403 249.487 291.059 249.943 290.372C250.401 289.684 250.63 288.712 250.63 287.457H250.55C250.364 287.736 250.144 287.977 249.888 288.179C249.632 288.382 249.348 288.538 249.036 288.648C248.723 288.757 248.391 288.812 248.039 288.812C247.455 288.812 246.918 288.667 246.43 288.378C245.945 288.086 245.556 287.686 245.264 287.178C244.975 286.666 244.83 286.081 244.83 285.424C244.83 284.799 244.97 284.228 245.249 283.71C245.531 283.188 245.927 282.773 246.435 282.464C246.946 282.155 247.548 282.006 248.239 282.016ZM248.239 283.112C247.82 283.112 247.443 283.216 247.107 283.426C246.775 283.632 246.511 283.911 246.315 284.263C246.123 284.612 246.026 284.999 246.026 285.424C246.026 285.849 246.119 286.236 246.305 286.585C246.495 286.93 246.752 287.206 247.078 287.412C247.406 287.614 247.78 287.716 248.199 287.716C248.514 287.716 248.808 287.654 249.081 287.531C249.353 287.405 249.59 287.234 249.793 287.018C249.999 286.799 250.16 286.551 250.276 286.276C250.393 285.997 250.451 285.706 250.451 285.404C250.451 285.005 250.354 284.632 250.162 284.283C249.972 283.934 249.71 283.652 249.375 283.436C249.042 283.22 248.664 283.112 248.239 283.112ZM252.808 292.36L257.372 283.331V283.251H252.111V282.155H258.648V283.311L254.104 292.36H252.808ZM258.646 292.439C258.4 292.439 258.189 292.351 258.013 292.175C257.837 291.999 257.749 291.788 257.749 291.542C257.749 291.297 257.837 291.086 258.013 290.91C258.189 290.734 258.4 290.646 258.646 290.646C258.892 290.646 259.103 290.734 259.279 290.91C259.455 291.086 259.543 291.297 259.543 291.542C259.543 291.705 259.501 291.855 259.418 291.991C259.339 292.127 259.231 292.237 259.095 292.32C258.962 292.399 258.812 292.439 258.646 292.439ZM260.412 290.267V289.25L264.896 282.155H265.634V283.73H265.135L261.747 289.091V289.171H267.786V290.267H260.412ZM265.215 292.36V289.958V289.485V282.155H266.391V292.36H265.215ZM271.94 292.499C271.256 292.499 270.651 292.378 270.126 292.135C269.605 291.89 269.198 291.552 268.905 291.124C268.613 290.692 268.469 290.2 268.472 289.649C268.469 289.217 268.553 288.819 268.726 288.453C268.899 288.084 269.135 287.777 269.434 287.531C269.736 287.282 270.073 287.125 270.445 287.058V286.998C269.957 286.872 269.568 286.598 269.279 286.176C268.99 285.751 268.847 285.268 268.851 284.726C268.847 284.208 268.979 283.745 269.244 283.336C269.51 282.927 269.875 282.605 270.34 282.369C270.809 282.134 271.342 282.016 271.94 282.016C272.531 282.016 273.059 282.134 273.524 282.369C273.989 282.605 274.355 282.927 274.621 283.336C274.89 283.745 275.026 284.208 275.029 284.726C275.026 285.268 274.878 285.751 274.586 286.176C274.297 286.598 273.913 286.872 273.435 286.998V287.058C273.803 287.125 274.136 287.282 274.431 287.531C274.727 287.777 274.963 288.084 275.139 288.453C275.315 288.819 275.405 289.217 275.408 289.649C275.405 290.2 275.255 290.692 274.959 291.124C274.667 291.552 274.26 291.89 273.739 292.135C273.22 292.378 272.621 292.499 271.94 292.499ZM271.94 291.403C272.402 291.403 272.8 291.328 273.136 291.179C273.471 291.029 273.73 290.818 273.913 290.546C274.096 290.274 274.189 289.955 274.192 289.589C274.189 289.204 274.089 288.863 273.893 288.568C273.697 288.272 273.43 288.04 273.091 287.87C272.755 287.701 272.372 287.616 271.94 287.616C271.505 287.616 271.116 287.701 270.774 287.87C270.435 288.04 270.168 288.272 269.972 288.568C269.779 288.863 269.684 289.204 269.688 289.589C269.684 289.955 269.772 290.274 269.952 290.546C270.135 290.818 270.395 291.029 270.734 291.179C271.073 291.328 271.475 291.403 271.94 291.403ZM271.94 286.56C272.305 286.56 272.629 286.487 272.912 286.341C273.197 286.194 273.421 285.99 273.584 285.728C273.747 285.465 273.83 285.158 273.833 284.806C273.83 284.46 273.749 284.16 273.589 283.904C273.43 283.645 273.209 283.446 272.926 283.306C272.644 283.163 272.315 283.092 271.94 283.092C271.558 283.092 271.224 283.163 270.938 283.306C270.653 283.446 270.432 283.645 270.276 283.904C270.12 284.16 270.043 284.46 270.046 284.806C270.043 285.158 270.121 285.465 270.281 285.728C270.443 285.99 270.668 286.194 270.953 286.341C271.239 286.487 271.568 286.56 271.94 286.56ZM282.209 292.519C281.571 292.519 281.008 292.358 280.52 292.036C280.032 291.71 279.65 291.252 279.374 290.661C279.098 290.066 278.961 289.363 278.961 288.553C278.961 287.749 279.098 287.051 279.374 286.46C279.65 285.869 280.033 285.412 280.525 285.09C281.017 284.768 281.585 284.607 282.229 284.607C282.727 284.607 283.121 284.69 283.41 284.856C283.702 285.018 283.925 285.205 284.078 285.414C284.234 285.62 284.355 285.789 284.441 285.922H284.541V282.155H285.717V292.36H284.581V291.184H284.441C284.355 291.323 284.232 291.499 284.073 291.712C283.913 291.921 283.686 292.109 283.39 292.275C283.094 292.438 282.701 292.519 282.209 292.519ZM282.369 291.463C282.84 291.463 283.239 291.34 283.565 291.094C283.89 290.845 284.138 290.501 284.307 290.063C284.476 289.621 284.561 289.111 284.561 288.533C284.561 287.962 284.478 287.462 284.312 287.033C284.146 286.601 283.9 286.266 283.574 286.027C283.249 285.784 282.847 285.663 282.369 285.663C281.87 285.663 281.455 285.791 281.123 286.047C280.794 286.299 280.547 286.643 280.381 287.078C280.218 287.51 280.136 287.995 280.136 288.533C280.136 289.078 280.219 289.573 280.386 290.018C280.555 290.46 280.804 290.812 281.133 291.074C281.465 291.333 281.877 291.463 282.369 291.463ZM289.304 292.539C288.819 292.539 288.379 292.448 287.984 292.265C287.588 292.079 287.274 291.812 287.042 291.463C286.809 291.111 286.693 290.685 286.693 290.187C286.693 289.749 286.779 289.393 286.952 289.121C287.125 288.845 287.356 288.629 287.645 288.473C287.934 288.317 288.253 288.201 288.601 288.124C288.953 288.045 289.307 287.982 289.663 287.935C290.128 287.875 290.505 287.83 290.794 287.8C291.086 287.767 291.299 287.712 291.432 287.636C291.568 287.56 291.636 287.427 291.636 287.237V287.198C291.636 286.706 291.501 286.324 291.232 286.052C290.966 285.779 290.563 285.643 290.021 285.643C289.46 285.643 289.02 285.766 288.701 286.012C288.382 286.258 288.158 286.52 288.028 286.799L286.912 286.4C287.112 285.935 287.377 285.573 287.709 285.314C288.045 285.052 288.41 284.869 288.806 284.766C289.204 284.66 289.596 284.607 289.982 284.607C290.227 284.607 290.51 284.636 290.829 284.696C291.151 284.753 291.461 284.871 291.76 285.05C292.063 285.229 292.313 285.5 292.513 285.862C292.712 286.224 292.812 286.709 292.812 287.317V292.36H291.636V291.323H291.576C291.496 291.489 291.363 291.667 291.177 291.856C290.991 292.046 290.744 292.207 290.435 292.34C290.126 292.473 289.749 292.539 289.304 292.539ZM289.483 291.483C289.948 291.483 290.34 291.391 290.659 291.209C290.981 291.026 291.224 290.79 291.387 290.501C291.553 290.212 291.636 289.908 291.636 289.589V288.513C291.586 288.573 291.476 288.628 291.307 288.677C291.141 288.724 290.948 288.765 290.729 288.802C290.513 288.835 290.302 288.865 290.096 288.892C289.894 288.915 289.729 288.935 289.603 288.951C289.297 288.991 289.012 289.056 288.746 289.146C288.483 289.232 288.271 289.363 288.108 289.539C287.949 289.712 287.869 289.948 287.869 290.247C287.869 290.656 288.02 290.964 288.322 291.174C288.628 291.38 289.015 291.483 289.483 291.483ZM293.976 292.36V284.706H295.152V292.36H293.976ZM294.574 283.431C294.345 283.431 294.147 283.353 293.981 283.197C293.818 283.04 293.737 282.853 293.737 282.633C293.737 282.414 293.818 282.227 293.981 282.07C294.147 281.914 294.345 281.836 294.574 281.836C294.803 281.836 294.999 281.914 295.162 282.07C295.328 282.227 295.411 282.414 295.411 282.633C295.411 282.853 295.328 283.04 295.162 283.197C294.999 283.353 294.803 283.431 294.574 283.431ZM297.499 282.155V292.36H296.323V282.155H297.499ZM299.428 295.23C299.229 295.23 299.051 295.213 298.895 295.18C298.739 295.15 298.631 295.12 298.571 295.09L298.87 294.054C299.156 294.127 299.408 294.153 299.627 294.133C299.847 294.114 300.041 294.016 300.21 293.839C300.383 293.667 300.541 293.386 300.684 292.997L300.903 292.399L298.073 284.706H299.348L301.461 290.805H301.541L303.653 284.706H304.929L301.68 293.476C301.534 293.871 301.353 294.198 301.137 294.457C300.921 294.72 300.671 294.914 300.385 295.04C300.102 295.167 299.784 295.23 299.428 295.23ZM309.639 282.155V292.36H308.463V282.155H309.639ZM313.92 292.519C313.229 292.519 312.623 292.355 312.101 292.026C311.583 291.697 311.178 291.237 310.885 290.646C310.596 290.054 310.452 289.363 310.452 288.573C310.452 287.776 310.596 287.08 310.885 286.485C311.178 285.89 311.583 285.429 312.101 285.1C312.623 284.771 313.229 284.607 313.92 284.607C314.611 284.607 315.215 284.771 315.733 285.1C316.255 285.429 316.66 285.89 316.949 286.485C317.241 287.08 317.388 287.776 317.388 288.573C317.388 289.363 317.241 290.054 316.949 290.646C316.66 291.237 316.255 291.697 315.733 292.026C315.215 292.355 314.611 292.519 313.92 292.519ZM313.92 291.463C314.445 291.463 314.876 291.328 315.215 291.059C315.554 290.79 315.805 290.436 315.968 289.998C316.13 289.559 316.212 289.084 316.212 288.573C316.212 288.061 316.13 287.585 315.968 287.143C315.805 286.701 315.554 286.344 315.215 286.071C314.876 285.799 314.445 285.663 313.92 285.663C313.395 285.663 312.963 285.799 312.624 286.071C312.285 286.344 312.035 286.701 311.872 287.143C311.709 287.585 311.628 288.061 311.628 288.573C311.628 289.084 311.709 289.559 311.872 289.998C312.035 290.436 312.285 290.79 312.624 291.059C312.963 291.328 313.395 291.463 313.92 291.463ZM323.622 286.42L322.565 286.719C322.499 286.543 322.401 286.372 322.271 286.206C322.145 286.037 321.972 285.897 321.753 285.787C321.534 285.678 321.253 285.623 320.911 285.623C320.443 285.623 320.052 285.731 319.74 285.947C319.431 286.16 319.277 286.43 319.277 286.759C319.277 287.051 319.383 287.282 319.596 287.452C319.808 287.621 320.14 287.762 320.592 287.875L321.728 288.154C322.412 288.32 322.922 288.574 323.258 288.917C323.593 289.255 323.761 289.692 323.761 290.227C323.761 290.666 323.635 291.057 323.382 291.403C323.133 291.748 322.784 292.021 322.336 292.22C321.888 292.419 321.366 292.519 320.771 292.519C319.991 292.519 319.345 292.35 318.833 292.011C318.322 291.672 317.998 291.177 317.862 290.526L318.978 290.247C319.084 290.659 319.285 290.968 319.581 291.174C319.88 291.38 320.27 291.483 320.752 291.483C321.3 291.483 321.735 291.366 322.057 291.134C322.383 290.898 322.545 290.616 322.545 290.287C322.545 290.021 322.452 289.799 322.266 289.619C322.08 289.436 321.795 289.3 321.409 289.211L320.134 288.912C319.433 288.746 318.918 288.488 318.589 288.139C318.264 287.787 318.101 287.347 318.101 286.819C318.101 286.387 318.222 286.005 318.465 285.673C318.71 285.341 319.044 285.08 319.466 284.891C319.891 284.701 320.373 284.607 320.911 284.607C321.668 284.607 322.263 284.773 322.695 285.105C323.13 285.437 323.439 285.876 323.622 286.42ZM329.97 286.42L328.914 286.719C328.847 286.543 328.749 286.372 328.62 286.206C328.494 286.037 328.321 285.897 328.102 285.787C327.882 285.678 327.602 285.623 327.26 285.623C326.791 285.623 326.401 285.731 326.089 285.947C325.78 286.16 325.625 286.43 325.625 286.759C325.625 287.051 325.732 287.282 325.944 287.452C326.157 287.621 326.489 287.762 326.941 287.875L328.077 288.154C328.761 288.32 329.271 288.574 329.606 288.917C329.942 289.255 330.11 289.692 330.11 290.227C330.11 290.666 329.983 291.057 329.731 291.403C329.482 291.748 329.133 292.021 328.685 292.22C328.236 292.419 327.715 292.519 327.12 292.519C326.339 292.519 325.693 292.35 325.182 292.011C324.67 291.672 324.346 291.177 324.21 290.526L325.326 290.247C325.433 290.659 325.634 290.968 325.929 291.174C326.228 291.38 326.618 291.483 327.1 291.483C327.648 291.483 328.083 291.366 328.406 291.134C328.731 290.898 328.894 290.616 328.894 290.287C328.894 290.021 328.801 289.799 328.615 289.619C328.429 289.436 328.143 289.3 327.758 289.211L326.482 288.912C325.781 288.746 325.267 288.488 324.938 288.139C324.612 287.787 324.449 287.347 324.449 286.819C324.449 286.387 324.571 286.005 324.813 285.673C325.059 285.341 325.393 285.08 325.815 284.891C326.24 284.701 326.721 284.607 327.26 284.607C328.017 284.607 328.612 284.773 329.043 285.105C329.479 285.437 329.787 285.876 329.97 286.42Z" fill="#E0EEFD"/>
<path d="M211.957 125.891H237.822C245.747 125.891 252.171 132.316 252.171 140.241C252.171 148.167 245.747 154.592 237.822 154.592H236.183C234.064 154.592 231.846 155.353 229.854 156.508C227.86 157.665 226.066 159.232 224.795 160.884C224.593 161.146 224.438 161.323 224.321 161.435C224.309 161.377 224.297 161.307 224.285 161.223C224.178 160.464 224.135 158.924 223.54 157.51C223.172 156.638 222.742 156.009 222.291 155.559C221.532 154.802 220.544 154.578 219.564 154.527C219.073 154.501 218.569 154.519 218.083 154.541C217.589 154.564 217.118 154.592 216.665 154.592H211.957C204.031 154.592 197.606 148.167 197.606 140.241C197.606 132.316 204.031 125.891 211.957 125.891Z" fill="url(#paint40_linear_34_17682)" stroke="#545E6A" stroke-width="0.77951"/>
<path d="M213.832 138.548C213.788 138.184 213.613 137.901 213.306 137.699C212.999 137.498 212.622 137.397 212.176 137.397C211.85 137.397 211.564 137.45 211.32 137.555C211.077 137.661 210.888 137.806 210.751 137.991C210.617 138.175 210.55 138.385 210.55 138.62C210.55 138.817 210.596 138.986 210.69 139.128C210.786 139.267 210.908 139.383 211.057 139.477C211.206 139.568 211.362 139.644 211.525 139.704C211.688 139.761 211.838 139.808 211.975 139.844L212.723 140.046C212.915 140.096 213.129 140.165 213.364 140.254C213.601 140.343 213.828 140.464 214.044 140.618C214.262 140.769 214.442 140.963 214.584 141.201C214.725 141.438 214.796 141.73 214.796 142.075C214.796 142.473 214.692 142.833 214.483 143.155C214.277 143.476 213.974 143.732 213.576 143.921C213.18 144.111 212.699 144.205 212.133 144.205C211.605 144.205 211.148 144.12 210.762 143.95C210.378 143.78 210.076 143.542 209.855 143.237C209.637 142.933 209.513 142.579 209.484 142.176H210.406C210.43 142.454 210.523 142.684 210.686 142.867C210.852 143.047 211.061 143.181 211.313 143.27C211.567 143.356 211.84 143.399 212.133 143.399C212.474 143.399 212.78 143.344 213.051 143.234C213.322 143.121 213.536 142.965 213.695 142.766C213.853 142.565 213.932 142.329 213.932 142.061C213.932 141.816 213.864 141.617 213.727 141.463C213.59 141.31 213.411 141.185 213.187 141.089C212.964 140.993 212.723 140.909 212.464 140.837L211.557 140.578C210.981 140.413 210.526 140.176 210.19 139.869C209.854 139.562 209.686 139.16 209.686 138.664C209.686 138.251 209.798 137.891 210.021 137.584C210.246 137.275 210.548 137.035 210.928 136.864C211.309 136.692 211.735 136.605 212.205 136.605C212.68 136.605 213.102 136.69 213.472 136.861C213.841 137.029 214.134 137.259 214.35 137.552C214.568 137.844 214.683 138.177 214.695 138.548H213.832ZM221.671 140.391C221.671 141.168 221.531 141.84 221.25 142.406C220.969 142.972 220.584 143.409 220.095 143.716C219.605 144.023 219.046 144.177 218.418 144.177C217.789 144.177 217.23 144.023 216.741 143.716C216.252 143.409 215.866 142.972 215.586 142.406C215.305 141.84 215.165 141.168 215.165 140.391C215.165 139.614 215.305 138.942 215.586 138.376C215.866 137.81 216.252 137.373 216.741 137.066C217.23 136.759 217.789 136.605 218.418 136.605C219.046 136.605 219.605 136.759 220.095 137.066C220.584 137.373 220.969 137.81 221.25 138.376C221.531 138.942 221.671 139.614 221.671 140.391ZM220.807 140.391C220.807 139.753 220.701 139.214 220.487 138.775C220.276 138.336 219.989 138.004 219.627 137.778C219.267 137.553 218.864 137.44 218.418 137.44C217.972 137.44 217.567 137.553 217.205 137.778C216.845 138.004 216.559 138.336 216.345 138.775C216.134 139.214 216.028 139.753 216.028 140.391C216.028 141.029 216.134 141.568 216.345 142.007C216.559 142.446 216.845 142.778 217.205 143.004C217.567 143.229 217.972 143.342 218.418 143.342C218.864 143.342 219.267 143.229 219.627 143.004C219.989 142.778 220.276 142.446 220.487 142.007C220.701 141.568 220.807 141.029 220.807 140.391ZM224.4 144.076V136.706H225.293V143.284H228.719V144.076H224.4ZM231.492 144.191C230.96 144.191 230.5 144.074 230.114 143.838C229.73 143.601 229.434 143.27 229.225 142.845C229.019 142.418 228.916 141.922 228.916 141.355C228.916 140.789 229.019 140.29 229.225 139.858C229.434 139.424 229.724 139.086 230.096 138.844C230.47 138.599 230.907 138.477 231.406 138.477C231.694 138.477 231.978 138.525 232.259 138.62C232.539 138.716 232.795 138.872 233.025 139.088C233.255 139.302 233.439 139.585 233.576 139.938C233.712 140.29 233.781 140.724 233.781 141.24V141.6H229.52V140.866H232.917C232.917 140.554 232.855 140.276 232.73 140.031C232.608 139.786 232.433 139.593 232.205 139.452C231.979 139.31 231.713 139.239 231.406 139.239C231.067 139.239 230.775 139.323 230.528 139.491C230.283 139.657 230.095 139.873 229.963 140.139C229.831 140.405 229.765 140.691 229.765 140.996V141.485C229.765 141.902 229.837 142.256 229.981 142.547C230.127 142.834 230.33 143.054 230.589 143.205C230.848 143.354 231.149 143.428 231.492 143.428C231.715 143.428 231.917 143.397 232.097 143.335C232.279 143.27 232.436 143.174 232.568 143.047C232.7 142.917 232.802 142.756 232.874 142.565L233.694 142.795C233.608 143.073 233.463 143.318 233.259 143.529C233.055 143.738 232.803 143.901 232.503 144.018C232.203 144.134 231.866 144.191 231.492 144.191ZM236.723 138.548V139.268H233.744V138.548H236.723ZM234.636 144.076V137.786C234.636 137.469 234.711 137.205 234.859 136.994C235.008 136.783 235.201 136.624 235.439 136.519C235.676 136.413 235.927 136.361 236.191 136.361C236.4 136.361 236.57 136.377 236.702 136.411C236.834 136.445 236.932 136.476 236.997 136.504L236.752 137.239C236.709 137.224 236.649 137.206 236.572 137.185C236.498 137.163 236.4 137.152 236.277 137.152C235.997 137.152 235.794 137.223 235.669 137.365C235.547 137.506 235.486 137.714 235.486 137.987V144.076H234.636ZM239.507 138.548V139.268H236.642V138.548H239.507ZM237.477 137.224H238.327V142.493C238.327 142.732 238.361 142.912 238.431 143.032C238.503 143.15 238.594 143.229 238.704 143.27C238.817 143.308 238.936 143.327 239.061 143.327C239.154 143.327 239.231 143.323 239.291 143.313C239.351 143.301 239.399 143.291 239.435 143.284L239.608 144.047C239.55 144.069 239.47 144.09 239.367 144.112C239.263 144.136 239.133 144.148 238.974 144.148C238.734 144.148 238.499 144.096 238.269 143.993C238.041 143.89 237.852 143.733 237.7 143.522C237.552 143.311 237.477 143.044 237.477 142.723V137.224Z" fill="white"/>
</g>
<rect x="0.389755" y="0.389755" width="349.22" height="335.22" rx="19.6102" stroke="url(#paint41_linear_34_17682)" stroke-width="0.77951"/>
<defs>
<filter id="filter0_f_34_17682" x="-71.0134" y="31.1024" width="492.098" height="450.737" filterUnits="userSpaceOnUse" color-interpolation-filters="sRGB">
<feFlood flood-opacity="0" result="BackgroundImageFix"/>
<feBlend mode="normal" in="SourceGraphic" in2="BackgroundImageFix" result="shape"/>
<feGaussianBlur stdDeviation="35.5067" result="effect1_foregroundBlur_34_17682"/>
</filter>
<filter id="filter1_f_34_17682" x="220.026" y="-60.939" width="206.076" height="157.168" filterUnits="userSpaceOnUse" color-interpolation-filters="sRGB">
<feFlood flood-opacity="0" result="BackgroundImageFix"/>
<feBlend mode="normal" in="SourceGraphic" in2="BackgroundImageFix" result="shape"/>
<feGaussianBlur stdDeviation="27.9454" result="effect1_foregroundBlur_34_17682"/>
</filter>
<filter id="filter2_f_34_17682" x="52.7253" y="-92.3286" width="194.324" height="194.85" filterUnits="userSpaceOnUse" color-interpolation-filters="sRGB">
<feFlood flood-opacity="0" result="BackgroundImageFix"/>
<feBlend mode="normal" in="SourceGraphic" in2="BackgroundImageFix" result="shape"/>
<feGaussianBlur stdDeviation="27.9454" result="effect1_foregroundBlur_34_17682"/>
</filter>
<filter id="filter3_f_34_17682" x="17.9283" y="268.931" width="36.6371" height="35.8575" filterUnits="userSpaceOnUse" color-interpolation-filters="sRGB">
<feFlood flood-opacity="0" result="BackgroundImageFix"/>
<feBlend mode="normal" in="SourceGraphic" in2="BackgroundImageFix" result="shape"/>
<feGaussianBlur stdDeviation="0.77951" result="effect1_foregroundBlur_34_17682"/>
</filter>
<linearGradient id="paint0_linear_34_17682" x1="175" y1="0" x2="175" y2="336" gradientUnits="userSpaceOnUse">
<stop stop-color="#1F2327"/>
<stop offset="1" stop-color="#0F1215"/>
</linearGradient>
<linearGradient id="paint1_linear_34_17682" x1="175.036" y1="102.116" x2="175.036" y2="410.826" gradientUnits="userSpaceOnUse">
<stop stop-color="#13202F"/>
<stop offset="1" stop-color="#77A6DD"/>
</linearGradient>
<linearGradient id="paint2_linear_34_17682" x1="30.9014" y1="153.564" x2="30.9014" y2="193.68" gradientUnits="userSpaceOnUse">
<stop stop-color="#2B3540"/>
<stop offset="0.490385" stop-color="#76818D"/>
<stop offset="0.995192" stop-color="#2B3540"/>
</linearGradient>
<linearGradient id="paint3_linear_34_17682" x1="37.9165" y1="157.461" x2="37.9165" y2="190.201" gradientUnits="userSpaceOnUse">
<stop stop-color="#2B3540"/>
<stop offset="0.490385" stop-color="#76818D"/>
<stop offset="0.995192" stop-color="#2B3540"/>
</linearGradient>
<linearGradient id="paint4_linear_34_17682" x1="45.7119" y1="151.225" x2="45.7119" y2="194.878" gradientUnits="userSpaceOnUse">
<stop stop-color="#2B3540"/>
<stop offset="0.490385" stop-color="#76818D"/>
<stop offset="0.995192" stop-color="#2B3540"/>
</linearGradient>
<linearGradient id="paint5_linear_34_17682" x1="62.8608" y1="151.225" x2="62.8608" y2="194.878" gradientUnits="userSpaceOnUse">
<stop stop-color="#2B3540"/>
<stop offset="0.490385" stop-color="#76818D"/>
<stop offset="0.995192" stop-color="#2B3540"/>
</linearGradient>
<linearGradient id="paint6_linear_34_17682" x1="94.041" y1="159.02" x2="94.041" y2="187.083" gradientUnits="userSpaceOnUse">
<stop stop-color="#2B3540"/>
<stop offset="0.490385" stop-color="#76818D"/>
<stop offset="0.995192" stop-color="#2B3540"/>
</linearGradient>
<linearGradient id="paint7_linear_34_17682" x1="108.852" y1="159.02" x2="108.852" y2="187.083" gradientUnits="userSpaceOnUse">
<stop stop-color="#2B3540"/>
<stop offset="0.490385" stop-color="#76818D"/>
<stop offset="0.995192" stop-color="#2B3540"/>
</linearGradient>
<linearGradient id="paint8_linear_34_17682" x1="124.442" y1="159.02" x2="124.442" y2="187.083" gradientUnits="userSpaceOnUse">
<stop stop-color="#2B3540"/>
<stop offset="0.490385" stop-color="#76818D"/>
<stop offset="0.995192" stop-color="#2B3540"/>
</linearGradient>
<linearGradient id="paint9_linear_34_17682" x1="147.828" y1="159.02" x2="147.828" y2="187.083" gradientUnits="userSpaceOnUse">
<stop stop-color="#2B3540"/>
<stop offset="0.490385" stop-color="#76818D"/>
<stop offset="0.995192" stop-color="#2B3540"/>
</linearGradient>
<linearGradient id="paint10_linear_34_17682" x1="163.417" y1="159.02" x2="163.417" y2="187.083" gradientUnits="userSpaceOnUse">
<stop stop-color="#2B3540"/>
<stop offset="0.490385" stop-color="#76818D"/>
<stop offset="0.995192" stop-color="#2B3540"/>
</linearGradient>
<linearGradient id="paint11_linear_34_17682" x1="195.378" y1="159.02" x2="195.378" y2="187.083" gradientUnits="userSpaceOnUse">
<stop stop-color="#2B3540"/>
<stop offset="0.490385" stop-color="#76818D"/>
<stop offset="0.995192" stop-color="#2B3540"/>
</linearGradient>
<linearGradient id="paint12_linear_34_17682" x1="210.968" y1="159.02" x2="210.968" y2="187.083" gradientUnits="userSpaceOnUse">
<stop stop-color="#2B3540"/>
<stop offset="0.490385" stop-color="#76818D"/>
<stop offset="0.995192" stop-color="#2B3540"/>
</linearGradient>
<linearGradient id="paint13_linear_34_17682" x1="241.369" y1="159.02" x2="241.369" y2="187.083" gradientUnits="userSpaceOnUse">
<stop stop-color="#2B3540"/>
<stop offset="0.490385" stop-color="#76818D"/>
<stop offset="0.995192" stop-color="#2B3540"/>
</linearGradient>
<linearGradient id="paint14_linear_34_17682" x1="257.738" y1="159.02" x2="257.738" y2="187.083" gradientUnits="userSpaceOnUse">
<stop stop-color="#2B3540"/>
<stop offset="0.490385" stop-color="#76818D"/>
<stop offset="0.995192" stop-color="#2B3540"/>
</linearGradient>
<linearGradient id="paint15_linear_34_17682" x1="289.698" y1="159.02" x2="289.698" y2="187.083" gradientUnits="userSpaceOnUse">
<stop stop-color="#2B3540"/>
<stop offset="0.490385" stop-color="#76818D"/>
<stop offset="0.995192" stop-color="#2B3540"/>
</linearGradient>
<linearGradient id="paint16_linear_34_17682" x1="304.509" y1="159.02" x2="304.509" y2="187.083" gradientUnits="userSpaceOnUse">
<stop stop-color="#2B3540"/>
<stop offset="0.490385" stop-color="#76818D"/>
<stop offset="0.995192" stop-color="#2B3540"/>
</linearGradient>
<linearGradient id="paint17_linear_34_17682" x1="53.5063" y1="157.461" x2="53.5063" y2="190.201" gradientUnits="userSpaceOnUse">
<stop stop-color="#2B3540"/>
<stop offset="0.490385" stop-color="#76818D"/>
<stop offset="0.995192" stop-color="#2B3540"/>
</linearGradient>
<linearGradient id="paint18_linear_34_17682" x1="69.876" y1="157.461" x2="69.876" y2="190.201" gradientUnits="userSpaceOnUse">
<stop stop-color="#2B3540"/>
<stop offset="0.490385" stop-color="#76818D"/>
<stop offset="0.995192" stop-color="#2B3540"/>
</linearGradient>
<linearGradient id="paint19_linear_34_17682" x1="85.4668" y1="157.461" x2="85.4668" y2="190.201" gradientUnits="userSpaceOnUse">
<stop stop-color="#2B3540"/>
<stop offset="0.490385" stop-color="#76818D"/>
<stop offset="0.995192" stop-color="#2B3540"/>
</linearGradient>
<linearGradient id="paint20_linear_34_17682" x1="101.057" y1="157.461" x2="101.057" y2="190.201" gradientUnits="userSpaceOnUse">
<stop stop-color="#2B3540"/>
<stop offset="0.490385" stop-color="#76818D"/>
<stop offset="0.995192" stop-color="#2B3540"/>
</linearGradient>
<linearGradient id="paint21_linear_34_17682" x1="116.647" y1="157.461" x2="116.647" y2="190.201" gradientUnits="userSpaceOnUse">
<stop stop-color="#2B3540"/>
<stop offset="0.490385" stop-color="#76818D"/>
<stop offset="0.995192" stop-color="#2B3540"/>
</linearGradient>
<linearGradient id="paint22_linear_34_17682" x1="140.032" y1="157.461" x2="140.032" y2="190.201" gradientUnits="userSpaceOnUse">
<stop stop-color="#2B3540"/>
<stop offset="0.490385" stop-color="#76818D"/>
<stop offset="0.995192" stop-color="#2B3540"/>
</linearGradient>
<linearGradient id="paint23_linear_34_17682" x1="155.622" y1="156.682" x2="155.622" y2="189.421" gradientUnits="userSpaceOnUse">
<stop stop-color="#2B3540"/>
<stop offset="0.490385" stop-color="#76818D"/>
<stop offset="0.995192" stop-color="#2B3540"/>
</linearGradient>
<linearGradient id="paint24_linear_34_17682" x1="171.213" y1="156.682" x2="171.213" y2="189.421" gradientUnits="userSpaceOnUse">
<stop stop-color="#2B3540"/>
<stop offset="0.490385" stop-color="#76818D"/>
<stop offset="0.995192" stop-color="#2B3540"/>
</linearGradient>
<linearGradient id="paint25_linear_34_17682" x1="186.803" y1="156.682" x2="186.803" y2="189.421" gradientUnits="userSpaceOnUse">
<stop stop-color="#2B3540"/>
<stop offset="0.490385" stop-color="#76818D"/>
<stop offset="0.995192" stop-color="#2B3540"/>
</linearGradient>
<linearGradient id="paint26_linear_34_17682" x1="203.952" y1="157.461" x2="203.952" y2="190.201" gradientUnits="userSpaceOnUse">
<stop stop-color="#2B3540"/>
<stop offset="0.490385" stop-color="#76818D"/>
<stop offset="0.995192" stop-color="#2B3540"/>
</linearGradient>
<linearGradient id="paint27_linear_34_17682" x1="217.983" y1="157.461" x2="217.983" y2="190.201" gradientUnits="userSpaceOnUse">
<stop stop-color="#2B3540"/>
<stop offset="0.490385" stop-color="#76818D"/>
<stop offset="0.995192" stop-color="#2B3540"/>
</linearGradient>
<linearGradient id="paint28_linear_34_17682" x1="233.574" y1="157.461" x2="233.574" y2="190.201" gradientUnits="userSpaceOnUse">
<stop stop-color="#2B3540"/>
<stop offset="0.490385" stop-color="#76818D"/>
<stop offset="0.995192" stop-color="#2B3540"/>
</linearGradient>
<linearGradient id="paint29_linear_34_17682" x1="249.943" y1="157.461" x2="249.943" y2="190.201" gradientUnits="userSpaceOnUse">
<stop stop-color="#2B3540"/>
<stop offset="0.490385" stop-color="#76818D"/>
<stop offset="0.995192" stop-color="#2B3540"/>
</linearGradient>
<linearGradient id="paint30_linear_34_17682" x1="265.533" y1="156.682" x2="265.533" y2="189.421" gradientUnits="userSpaceOnUse">
<stop stop-color="#2B3540"/>
<stop offset="0.490385" stop-color="#76818D"/>
<stop offset="0.995192" stop-color="#2B3540"/>
</linearGradient>
<linearGradient id="paint31_linear_34_17682" x1="280.344" y1="156.682" x2="280.344" y2="189.421" gradientUnits="userSpaceOnUse">
<stop stop-color="#2B3540"/>
<stop offset="0.490385" stop-color="#76818D"/>
<stop offset="0.995192" stop-color="#2B3540"/>
</linearGradient>
<linearGradient id="paint32_linear_34_17682" x1="296.714" y1="156.682" x2="296.714" y2="189.421" gradientUnits="userSpaceOnUse">
<stop stop-color="#2B3540"/>
<stop offset="0.490385" stop-color="#76818D"/>
<stop offset="0.995192" stop-color="#2B3540"/>
</linearGradient>
<linearGradient id="paint33_linear_34_17682" x1="312.304" y1="156.682" x2="312.304" y2="189.421" gradientUnits="userSpaceOnUse">
<stop stop-color="#2B3540"/>
<stop offset="0.490385" stop-color="#76818D"/>
<stop offset="0.995192" stop-color="#2B3540"/>
</linearGradient>
<linearGradient id="paint34_linear_34_17682" x1="78.4507" y1="153.564" x2="78.4507" y2="193.68" gradientUnits="userSpaceOnUse">
<stop stop-color="#2B3540"/>
<stop offset="0.490385" stop-color="#76818D"/>
<stop offset="0.995192" stop-color="#2B3540"/>
</linearGradient>
<linearGradient id="paint35_linear_34_17682" x1="133.017" y1="153.564" x2="133.017" y2="193.68" gradientUnits="userSpaceOnUse">
<stop stop-color="#2B3540"/>
<stop offset="0.490385" stop-color="#76818D"/>
<stop offset="0.995192" stop-color="#2B3540"/>
</linearGradient>
<linearGradient id="paint36_linear_34_17682" x1="180.566" y1="153.564" x2="180.566" y2="193.68" gradientUnits="userSpaceOnUse">
<stop stop-color="#2B3540"/>
<stop offset="0.490385" stop-color="#76818D"/>
<stop offset="0.995192" stop-color="#2B3540"/>
</linearGradient>
<linearGradient id="paint37_linear_34_17682" x1="225.778" y1="153.564" x2="225.778" y2="193.68" gradientUnits="userSpaceOnUse">
<stop stop-color="#2B3540"/>
<stop offset="0.490385" stop-color="#76818D"/>
<stop offset="0.995192" stop-color="#2B3540"/>
</linearGradient>
<linearGradient id="paint38_linear_34_17682" x1="273.329" y1="153.564" x2="273.329" y2="193.68" gradientUnits="userSpaceOnUse">
<stop stop-color="#2B3540"/>
<stop offset="0.490385" stop-color="#76818D"/>
<stop offset="0.995192" stop-color="#2B3540"/>
</linearGradient>
<linearGradient id="paint39_linear_34_17682" x1="320.879" y1="153.564" x2="320.879" y2="193.68" gradientUnits="userSpaceOnUse">
<stop stop-color="#2B3540"/>
<stop offset="0.490385" stop-color="#76818D"/>
<stop offset="0.995192" stop-color="#2B3540"/>
</linearGradient>
<linearGradient id="paint40_linear_34_17682" x1="224.889" y1="125.501" x2="224.889" y2="162.918" gradientUnits="userSpaceOnUse">
<stop stop-color="#0B141E"/>
<stop offset="1" stop-color="#293440"/>
</linearGradient>
<linearGradient id="paint41_linear_34_17682" x1="175" y1="156.014" x2="175" y2="0" gradientUnits="userSpaceOnUse">
<stop stop-color="white" stop-opacity="0"/>
<stop offset="1" stop-color="white"/>
</linearGradient>
<clipPath id="clip0_34_17682">
<rect width="350" height="336" rx="20" fill="white"/>
</clipPath>
</defs>
</svg>
