<svg width="1405" height="288" viewBox="0 0 1405 288" fill="none" xmlns="http://www.w3.org/2000/svg">
<path opacity="0.08" d="M0.469896 46.3117V10.9811H210.992V46.3117H126.119V283H85.2102V46.3117H0.469896ZM225.66 283V78.9858H264.045V111.394H266.17C269.889 100.414 276.442 91.781 285.828 85.4941C295.303 79.1186 306.017 75.9309 317.971 75.9309C320.45 75.9309 323.372 76.0195 326.737 76.1966C330.191 76.3736 332.891 76.595 334.839 76.8607V114.848C333.245 114.405 330.412 113.918 326.339 113.387C322.266 112.767 318.192 112.457 314.119 112.457C304.733 112.457 296.365 114.449 289.016 118.434C281.755 122.33 275.999 127.776 271.749 134.771C267.499 141.678 265.374 149.558 265.374 158.413V283H225.66ZM419.271 287.516C406.343 287.516 394.655 285.125 384.206 280.344C373.758 275.473 365.479 268.434 359.369 259.225C353.348 250.016 350.337 238.726 350.337 225.355C350.337 213.844 352.551 204.37 356.978 196.932C361.405 189.493 367.382 183.605 374.909 179.266C382.436 174.927 390.848 171.651 400.145 169.437C409.443 167.224 418.917 165.541 428.569 164.39C440.789 162.973 450.706 161.822 458.321 160.937C465.936 159.963 471.47 158.413 474.924 156.288C478.377 154.163 480.104 150.71 480.104 145.928V144.998C480.104 133.398 476.828 124.411 470.275 118.035C463.811 111.66 454.159 108.472 441.32 108.472C427.949 108.472 417.412 111.439 409.708 117.371C402.093 123.215 396.825 129.724 393.902 136.896L356.58 128.395C361.007 115.999 367.471 105.993 375.972 98.3778C384.561 90.6741 394.434 85.0956 405.591 81.6422C416.748 78.1003 428.48 76.3294 440.789 76.3294C448.935 76.3294 457.568 77.3034 466.689 79.2515C475.898 81.111 484.487 84.5643 492.456 89.6115C500.514 94.6588 507.111 101.875 512.247 111.261C517.382 120.559 519.95 132.646 519.95 147.522V283H481.166V255.107H479.573C477.005 260.243 473.153 265.29 468.017 270.249C462.881 275.208 456.284 279.325 448.227 282.602C440.169 285.878 430.517 287.516 419.271 287.516ZM427.905 255.639C438.885 255.639 448.271 253.469 456.063 249.13C463.944 244.792 469.921 239.125 473.994 232.129C478.156 225.045 480.237 217.475 480.237 209.417V183.118C478.82 184.535 476.075 185.863 472.002 187.103C468.017 188.254 463.457 189.272 458.321 190.158C453.185 190.955 448.182 191.707 443.312 192.416C438.442 193.035 434.369 193.567 431.093 194.009C423.389 194.983 416.349 196.622 409.974 198.924C403.687 201.226 398.64 204.547 394.832 208.885C391.113 213.136 389.254 218.803 389.254 225.887C389.254 235.715 392.884 243.153 400.145 248.201C407.406 253.159 416.659 255.639 427.905 255.639ZM641.739 286.985C625.269 286.985 610.57 282.779 597.642 274.367C584.802 265.866 574.708 253.779 567.358 238.106C560.097 222.345 556.467 203.44 556.467 181.391C556.467 159.343 560.142 140.482 567.491 124.809C574.929 109.136 585.112 97.1381 598.04 88.8146C610.968 80.4911 625.623 76.3294 642.004 76.3294C654.667 76.3294 664.85 78.4545 672.553 82.7048C680.345 86.8666 686.367 91.7367 690.617 97.3152C694.956 102.894 698.321 107.808 700.711 112.058H703.102V10.9811H742.816V283H704.032V251.256H700.711C698.321 255.594 694.867 260.553 690.351 266.132C685.924 271.71 679.814 276.58 672.022 280.742C664.23 284.904 654.135 286.985 641.739 286.985ZM650.505 253.115C661.927 253.115 671.579 250.104 679.46 244.083C687.429 237.973 693.45 229.517 697.524 218.714C701.685 207.911 703.766 195.338 703.766 180.993C703.766 166.825 701.73 154.429 697.657 143.803C693.583 133.177 687.606 124.898 679.726 118.965C671.845 113.032 662.105 110.066 650.505 110.066C638.551 110.066 628.589 113.165 620.62 119.364C612.651 125.562 606.629 134.018 602.556 144.733C598.571 155.447 596.579 167.534 596.579 180.993C596.579 194.629 598.616 206.893 602.689 217.785C606.762 228.676 612.783 237.309 620.753 243.685C628.811 249.972 638.728 253.115 650.505 253.115ZM792.017 283V78.9858H831.731V283H792.017ZM812.073 47.5071C805.166 47.5071 799.234 45.2048 794.275 40.6003C789.405 35.9073 786.97 30.3288 786.97 23.8648C786.97 17.3123 789.405 11.7337 794.275 7.12925C799.234 2.43622 805.166 0.089702 812.073 0.089702C818.98 0.089702 824.868 2.43622 829.738 7.12925C834.697 11.7337 837.176 17.3123 837.176 23.8648C837.176 30.3288 834.697 35.9073 829.738 40.6003C824.868 45.2048 818.98 47.5071 812.073 47.5071ZM965.606 287.117C945.505 287.117 928.194 282.823 913.672 274.234C899.239 265.556 888.082 253.381 880.201 237.708C872.409 221.946 868.513 203.484 868.513 182.321C868.513 161.424 872.409 143.006 880.201 127.067C888.082 111.129 899.062 98.6877 913.141 89.7444C927.309 80.801 943.867 76.3294 962.816 76.3294C974.328 76.3294 985.485 78.2332 996.288 82.0407C1007.09 85.8483 1016.79 91.8252 1025.38 99.9717C1033.96 108.118 1040.74 118.7 1045.7 131.716C1050.66 144.644 1053.14 160.361 1053.14 178.868V192.947H890.96V163.195H1014.22C1014.22 152.746 1012.09 143.493 1007.84 135.435C1003.59 127.289 997.616 120.869 989.912 116.176C982.297 111.483 973.354 109.136 963.082 109.136C951.925 109.136 942.185 111.881 933.861 117.371C925.626 122.773 919.251 129.857 914.735 138.623C910.308 147.3 908.094 156.731 908.094 166.914V190.158C908.094 203.794 910.485 215.394 915.266 224.957C920.136 234.52 926.91 241.825 935.588 246.872C944.266 251.831 954.404 254.311 966.004 254.311C973.531 254.311 980.393 253.248 986.592 251.123C992.79 248.909 998.147 245.633 1002.66 241.294C1007.18 236.955 1010.63 231.598 1013.02 225.223L1050.61 231.996C1047.6 243.065 1042.2 252.761 1034.41 261.084C1026.7 269.319 1017.01 275.739 1005.32 280.344C993.72 284.86 980.482 287.117 965.606 287.117ZM1129.43 161.867V283H1089.72V78.9858H1127.84V112.191H1130.36C1135.05 101.388 1142.4 92.7107 1152.41 86.1582C1162.5 79.6057 1175.21 76.3294 1190.53 76.3294C1204.43 76.3294 1216.61 79.2515 1227.06 85.0956C1237.5 90.8512 1245.61 99.4404 1251.36 110.863C1257.12 122.286 1260 136.409 1260 153.233V283H1220.28V158.015C1220.28 143.227 1216.43 131.672 1208.73 123.348C1201.02 114.936 1190.44 110.73 1176.98 110.73C1167.77 110.73 1159.58 112.723 1152.41 116.707C1145.33 120.692 1139.7 126.536 1135.54 134.24C1131.47 141.855 1129.43 151.064 1129.43 161.867ZM1401.01 78.9858V110.863H1289.57V78.9858H1401.01ZM1319.46 30.1074H1359.17V223.097C1359.17 230.801 1360.32 236.601 1362.62 240.497C1364.93 244.305 1367.89 246.917 1371.52 248.334C1375.24 249.662 1379.27 250.326 1383.61 250.326C1386.8 250.326 1389.59 250.104 1391.98 249.662C1394.37 249.219 1396.23 248.865 1397.56 248.599L1404.73 281.406C1402.43 282.292 1399.15 283.177 1394.9 284.063C1390.65 285.037 1385.34 285.568 1378.96 285.656C1368.51 285.834 1358.77 283.974 1349.74 280.078C1340.71 276.182 1333.4 270.161 1327.83 262.014C1322.25 253.868 1319.46 243.64 1319.46 231.332V30.1074Z" fill="white"/>
</svg>
