<svg width="20" height="21" viewBox="0 0 20 21" fill="none" xmlns="http://www.w3.org/2000/svg">
<path d="M8.75456 4.45566C7.87858 4.17209 6.92631 4.56653 6.50741 5.38647L6.00379 6.3722C5.94396 6.48933 5.8487 6.58458 5.73158 6.64442L4.74584 7.14803C3.92591 7.56694 3.53147 8.51921 3.81504 9.39518L4.15595 10.4483C4.19646 10.5734 4.19646 10.7082 4.15595 10.8333L3.81504 11.8864C3.53147 12.7624 3.92591 13.7147 4.74584 14.1336L5.73158 14.6372C5.8487 14.6971 5.94396 14.7923 6.00379 14.9094L6.50741 15.8952C6.92631 16.7151 7.87858 17.1096 8.75456 16.826L9.80768 16.4851C9.93281 16.4446 10.0676 16.4446 10.1927 16.4851L11.2458 16.826C12.1218 17.1096 13.0741 16.7151 13.493 15.8952L13.9966 14.9094C14.0564 14.7923 14.1517 14.6971 14.2688 14.6372L15.2546 14.1336C16.0745 13.7147 16.4689 12.7624 16.1854 11.8864L15.8444 10.8333C15.8039 10.7082 15.8039 10.5734 15.8444 10.4483L16.1854 9.39518C16.4689 8.51921 16.0745 7.56694 15.2546 7.14803L14.2688 6.64442C14.1517 6.58458 14.0564 6.48933 13.9966 6.3722L13.493 5.38647C13.0741 4.56653 12.1218 4.17209 11.2458 4.45566L10.1927 4.79658C10.0676 4.83708 9.93281 4.83708 9.80768 4.79658L8.75456 4.45566ZM6.72504 10.4891L7.60893 9.60518L9.37668 11.373L12.9122 7.83746L13.7961 8.72134L9.37668 13.1407L6.72504 10.4891Z" fill="#0A7CFF"/>
</svg>
