<svg width="256" height="256" viewBox="0 0 256 256" fill="none" xmlns="http://www.w3.org/2000/svg">
<rect width="256" height="256" rx="8" fill="#0A7CFF"/>
<rect width="256" height="256" rx="8" fill="url(#paint0_radial_2090_17560)"/>
<path d="M119.667 117.13C119.667 114.729 121.532 112.783 123.833 112.783H132.167C134.468 112.783 136.333 114.729 136.333 117.13V173.652C136.333 176.053 134.468 178 132.167 178H123.833C121.532 178 119.667 176.053 119.667 173.652V117.13Z" fill="url(#paint1_linear_2090_17560)"/>
<path d="M119.667 82.3478C119.667 79.9466 121.532 78 123.833 78H132.167C134.468 78 136.333 79.9466 136.333 82.3478V91.0435C136.333 93.4447 134.468 95.3913 132.167 95.3913H123.833C121.532 95.3913 119.667 93.4447 119.667 91.0435V82.3478Z" fill="url(#paint2_linear_2090_17560)"/>
<path d="M136.333 99.7391C136.333 97.3379 138.199 95.3913 140.5 95.3913H173.833C176.135 95.3913 178 97.3379 178 99.7391V108.435C178 110.836 176.135 112.783 173.833 112.783H140.5C138.199 112.783 136.333 110.836 136.333 108.435V99.7391Z" fill="url(#paint3_linear_2090_17560)"/>
<path d="M78 99.7391C78 97.3379 79.8655 95.3913 82.1667 95.3913H115.5C117.801 95.3913 119.667 97.3379 119.667 99.7391V108.435C119.667 110.836 117.801 112.783 115.5 112.783H82.1667C79.8655 112.783 78 110.836 78 108.435V99.7391Z" fill="url(#paint4_linear_2090_17560)"/>
<defs>
<radialGradient id="paint0_radial_2090_17560" cx="0" cy="0" r="1" gradientUnits="userSpaceOnUse" gradientTransform="translate(128 128) rotate(45) scale(181.019)">
<stop stop-color="white" stop-opacity="0.12"/>
<stop offset="1" stop-opacity="0"/>
</radialGradient>
<linearGradient id="paint1_linear_2090_17560" x1="137.822" y1="54.7855" x2="137.822" y2="241.622" gradientUnits="userSpaceOnUse">
<stop offset="0.313079" stop-color="white"/>
<stop offset="1" stop-color="white" stop-opacity="0"/>
</linearGradient>
<linearGradient id="paint2_linear_2090_17560" x1="137.822" y1="54.7855" x2="137.822" y2="241.622" gradientUnits="userSpaceOnUse">
<stop offset="0.313079" stop-color="white"/>
<stop offset="1" stop-color="white" stop-opacity="0"/>
</linearGradient>
<linearGradient id="paint3_linear_2090_17560" x1="137.822" y1="54.7855" x2="137.822" y2="241.622" gradientUnits="userSpaceOnUse">
<stop offset="0.313079" stop-color="white"/>
<stop offset="1" stop-color="white" stop-opacity="0"/>
</linearGradient>
<linearGradient id="paint4_linear_2090_17560" x1="137.822" y1="54.7855" x2="137.822" y2="241.622" gradientUnits="userSpaceOnUse">
<stop offset="0.313079" stop-color="white"/>
<stop offset="1" stop-color="white" stop-opacity="0"/>
</linearGradient>
</defs>
</svg>
